G04 EAGLE Gerber RS-274X export*
G75*
%MOMM*%
%FSLAX34Y34*%
%LPD*%
%INTop Copper*%
%IPPOS*%
%AMOC8*
5,1,8,0,0,1.08239X$1,22.5*%
G01*
%ADD10P,1.429621X8X22.500000*%
%ADD11C,1.320800*%
%ADD12P,1.732040X8X22.500000*%
%ADD13C,2.247900*%
%ADD14C,1.422400*%
%ADD15C,1.524000*%
%ADD16C,1.930400*%
%ADD17R,2.025000X2.025000*%
%ADD18C,2.025000*%
%ADD19C,0.762000*%

G36*
X658898Y11942D02*
X658898Y11942D01*
X658917Y11940D01*
X659019Y11962D01*
X659121Y11979D01*
X659138Y11988D01*
X659158Y11992D01*
X659247Y12045D01*
X659338Y12094D01*
X659352Y12108D01*
X659369Y12118D01*
X659436Y12197D01*
X659508Y12272D01*
X659516Y12290D01*
X659529Y12305D01*
X659568Y12401D01*
X659611Y12495D01*
X659613Y12515D01*
X659621Y12533D01*
X659639Y12700D01*
X659639Y787400D01*
X659636Y787420D01*
X659638Y787439D01*
X659616Y787541D01*
X659600Y787643D01*
X659590Y787660D01*
X659586Y787680D01*
X659533Y787769D01*
X659484Y787860D01*
X659470Y787874D01*
X659460Y787891D01*
X659381Y787958D01*
X659306Y788030D01*
X659288Y788038D01*
X659273Y788051D01*
X659177Y788090D01*
X659083Y788133D01*
X659063Y788135D01*
X659045Y788143D01*
X658878Y788161D01*
X12700Y788161D01*
X12680Y788158D01*
X12661Y788160D01*
X12559Y788138D01*
X12457Y788122D01*
X12440Y788112D01*
X12420Y788108D01*
X12331Y788055D01*
X12240Y788006D01*
X12226Y787992D01*
X12209Y787982D01*
X12142Y787903D01*
X12071Y787828D01*
X12062Y787810D01*
X12049Y787795D01*
X12010Y787699D01*
X11967Y787605D01*
X11965Y787585D01*
X11957Y787567D01*
X11939Y787400D01*
X11939Y12700D01*
X11942Y12680D01*
X11940Y12661D01*
X11962Y12559D01*
X11979Y12457D01*
X11988Y12440D01*
X11992Y12420D01*
X12045Y12331D01*
X12094Y12240D01*
X12108Y12226D01*
X12118Y12209D01*
X12197Y12142D01*
X12272Y12071D01*
X12290Y12062D01*
X12305Y12049D01*
X12401Y12010D01*
X12495Y11967D01*
X12515Y11965D01*
X12533Y11957D01*
X12700Y11939D01*
X658878Y11939D01*
X658898Y11942D01*
G37*
%LPC*%
G36*
X595822Y380936D02*
X595822Y380936D01*
X591130Y382879D01*
X587540Y386470D01*
X585596Y391161D01*
X585596Y396239D01*
X587540Y400930D01*
X591130Y404521D01*
X595822Y406464D01*
X599138Y406464D01*
X599208Y406476D01*
X599280Y406478D01*
X599329Y406496D01*
X599380Y406504D01*
X599444Y406538D01*
X599511Y406562D01*
X599552Y406595D01*
X599598Y406619D01*
X599647Y406671D01*
X599703Y406716D01*
X599731Y406760D01*
X599767Y406797D01*
X599797Y406862D01*
X599836Y406923D01*
X599849Y406973D01*
X599871Y407020D01*
X599879Y407092D01*
X599896Y407161D01*
X599892Y407213D01*
X599898Y407265D01*
X599882Y407335D01*
X599877Y407406D01*
X599857Y407454D01*
X599845Y407505D01*
X599809Y407567D01*
X599781Y407633D01*
X599736Y407689D01*
X599719Y407716D01*
X599702Y407732D01*
X599676Y407764D01*
X564013Y443426D01*
X562405Y445034D01*
X561593Y446995D01*
X561593Y508289D01*
X561591Y508303D01*
X561592Y508313D01*
X561591Y508318D01*
X561592Y508328D01*
X561570Y508430D01*
X561567Y508447D01*
X561557Y508520D01*
X561555Y508523D01*
X561554Y508532D01*
X561544Y508549D01*
X561540Y508569D01*
X561487Y508658D01*
X561481Y508669D01*
X561445Y508739D01*
X561442Y508742D01*
X561438Y508749D01*
X561424Y508763D01*
X561414Y508780D01*
X561335Y508847D01*
X561332Y508850D01*
X561270Y508911D01*
X561265Y508914D01*
X561260Y508919D01*
X561242Y508927D01*
X561227Y508940D01*
X561194Y508953D01*
X561123Y508992D01*
X556701Y510824D01*
X553424Y514101D01*
X552884Y515403D01*
X552823Y515503D01*
X552763Y515603D01*
X552758Y515607D01*
X552755Y515612D01*
X552665Y515687D01*
X552576Y515763D01*
X552570Y515765D01*
X552565Y515769D01*
X552457Y515811D01*
X552348Y515855D01*
X552340Y515856D01*
X552336Y515857D01*
X552317Y515858D01*
X552181Y515873D01*
X540419Y515873D01*
X540304Y515854D01*
X540188Y515837D01*
X540182Y515835D01*
X540176Y515834D01*
X540074Y515779D01*
X539969Y515726D01*
X539964Y515721D01*
X539959Y515718D01*
X539879Y515634D01*
X539796Y515550D01*
X539793Y515544D01*
X539789Y515540D01*
X539782Y515523D01*
X539716Y515403D01*
X539176Y514101D01*
X535899Y510824D01*
X531617Y509050D01*
X528748Y509050D01*
X528652Y509035D01*
X528555Y509025D01*
X528531Y509015D01*
X528505Y509011D01*
X528419Y508965D01*
X528330Y508925D01*
X528310Y508908D01*
X528287Y508895D01*
X528220Y508825D01*
X528149Y508759D01*
X528136Y508736D01*
X528118Y508717D01*
X528077Y508629D01*
X528030Y508543D01*
X528025Y508518D01*
X528014Y508494D01*
X528004Y508397D01*
X527986Y508301D01*
X527990Y508275D01*
X527987Y508250D01*
X528008Y508155D01*
X528022Y508058D01*
X528034Y508035D01*
X528040Y508009D01*
X528090Y507926D01*
X528134Y507839D01*
X528152Y507820D01*
X528166Y507798D01*
X528240Y507735D01*
X528309Y507667D01*
X528338Y507651D01*
X528353Y507638D01*
X528384Y507626D01*
X528456Y507586D01*
X528802Y507443D01*
X543672Y492573D01*
X543746Y492520D01*
X543815Y492460D01*
X543845Y492448D01*
X543872Y492429D01*
X543958Y492402D01*
X544043Y492368D01*
X544084Y492364D01*
X544107Y492357D01*
X544139Y492358D01*
X544210Y492350D01*
X548617Y492350D01*
X552899Y490576D01*
X556176Y487299D01*
X557950Y483017D01*
X557950Y478383D01*
X556176Y474101D01*
X552899Y470824D01*
X548617Y469050D01*
X543983Y469050D01*
X539701Y470824D01*
X536424Y474101D01*
X534650Y478383D01*
X534650Y483017D01*
X535477Y485014D01*
X535504Y485127D01*
X535532Y485241D01*
X535532Y485247D01*
X535533Y485253D01*
X535522Y485370D01*
X535513Y485486D01*
X535511Y485492D01*
X535510Y485498D01*
X535462Y485606D01*
X535417Y485712D01*
X535412Y485718D01*
X535410Y485723D01*
X535398Y485737D01*
X535312Y485843D01*
X523793Y497362D01*
X523719Y497415D01*
X523650Y497475D01*
X523620Y497487D01*
X523593Y497506D01*
X523507Y497533D01*
X523422Y497567D01*
X523381Y497571D01*
X523358Y497578D01*
X523326Y497577D01*
X523255Y497585D01*
X520147Y497585D01*
X518186Y498397D01*
X507541Y509042D01*
X507540Y509045D01*
X507516Y509084D01*
X507500Y509127D01*
X507451Y509188D01*
X507411Y509254D01*
X507375Y509284D01*
X507346Y509319D01*
X507281Y509362D01*
X507221Y509411D01*
X507178Y509428D01*
X507140Y509452D01*
X507064Y509471D01*
X506991Y509499D01*
X506946Y509501D01*
X506901Y509512D01*
X506824Y509506D01*
X506746Y509510D01*
X506702Y509497D01*
X506656Y509493D01*
X506584Y509463D01*
X506509Y509441D01*
X506472Y509415D01*
X506430Y509397D01*
X506323Y509312D01*
X506307Y509301D01*
X506304Y509297D01*
X506299Y509292D01*
X506057Y509050D01*
X484543Y509050D01*
X483650Y509943D01*
X483650Y531457D01*
X484543Y532350D01*
X505968Y532350D01*
X505988Y532353D01*
X506007Y532351D01*
X506109Y532373D01*
X506211Y532389D01*
X506228Y532399D01*
X506248Y532403D01*
X506337Y532456D01*
X506428Y532505D01*
X506442Y532519D01*
X506459Y532529D01*
X506526Y532608D01*
X506598Y532683D01*
X506606Y532701D01*
X506619Y532716D01*
X506658Y532812D01*
X506701Y532906D01*
X506703Y532926D01*
X506711Y532944D01*
X506729Y533111D01*
X506729Y614571D01*
X506710Y614686D01*
X506693Y614802D01*
X506691Y614808D01*
X506690Y614814D01*
X506635Y614916D01*
X506582Y615022D01*
X506577Y615026D01*
X506574Y615031D01*
X506490Y615112D01*
X506406Y615194D01*
X506400Y615197D01*
X506396Y615201D01*
X506379Y615209D01*
X506259Y615275D01*
X505935Y615409D01*
X503649Y617695D01*
X502463Y620559D01*
X502401Y620658D01*
X502341Y620759D01*
X502336Y620763D01*
X502333Y620768D01*
X502243Y620843D01*
X502154Y620919D01*
X502148Y620921D01*
X502143Y620925D01*
X502035Y620967D01*
X501926Y621011D01*
X501918Y621012D01*
X501914Y621013D01*
X501896Y621014D01*
X501759Y621029D01*
X433279Y621029D01*
X431318Y621841D01*
X405800Y647359D01*
X405781Y647373D01*
X405765Y647392D01*
X405681Y647445D01*
X405600Y647503D01*
X405578Y647510D01*
X405557Y647523D01*
X405460Y647546D01*
X405365Y647575D01*
X405341Y647575D01*
X405318Y647580D01*
X405219Y647571D01*
X405120Y647569D01*
X405097Y647561D01*
X405073Y647558D01*
X404982Y647519D01*
X404889Y647484D01*
X404870Y647469D01*
X404848Y647460D01*
X404774Y647393D01*
X404696Y647331D01*
X404683Y647310D01*
X404666Y647294D01*
X404617Y647208D01*
X404563Y647124D01*
X404558Y647100D01*
X404546Y647079D01*
X404528Y646982D01*
X404503Y646885D01*
X404505Y646861D01*
X404501Y646838D01*
X404515Y646739D01*
X404523Y646640D01*
X404532Y646618D01*
X404535Y646594D01*
X404603Y646440D01*
X405378Y645098D01*
X407161Y638444D01*
X407161Y631556D01*
X405378Y624902D01*
X401934Y618937D01*
X397063Y614066D01*
X391098Y610622D01*
X384444Y608839D01*
X377556Y608839D01*
X370902Y610622D01*
X364937Y614066D01*
X360066Y618937D01*
X356622Y624902D01*
X354839Y631556D01*
X354839Y638444D01*
X356622Y645098D01*
X360066Y651063D01*
X364937Y655934D01*
X370902Y659378D01*
X377556Y661161D01*
X384444Y661161D01*
X391098Y659378D01*
X392440Y658603D01*
X392463Y658594D01*
X392483Y658580D01*
X392577Y658551D01*
X392671Y658516D01*
X392695Y658515D01*
X392718Y658508D01*
X392817Y658510D01*
X392916Y658507D01*
X392939Y658514D01*
X392963Y658514D01*
X393057Y658548D01*
X393152Y658576D01*
X393172Y658590D01*
X393194Y658599D01*
X393272Y658661D01*
X393353Y658718D01*
X393368Y658737D01*
X393387Y658752D01*
X393440Y658836D01*
X393499Y658916D01*
X393506Y658939D01*
X393520Y658959D01*
X393544Y659056D01*
X393574Y659150D01*
X393574Y659174D01*
X393580Y659198D01*
X393572Y659297D01*
X393570Y659396D01*
X393562Y659419D01*
X393560Y659443D01*
X393522Y659534D01*
X393488Y659628D01*
X393474Y659647D01*
X393464Y659669D01*
X393359Y659800D01*
X318053Y735106D01*
X317979Y735159D01*
X317910Y735219D01*
X317880Y735231D01*
X317853Y735250D01*
X317767Y735277D01*
X317682Y735311D01*
X317641Y735315D01*
X317618Y735322D01*
X317586Y735321D01*
X317515Y735329D01*
X296119Y735329D01*
X294158Y736141D01*
X292550Y737749D01*
X284298Y746002D01*
X284204Y746069D01*
X284109Y746140D01*
X284103Y746142D01*
X284098Y746145D01*
X283987Y746180D01*
X283875Y746216D01*
X283869Y746216D01*
X283863Y746218D01*
X283746Y746215D01*
X283629Y746214D01*
X283622Y746212D01*
X283617Y746211D01*
X283599Y746205D01*
X283468Y746167D01*
X281219Y745235D01*
X277581Y745235D01*
X274220Y746627D01*
X271647Y749200D01*
X270255Y752561D01*
X270255Y771439D01*
X271647Y774800D01*
X274220Y777373D01*
X277581Y778765D01*
X281219Y778765D01*
X284580Y777373D01*
X287153Y774800D01*
X288545Y771439D01*
X288545Y757159D01*
X288559Y757069D01*
X288567Y756978D01*
X288579Y756948D01*
X288584Y756916D01*
X288627Y756836D01*
X288663Y756752D01*
X288689Y756720D01*
X288700Y756699D01*
X288723Y756677D01*
X288768Y756621D01*
X294949Y750440D01*
X295028Y750383D01*
X295103Y750321D01*
X295127Y750311D01*
X295148Y750296D01*
X295242Y750268D01*
X295332Y750233D01*
X295359Y750232D01*
X295384Y750224D01*
X295481Y750226D01*
X295578Y750222D01*
X295603Y750229D01*
X295629Y750230D01*
X295721Y750264D01*
X295814Y750291D01*
X295836Y750306D01*
X295860Y750315D01*
X295937Y750376D01*
X296016Y750431D01*
X296032Y750452D01*
X296052Y750468D01*
X296105Y750550D01*
X296163Y750628D01*
X296171Y750653D01*
X296185Y750675D01*
X296209Y750770D01*
X296239Y750862D01*
X296239Y750888D01*
X296246Y750914D01*
X296238Y751011D01*
X296237Y751108D01*
X296228Y751140D01*
X296226Y751159D01*
X296214Y751189D01*
X296190Y751269D01*
X295655Y752561D01*
X295655Y771439D01*
X297047Y774800D01*
X299620Y777373D01*
X302981Y778765D01*
X306619Y778765D01*
X309980Y777373D01*
X312553Y774800D01*
X313945Y771439D01*
X313945Y765048D01*
X313948Y765028D01*
X313946Y765009D01*
X313968Y764907D01*
X313984Y764805D01*
X313994Y764788D01*
X313998Y764768D01*
X314051Y764679D01*
X314100Y764588D01*
X314114Y764574D01*
X314124Y764557D01*
X314203Y764490D01*
X314278Y764418D01*
X314296Y764410D01*
X314311Y764397D01*
X314407Y764358D01*
X314501Y764315D01*
X314521Y764313D01*
X314539Y764305D01*
X314706Y764287D01*
X371393Y764287D01*
X373354Y763475D01*
X383764Y753065D01*
X383822Y753023D01*
X383874Y752973D01*
X383921Y752952D01*
X383963Y752921D01*
X384032Y752900D01*
X384097Y752870D01*
X384149Y752864D01*
X384199Y752849D01*
X384270Y752851D01*
X384341Y752843D01*
X384392Y752854D01*
X384444Y752855D01*
X384512Y752880D01*
X384582Y752895D01*
X384627Y752922D01*
X384675Y752940D01*
X384731Y752984D01*
X384793Y753021D01*
X384827Y753061D01*
X384867Y753093D01*
X384906Y753154D01*
X384953Y753208D01*
X384972Y753256D01*
X385000Y753300D01*
X385018Y753370D01*
X385045Y753436D01*
X385053Y753508D01*
X385061Y753539D01*
X385059Y753562D01*
X385063Y753603D01*
X385063Y770830D01*
X386378Y774004D01*
X388808Y776434D01*
X391982Y777749D01*
X395418Y777749D01*
X398592Y776434D01*
X401022Y774004D01*
X402337Y770830D01*
X402337Y754619D01*
X402348Y754548D01*
X402350Y754477D01*
X402368Y754428D01*
X402376Y754376D01*
X402410Y754313D01*
X402435Y754246D01*
X402467Y754205D01*
X402492Y754159D01*
X402543Y754110D01*
X402588Y754054D01*
X402632Y754025D01*
X402670Y753989D01*
X402735Y753959D01*
X402795Y753921D01*
X402846Y753908D01*
X402893Y753886D01*
X402964Y753878D01*
X403034Y753860D01*
X403086Y753865D01*
X403137Y753859D01*
X403208Y753874D01*
X403279Y753880D01*
X403327Y753900D01*
X403378Y753911D01*
X403439Y753948D01*
X403505Y753976D01*
X403561Y754021D01*
X403589Y754037D01*
X403604Y754055D01*
X403636Y754081D01*
X410240Y760685D01*
X410293Y760759D01*
X410353Y760828D01*
X410365Y760858D01*
X410384Y760884D01*
X410411Y760971D01*
X410445Y761056D01*
X410449Y761097D01*
X410456Y761120D01*
X410455Y761152D01*
X410463Y761223D01*
X410463Y770830D01*
X411778Y774004D01*
X414208Y776434D01*
X417382Y777749D01*
X420818Y777749D01*
X423992Y776434D01*
X426422Y774004D01*
X427737Y770830D01*
X427737Y769620D01*
X427740Y769600D01*
X427738Y769581D01*
X427760Y769479D01*
X427776Y769377D01*
X427786Y769360D01*
X427790Y769340D01*
X427843Y769251D01*
X427892Y769160D01*
X427906Y769146D01*
X427916Y769129D01*
X427995Y769062D01*
X428070Y768990D01*
X428088Y768982D01*
X428103Y768969D01*
X428199Y768930D01*
X428293Y768887D01*
X428313Y768885D01*
X428331Y768877D01*
X428498Y768859D01*
X486679Y768859D01*
X486769Y768873D01*
X486860Y768881D01*
X486890Y768893D01*
X486922Y768898D01*
X487002Y768941D01*
X487086Y768977D01*
X487118Y769003D01*
X487139Y769014D01*
X487161Y769037D01*
X487217Y769082D01*
X499898Y781763D01*
X501859Y782575D01*
X517697Y782575D01*
X519658Y781763D01*
X529672Y771749D01*
X529746Y771696D01*
X529815Y771636D01*
X529845Y771624D01*
X529871Y771605D01*
X529958Y771578D01*
X530043Y771544D01*
X530084Y771540D01*
X530107Y771533D01*
X530139Y771534D01*
X530210Y771526D01*
X537346Y771526D01*
X542926Y765946D01*
X542926Y758054D01*
X540482Y755610D01*
X540429Y755536D01*
X540369Y755467D01*
X540357Y755437D01*
X540338Y755411D01*
X540311Y755324D01*
X540277Y755239D01*
X540273Y755198D01*
X540266Y755175D01*
X540267Y755143D01*
X540259Y755072D01*
X540259Y625303D01*
X539447Y623342D01*
X539212Y623107D01*
X539159Y623033D01*
X539099Y622964D01*
X539087Y622934D01*
X539068Y622907D01*
X539041Y622821D01*
X539007Y622736D01*
X539003Y622695D01*
X538996Y622672D01*
X538997Y622640D01*
X538989Y622569D01*
X538989Y618933D01*
X535910Y615854D01*
X535857Y615780D01*
X535797Y615711D01*
X535785Y615680D01*
X535766Y615654D01*
X535739Y615567D01*
X535705Y615482D01*
X535701Y615441D01*
X535694Y615419D01*
X535695Y615387D01*
X535687Y615316D01*
X535687Y531104D01*
X535689Y531087D01*
X535688Y531072D01*
X535702Y531006D01*
X535709Y530923D01*
X535721Y530893D01*
X535726Y530861D01*
X535739Y530838D01*
X535740Y530831D01*
X535759Y530800D01*
X535769Y530780D01*
X535805Y530696D01*
X535831Y530664D01*
X535842Y530644D01*
X535865Y530621D01*
X535910Y530566D01*
X539176Y527299D01*
X539295Y527013D01*
X539357Y526913D01*
X539416Y526813D01*
X539421Y526809D01*
X539424Y526804D01*
X539515Y526729D01*
X539603Y526653D01*
X539609Y526651D01*
X539614Y526647D01*
X539722Y526605D01*
X539831Y526561D01*
X539839Y526560D01*
X539843Y526559D01*
X539862Y526558D01*
X539998Y526543D01*
X552602Y526543D01*
X552717Y526562D01*
X552833Y526579D01*
X552839Y526581D01*
X552845Y526582D01*
X552947Y526637D01*
X553052Y526690D01*
X553057Y526695D01*
X553062Y526698D01*
X553142Y526782D01*
X553224Y526866D01*
X553228Y526872D01*
X553231Y526876D01*
X553239Y526893D01*
X553305Y527013D01*
X553424Y527299D01*
X556701Y530576D01*
X560983Y532350D01*
X565617Y532350D01*
X569899Y530576D01*
X573176Y527299D01*
X574950Y523017D01*
X574950Y518383D01*
X573176Y514101D01*
X572486Y513411D01*
X572433Y513337D01*
X572373Y513267D01*
X572361Y513237D01*
X572342Y513211D01*
X572315Y513124D01*
X572281Y513039D01*
X572277Y512998D01*
X572270Y512976D01*
X572271Y512944D01*
X572263Y512872D01*
X572263Y450581D01*
X572277Y450491D01*
X572285Y450400D01*
X572297Y450370D01*
X572302Y450338D01*
X572345Y450258D01*
X572381Y450174D01*
X572407Y450142D01*
X572418Y450121D01*
X572441Y450099D01*
X572486Y450043D01*
X600971Y421558D01*
X601050Y421501D01*
X601125Y421439D01*
X601149Y421429D01*
X601170Y421414D01*
X601263Y421386D01*
X601354Y421351D01*
X601380Y421350D01*
X601405Y421342D01*
X601503Y421344D01*
X601600Y421340D01*
X601625Y421348D01*
X601651Y421348D01*
X601743Y421382D01*
X601836Y421409D01*
X601858Y421424D01*
X601882Y421433D01*
X601958Y421494D01*
X602038Y421549D01*
X602054Y421570D01*
X602074Y421586D01*
X602127Y421668D01*
X602185Y421746D01*
X602193Y421771D01*
X602207Y421793D01*
X602231Y421888D01*
X602261Y421980D01*
X602261Y422007D01*
X602267Y422032D01*
X602260Y422129D01*
X602259Y422226D01*
X602250Y422258D01*
X602248Y422277D01*
X602235Y422307D01*
X602212Y422387D01*
X600139Y427392D01*
X600139Y436208D01*
X603513Y444353D01*
X609747Y450587D01*
X617892Y453961D01*
X626708Y453961D01*
X634853Y450587D01*
X641087Y444353D01*
X644461Y436208D01*
X644461Y427392D01*
X641087Y419247D01*
X634853Y413013D01*
X626708Y409639D01*
X617892Y409639D01*
X612887Y411712D01*
X612793Y411734D01*
X612700Y411763D01*
X612673Y411762D01*
X612648Y411768D01*
X612551Y411759D01*
X612454Y411757D01*
X612429Y411748D01*
X612403Y411745D01*
X612314Y411706D01*
X612223Y411672D01*
X612202Y411656D01*
X612178Y411645D01*
X612107Y411579D01*
X612031Y411519D01*
X612016Y411497D01*
X611997Y411479D01*
X611950Y411393D01*
X611898Y411312D01*
X611891Y411286D01*
X611879Y411263D01*
X611861Y411167D01*
X611838Y411073D01*
X611840Y411047D01*
X611835Y411021D01*
X611849Y410925D01*
X611857Y410828D01*
X611867Y410804D01*
X611871Y410778D01*
X611915Y410691D01*
X611953Y410602D01*
X611973Y410576D01*
X611982Y410559D01*
X612006Y410536D01*
X612058Y410471D01*
X612599Y409930D01*
X613411Y407969D01*
X613411Y407225D01*
X613414Y407206D01*
X613412Y407186D01*
X613434Y407085D01*
X613450Y406983D01*
X613460Y406965D01*
X613464Y406946D01*
X613517Y406857D01*
X613566Y406765D01*
X613580Y406752D01*
X613590Y406735D01*
X613669Y406667D01*
X613744Y406596D01*
X613762Y406588D01*
X613777Y406575D01*
X613873Y406536D01*
X613967Y406492D01*
X613987Y406490D01*
X614005Y406483D01*
X614172Y406464D01*
X623378Y406464D01*
X628070Y404521D01*
X631660Y400930D01*
X633604Y396239D01*
X633604Y391161D01*
X631660Y386470D01*
X628070Y382879D01*
X623378Y380936D01*
X595822Y380936D01*
G37*
%LPD*%
%LPC*%
G36*
X369271Y163829D02*
X369271Y163829D01*
X367310Y164641D01*
X342949Y189002D01*
X342137Y190963D01*
X342137Y509539D01*
X342123Y509629D01*
X342115Y509720D01*
X342103Y509750D01*
X342098Y509782D01*
X342055Y509862D01*
X342019Y509946D01*
X341993Y509978D01*
X341982Y509999D01*
X341959Y510021D01*
X341914Y510077D01*
X137209Y714782D01*
X136397Y716743D01*
X136397Y746399D01*
X136378Y746514D01*
X136361Y746630D01*
X136359Y746636D01*
X136358Y746642D01*
X136303Y746744D01*
X136250Y746849D01*
X136245Y746854D01*
X136242Y746859D01*
X136158Y746939D01*
X136074Y747021D01*
X136068Y747025D01*
X136064Y747029D01*
X136047Y747036D01*
X135927Y747102D01*
X134808Y747566D01*
X132378Y749996D01*
X131063Y753170D01*
X131063Y770830D01*
X132378Y774004D01*
X134808Y776434D01*
X137982Y777749D01*
X141418Y777749D01*
X144592Y776434D01*
X147022Y774004D01*
X148337Y770830D01*
X148337Y753170D01*
X147125Y750244D01*
X147110Y750180D01*
X147085Y750119D01*
X147076Y750036D01*
X147069Y750004D01*
X147070Y749985D01*
X147067Y749953D01*
X147067Y720329D01*
X147081Y720239D01*
X147089Y720148D01*
X147101Y720118D01*
X147106Y720086D01*
X147149Y720006D01*
X147185Y719922D01*
X147211Y719890D01*
X147222Y719869D01*
X147245Y719847D01*
X147290Y719791D01*
X351995Y515086D01*
X352807Y513125D01*
X352807Y194549D01*
X352821Y194459D01*
X352829Y194368D01*
X352841Y194338D01*
X352846Y194306D01*
X352889Y194226D01*
X352925Y194142D01*
X352951Y194110D01*
X352962Y194089D01*
X352985Y194067D01*
X353030Y194011D01*
X356200Y190841D01*
X356219Y190827D01*
X356235Y190808D01*
X356319Y190755D01*
X356399Y190697D01*
X356422Y190690D01*
X356443Y190677D01*
X356540Y190654D01*
X356635Y190625D01*
X356659Y190625D01*
X356682Y190620D01*
X356781Y190629D01*
X356880Y190631D01*
X356903Y190639D01*
X356927Y190642D01*
X357018Y190681D01*
X357111Y190716D01*
X357130Y190731D01*
X357152Y190740D01*
X357226Y190807D01*
X357304Y190869D01*
X357317Y190890D01*
X357334Y190906D01*
X357383Y190992D01*
X357437Y191076D01*
X357442Y191100D01*
X357454Y191121D01*
X357472Y191218D01*
X357497Y191315D01*
X357495Y191339D01*
X357499Y191362D01*
X357485Y191461D01*
X357477Y191560D01*
X357468Y191582D01*
X357465Y191606D01*
X357397Y191760D01*
X356622Y193102D01*
X354839Y199756D01*
X354839Y206644D01*
X356622Y213298D01*
X360066Y219263D01*
X364937Y224134D01*
X370902Y227578D01*
X377556Y229361D01*
X384444Y229361D01*
X391098Y227578D01*
X397063Y224134D01*
X401934Y219263D01*
X405378Y213298D01*
X407161Y206644D01*
X407161Y199756D01*
X405378Y193102D01*
X402521Y188154D01*
X402512Y188131D01*
X402498Y188112D01*
X402474Y188033D01*
X402455Y187993D01*
X402453Y187975D01*
X402434Y187924D01*
X402433Y187900D01*
X402426Y187877D01*
X402428Y187777D01*
X402425Y187678D01*
X402432Y187655D01*
X402432Y187631D01*
X402466Y187537D01*
X402495Y187442D01*
X402509Y187422D01*
X402517Y187400D01*
X402579Y187322D01*
X402636Y187241D01*
X402655Y187226D01*
X402670Y187208D01*
X402754Y187154D01*
X402834Y187095D01*
X402857Y187088D01*
X402877Y187075D01*
X402974Y187050D01*
X403068Y187020D01*
X403093Y187020D01*
X403116Y187015D01*
X403215Y187022D01*
X403314Y187024D01*
X403337Y187032D01*
X403361Y187034D01*
X403437Y187066D01*
X403438Y187067D01*
X403452Y187073D01*
X403546Y187106D01*
X403565Y187121D01*
X403587Y187130D01*
X403645Y187176D01*
X403655Y187181D01*
X403665Y187192D01*
X403718Y187235D01*
X443746Y227262D01*
X443772Y227299D01*
X443806Y227331D01*
X443844Y227399D01*
X443889Y227462D01*
X443903Y227506D01*
X443925Y227546D01*
X443939Y227623D01*
X443962Y227697D01*
X443960Y227743D01*
X443969Y227788D01*
X443957Y227865D01*
X443955Y227943D01*
X443940Y227986D01*
X443933Y228031D01*
X443898Y228101D01*
X443871Y228174D01*
X443842Y228210D01*
X443821Y228251D01*
X443766Y228305D01*
X443717Y228366D01*
X443679Y228391D01*
X443646Y228423D01*
X443526Y228489D01*
X443510Y228499D01*
X443505Y228500D01*
X443499Y228504D01*
X438730Y230479D01*
X435140Y234070D01*
X433196Y238761D01*
X433196Y243839D01*
X435140Y248530D01*
X438730Y252121D01*
X443422Y254064D01*
X470978Y254064D01*
X475670Y252121D01*
X479260Y248530D01*
X481204Y243839D01*
X481204Y238761D01*
X479260Y234070D01*
X475670Y230479D01*
X470978Y228536D01*
X460424Y228536D01*
X460333Y228521D01*
X460243Y228514D01*
X460213Y228501D01*
X460181Y228496D01*
X460100Y228453D01*
X460016Y228418D01*
X459984Y228392D01*
X459963Y228381D01*
X459941Y228358D01*
X459885Y228313D01*
X396214Y164641D01*
X394253Y163829D01*
X369271Y163829D01*
G37*
%LPD*%
%LPC*%
G36*
X443422Y76136D02*
X443422Y76136D01*
X438730Y78079D01*
X435140Y81670D01*
X433196Y86361D01*
X433196Y91439D01*
X435140Y96130D01*
X438730Y99721D01*
X443422Y101664D01*
X451104Y101664D01*
X451124Y101667D01*
X451143Y101665D01*
X451245Y101687D01*
X451347Y101704D01*
X451364Y101713D01*
X451384Y101718D01*
X451473Y101771D01*
X451564Y101819D01*
X451578Y101833D01*
X451595Y101844D01*
X451662Y101922D01*
X451734Y101997D01*
X451742Y102015D01*
X451755Y102031D01*
X451794Y102127D01*
X451837Y102220D01*
X451839Y102240D01*
X451847Y102259D01*
X451865Y102425D01*
X451865Y129077D01*
X452677Y131038D01*
X473388Y151749D01*
X473445Y151828D01*
X473507Y151903D01*
X473517Y151927D01*
X473532Y151948D01*
X473560Y152042D01*
X473595Y152132D01*
X473596Y152159D01*
X473604Y152184D01*
X473602Y152281D01*
X473606Y152378D01*
X473599Y152403D01*
X473598Y152429D01*
X473564Y152521D01*
X473537Y152614D01*
X473522Y152636D01*
X473513Y152660D01*
X473452Y152737D01*
X473397Y152816D01*
X473376Y152832D01*
X473360Y152852D01*
X473278Y152905D01*
X473200Y152963D01*
X473175Y152971D01*
X473153Y152985D01*
X473058Y153009D01*
X472966Y153039D01*
X472940Y153039D01*
X472914Y153046D01*
X472817Y153038D01*
X472720Y153037D01*
X472688Y153028D01*
X472669Y153026D01*
X472639Y153014D01*
X472559Y152990D01*
X470978Y152336D01*
X443422Y152336D01*
X438730Y154279D01*
X435140Y157870D01*
X433196Y162561D01*
X433196Y167639D01*
X435140Y172330D01*
X438730Y175921D01*
X443422Y177864D01*
X470978Y177864D01*
X475670Y175921D01*
X479260Y172330D01*
X481204Y167639D01*
X481204Y162561D01*
X480549Y160981D01*
X480527Y160886D01*
X480498Y160793D01*
X480499Y160767D01*
X480493Y160741D01*
X480502Y160645D01*
X480505Y160547D01*
X480514Y160522D01*
X480516Y160496D01*
X480556Y160407D01*
X480589Y160316D01*
X480605Y160296D01*
X480616Y160272D01*
X480682Y160200D01*
X480743Y160124D01*
X480765Y160110D01*
X480783Y160091D01*
X480868Y160044D01*
X480950Y159991D01*
X480975Y159985D01*
X480998Y159972D01*
X481094Y159955D01*
X481188Y159931D01*
X481214Y159933D01*
X481240Y159928D01*
X481337Y159943D01*
X481433Y159950D01*
X481458Y159960D01*
X481483Y159964D01*
X481570Y160008D01*
X481660Y160046D01*
X481685Y160067D01*
X481703Y160076D01*
X481726Y160099D01*
X481791Y160151D01*
X483646Y162007D01*
X483699Y162081D01*
X483759Y162150D01*
X483771Y162180D01*
X483790Y162207D01*
X483817Y162294D01*
X483851Y162378D01*
X483855Y162419D01*
X483862Y162442D01*
X483861Y162474D01*
X483869Y162545D01*
X483869Y280939D01*
X483855Y281029D01*
X483847Y281120D01*
X483835Y281150D01*
X483830Y281182D01*
X483787Y281262D01*
X483751Y281346D01*
X483725Y281378D01*
X483714Y281399D01*
X483691Y281421D01*
X483646Y281477D01*
X460611Y304513D01*
X460537Y304566D01*
X460467Y304625D01*
X460437Y304638D01*
X460411Y304656D01*
X460324Y304683D01*
X460239Y304717D01*
X460198Y304722D01*
X460176Y304729D01*
X460144Y304728D01*
X460072Y304736D01*
X443422Y304736D01*
X438730Y306679D01*
X435140Y310270D01*
X433196Y314961D01*
X433196Y320039D01*
X435140Y324730D01*
X438730Y328321D01*
X443422Y330264D01*
X470978Y330264D01*
X475670Y328321D01*
X479260Y324730D01*
X481204Y320039D01*
X481204Y314961D01*
X479260Y310270D01*
X475670Y306679D01*
X475212Y306489D01*
X475173Y306465D01*
X475130Y306449D01*
X475069Y306401D01*
X475050Y306389D01*
X475048Y306388D01*
X475047Y306387D01*
X475003Y306360D01*
X474973Y306324D01*
X474938Y306296D01*
X474896Y306230D01*
X474878Y306210D01*
X474878Y306209D01*
X474846Y306170D01*
X474829Y306127D01*
X474805Y306089D01*
X474786Y306013D01*
X474778Y305994D01*
X474775Y305986D01*
X474774Y305984D01*
X474758Y305941D01*
X474756Y305895D01*
X474745Y305850D01*
X474751Y305773D01*
X474750Y305767D01*
X474748Y305742D01*
X474749Y305735D01*
X474747Y305695D01*
X474760Y305651D01*
X474764Y305605D01*
X474792Y305540D01*
X474800Y305501D01*
X474807Y305490D01*
X474816Y305459D01*
X474842Y305421D01*
X474860Y305379D01*
X474912Y305313D01*
X474926Y305290D01*
X474941Y305278D01*
X474945Y305272D01*
X474956Y305257D01*
X474960Y305254D01*
X474965Y305248D01*
X493727Y286486D01*
X494539Y284525D01*
X494539Y158959D01*
X493727Y156998D01*
X462758Y126029D01*
X462705Y125955D01*
X462645Y125886D01*
X462633Y125856D01*
X462614Y125829D01*
X462587Y125743D01*
X462553Y125658D01*
X462549Y125617D01*
X462542Y125594D01*
X462543Y125562D01*
X462535Y125491D01*
X462535Y102425D01*
X462538Y102406D01*
X462536Y102386D01*
X462558Y102285D01*
X462574Y102183D01*
X462584Y102165D01*
X462588Y102146D01*
X462641Y102057D01*
X462690Y101965D01*
X462704Y101952D01*
X462714Y101935D01*
X462793Y101867D01*
X462868Y101796D01*
X462886Y101788D01*
X462901Y101775D01*
X462997Y101736D01*
X463091Y101692D01*
X463111Y101690D01*
X463129Y101683D01*
X463296Y101664D01*
X470978Y101664D01*
X475670Y99721D01*
X479260Y96130D01*
X481204Y91439D01*
X481204Y86361D01*
X479260Y81670D01*
X475670Y78079D01*
X470978Y76136D01*
X443422Y76136D01*
G37*
%LPD*%
%LPC*%
G36*
X162877Y230123D02*
X162877Y230123D01*
X158769Y231825D01*
X155625Y234969D01*
X153923Y239077D01*
X153923Y243523D01*
X154290Y244409D01*
X154317Y244523D01*
X154345Y244636D01*
X154345Y244642D01*
X154346Y244648D01*
X154335Y244765D01*
X154326Y244881D01*
X154324Y244887D01*
X154323Y244893D01*
X154276Y245000D01*
X154230Y245107D01*
X154225Y245113D01*
X154223Y245118D01*
X154211Y245132D01*
X154125Y245238D01*
X125101Y274262D01*
X124136Y275227D01*
X124120Y275239D01*
X124108Y275254D01*
X124020Y275311D01*
X123937Y275371D01*
X123918Y275377D01*
X123901Y275387D01*
X123800Y275413D01*
X123702Y275443D01*
X123682Y275443D01*
X123662Y275447D01*
X123559Y275439D01*
X123456Y275437D01*
X123437Y275430D01*
X123417Y275428D01*
X123322Y275388D01*
X123225Y275352D01*
X123209Y275340D01*
X123191Y275332D01*
X123060Y275227D01*
X118088Y270255D01*
X115823Y270255D01*
X115823Y278638D01*
X115820Y278658D01*
X115822Y278677D01*
X115800Y278779D01*
X115783Y278881D01*
X115774Y278898D01*
X115770Y278918D01*
X115717Y279007D01*
X115668Y279098D01*
X115654Y279112D01*
X115644Y279129D01*
X115565Y279196D01*
X115490Y279267D01*
X115472Y279276D01*
X115457Y279289D01*
X115361Y279327D01*
X115267Y279371D01*
X115247Y279373D01*
X115229Y279381D01*
X115062Y279399D01*
X114299Y279399D01*
X114299Y279401D01*
X115062Y279401D01*
X115082Y279404D01*
X115101Y279402D01*
X115203Y279424D01*
X115305Y279441D01*
X115322Y279450D01*
X115342Y279454D01*
X115431Y279507D01*
X115522Y279556D01*
X115536Y279570D01*
X115553Y279580D01*
X115620Y279659D01*
X115691Y279734D01*
X115700Y279752D01*
X115713Y279767D01*
X115752Y279863D01*
X115795Y279957D01*
X115797Y279977D01*
X115805Y279995D01*
X115823Y280162D01*
X115823Y288545D01*
X118088Y288545D01*
X121382Y285251D01*
X121440Y285209D01*
X121492Y285160D01*
X121539Y285138D01*
X121581Y285107D01*
X121650Y285086D01*
X121715Y285056D01*
X121767Y285050D01*
X121817Y285035D01*
X121888Y285037D01*
X121959Y285029D01*
X122010Y285040D01*
X122062Y285041D01*
X122130Y285066D01*
X122200Y285081D01*
X122245Y285108D01*
X122293Y285126D01*
X122349Y285171D01*
X122411Y285207D01*
X122445Y285247D01*
X122485Y285279D01*
X122524Y285340D01*
X122571Y285394D01*
X122590Y285443D01*
X122618Y285486D01*
X122636Y285556D01*
X122663Y285622D01*
X122671Y285694D01*
X122679Y285725D01*
X122677Y285748D01*
X122681Y285789D01*
X122681Y541543D01*
X122667Y541633D01*
X122659Y541724D01*
X122647Y541754D01*
X122642Y541786D01*
X122599Y541866D01*
X122563Y541950D01*
X122537Y541982D01*
X122526Y542003D01*
X122503Y542025D01*
X122458Y542081D01*
X114091Y550448D01*
X114017Y550501D01*
X113948Y550561D01*
X113918Y550573D01*
X113891Y550592D01*
X113805Y550619D01*
X113720Y550653D01*
X113679Y550657D01*
X113656Y550664D01*
X113624Y550663D01*
X113553Y550671D01*
X110933Y550671D01*
X106171Y555433D01*
X106171Y562167D01*
X110933Y566929D01*
X117667Y566929D01*
X122429Y562167D01*
X122429Y557515D01*
X122443Y557425D01*
X122451Y557334D01*
X122463Y557304D01*
X122468Y557272D01*
X122511Y557192D01*
X122547Y557108D01*
X122573Y557076D01*
X122584Y557055D01*
X122607Y557033D01*
X122652Y556977D01*
X132539Y547090D01*
X133351Y545129D01*
X133351Y281417D01*
X133354Y281399D01*
X133352Y281382D01*
X133366Y281314D01*
X133373Y281236D01*
X133385Y281206D01*
X133390Y281174D01*
X133401Y281154D01*
X133404Y281141D01*
X133435Y281090D01*
X133469Y281010D01*
X133495Y280978D01*
X133506Y280957D01*
X133526Y280938D01*
X133530Y280930D01*
X133537Y280924D01*
X133574Y280879D01*
X154009Y260444D01*
X154088Y260387D01*
X154163Y260325D01*
X154187Y260316D01*
X154208Y260300D01*
X154301Y260272D01*
X154392Y260237D01*
X154418Y260236D01*
X154443Y260228D01*
X154541Y260231D01*
X154638Y260226D01*
X154663Y260234D01*
X154689Y260234D01*
X154781Y260268D01*
X154874Y260295D01*
X154896Y260310D01*
X154920Y260319D01*
X154996Y260380D01*
X155076Y260435D01*
X155092Y260456D01*
X155112Y260473D01*
X155165Y260555D01*
X155223Y260633D01*
X155231Y260657D01*
X155245Y260679D01*
X155269Y260774D01*
X155299Y260866D01*
X155299Y260893D01*
X155305Y260918D01*
X155298Y261015D01*
X155297Y261112D01*
X155288Y261144D01*
X155286Y261163D01*
X155273Y261193D01*
X155250Y261274D01*
X153923Y264477D01*
X153923Y268923D01*
X155625Y273031D01*
X158769Y276175D01*
X162877Y277877D01*
X167323Y277877D01*
X171431Y276175D01*
X174575Y273031D01*
X176277Y268923D01*
X176277Y264477D01*
X174575Y260369D01*
X171431Y257225D01*
X167323Y255523D01*
X162877Y255523D01*
X159674Y256850D01*
X159579Y256872D01*
X159486Y256901D01*
X159459Y256900D01*
X159434Y256906D01*
X159337Y256897D01*
X159240Y256895D01*
X159215Y256886D01*
X159189Y256883D01*
X159100Y256844D01*
X159009Y256810D01*
X158988Y256794D01*
X158964Y256783D01*
X158893Y256717D01*
X158817Y256656D01*
X158803Y256635D01*
X158783Y256617D01*
X158736Y256531D01*
X158684Y256450D01*
X158677Y256424D01*
X158665Y256401D01*
X158647Y256305D01*
X158624Y256211D01*
X158626Y256185D01*
X158621Y256159D01*
X158635Y256063D01*
X158643Y255966D01*
X158653Y255942D01*
X158657Y255916D01*
X158701Y255829D01*
X158739Y255740D01*
X158759Y255714D01*
X158768Y255697D01*
X158792Y255673D01*
X158844Y255609D01*
X161880Y252572D01*
X161974Y252505D01*
X162069Y252435D01*
X162075Y252433D01*
X162080Y252429D01*
X162191Y252395D01*
X162303Y252358D01*
X162309Y252358D01*
X162315Y252357D01*
X162432Y252360D01*
X162549Y252361D01*
X162556Y252363D01*
X162561Y252363D01*
X162578Y252369D01*
X162710Y252407D01*
X162877Y252477D01*
X167323Y252477D01*
X171431Y250775D01*
X174575Y247631D01*
X176277Y243523D01*
X176277Y239077D01*
X174575Y234969D01*
X171431Y231825D01*
X167323Y230123D01*
X162877Y230123D01*
G37*
%LPD*%
%LPC*%
G36*
X391477Y560323D02*
X391477Y560323D01*
X387369Y562025D01*
X384225Y565169D01*
X382523Y569277D01*
X382523Y573723D01*
X382593Y573890D01*
X382619Y574004D01*
X382648Y574118D01*
X382647Y574124D01*
X382649Y574130D01*
X382638Y574247D01*
X382629Y574363D01*
X382626Y574368D01*
X382626Y574375D01*
X382578Y574482D01*
X382532Y574589D01*
X382528Y574595D01*
X382526Y574600D01*
X382513Y574613D01*
X382428Y574720D01*
X251509Y705638D01*
X250697Y707599D01*
X250697Y745341D01*
X250678Y745456D01*
X250661Y745572D01*
X250659Y745578D01*
X250658Y745584D01*
X250603Y745687D01*
X250550Y745791D01*
X250545Y745796D01*
X250542Y745801D01*
X250458Y745881D01*
X250374Y745964D01*
X250368Y745967D01*
X250364Y745971D01*
X250347Y745979D01*
X250227Y746045D01*
X248820Y746627D01*
X246247Y749200D01*
X244855Y752561D01*
X244855Y771439D01*
X246247Y774800D01*
X248820Y777373D01*
X252181Y778765D01*
X255819Y778765D01*
X259180Y777373D01*
X261753Y774800D01*
X263145Y771439D01*
X263145Y752561D01*
X261753Y749200D01*
X261590Y749037D01*
X261537Y748963D01*
X261477Y748894D01*
X261465Y748864D01*
X261446Y748837D01*
X261419Y748750D01*
X261385Y748666D01*
X261381Y748625D01*
X261374Y748602D01*
X261375Y748570D01*
X261367Y748499D01*
X261367Y711185D01*
X261381Y711095D01*
X261389Y711004D01*
X261401Y710974D01*
X261406Y710942D01*
X261449Y710862D01*
X261485Y710778D01*
X261511Y710746D01*
X261522Y710725D01*
X261545Y710703D01*
X261590Y710647D01*
X389762Y582475D01*
X389856Y582407D01*
X389950Y582337D01*
X389956Y582335D01*
X389961Y582331D01*
X390073Y582297D01*
X390184Y582261D01*
X390190Y582261D01*
X390196Y582259D01*
X390313Y582262D01*
X390430Y582263D01*
X390437Y582265D01*
X390442Y582265D01*
X390460Y582272D01*
X390591Y582310D01*
X391477Y582677D01*
X395923Y582677D01*
X400031Y580975D01*
X403175Y577831D01*
X404877Y573723D01*
X404877Y569277D01*
X403175Y565169D01*
X400031Y562025D01*
X395923Y560323D01*
X391477Y560323D01*
G37*
%LPD*%
%LPC*%
G36*
X443422Y380936D02*
X443422Y380936D01*
X438730Y382879D01*
X435140Y386470D01*
X433196Y391161D01*
X433196Y396239D01*
X435140Y400930D01*
X438730Y404521D01*
X443422Y406464D01*
X458040Y406464D01*
X458131Y406479D01*
X458221Y406486D01*
X458251Y406499D01*
X458283Y406504D01*
X458364Y406547D01*
X458448Y406582D01*
X458480Y406608D01*
X458501Y406619D01*
X458523Y406642D01*
X458579Y406687D01*
X506506Y454615D01*
X506559Y454689D01*
X506619Y454758D01*
X506631Y454788D01*
X506650Y454815D01*
X506677Y454901D01*
X506711Y454986D01*
X506715Y455027D01*
X506722Y455050D01*
X506721Y455082D01*
X506729Y455153D01*
X506729Y469889D01*
X506710Y470004D01*
X506693Y470120D01*
X506691Y470126D01*
X506690Y470132D01*
X506635Y470235D01*
X506582Y470339D01*
X506577Y470344D01*
X506574Y470349D01*
X506490Y470430D01*
X506406Y470512D01*
X506400Y470515D01*
X506396Y470519D01*
X506379Y470527D01*
X506259Y470593D01*
X505701Y470824D01*
X502424Y474101D01*
X500650Y478383D01*
X500650Y483017D01*
X502424Y487299D01*
X505701Y490576D01*
X509983Y492350D01*
X514617Y492350D01*
X518899Y490576D01*
X522176Y487299D01*
X523950Y483017D01*
X523950Y478383D01*
X522176Y474101D01*
X518899Y470824D01*
X517869Y470397D01*
X517769Y470336D01*
X517669Y470276D01*
X517665Y470271D01*
X517660Y470267D01*
X517585Y470178D01*
X517509Y470089D01*
X517507Y470083D01*
X517503Y470078D01*
X517461Y469970D01*
X517417Y469860D01*
X517416Y469853D01*
X517415Y469848D01*
X517414Y469830D01*
X517399Y469694D01*
X517399Y451567D01*
X516587Y449606D01*
X473528Y406547D01*
X473501Y406510D01*
X473467Y406479D01*
X473430Y406411D01*
X473384Y406348D01*
X473371Y406304D01*
X473349Y406264D01*
X473335Y406187D01*
X473312Y406113D01*
X473313Y406067D01*
X473305Y406022D01*
X473316Y405945D01*
X473318Y405867D01*
X473334Y405824D01*
X473341Y405778D01*
X473376Y405709D01*
X473403Y405636D01*
X473432Y405600D01*
X473452Y405559D01*
X473508Y405504D01*
X473557Y405444D01*
X473595Y405419D01*
X473628Y405387D01*
X473748Y405321D01*
X473763Y405311D01*
X473768Y405310D01*
X473775Y405306D01*
X475670Y404521D01*
X479260Y400930D01*
X481204Y396239D01*
X481204Y391161D01*
X479260Y386470D01*
X475670Y382879D01*
X470978Y380936D01*
X443422Y380936D01*
G37*
%LPD*%
%LPC*%
G36*
X174356Y608839D02*
X174356Y608839D01*
X167702Y610622D01*
X161737Y614066D01*
X156866Y618937D01*
X153422Y624902D01*
X151639Y631556D01*
X151639Y638444D01*
X153422Y645098D01*
X156866Y651063D01*
X161737Y655934D01*
X167702Y659378D01*
X174356Y661161D01*
X181244Y661161D01*
X187898Y659378D01*
X193863Y655934D01*
X198734Y651063D01*
X202178Y645098D01*
X203961Y638444D01*
X203961Y631556D01*
X202178Y624902D01*
X198734Y618937D01*
X193863Y614066D01*
X187898Y610622D01*
X181244Y608839D01*
X174356Y608839D01*
G37*
%LPD*%
%LPC*%
G36*
X174356Y177039D02*
X174356Y177039D01*
X167702Y178822D01*
X161737Y182266D01*
X156866Y187137D01*
X153422Y193102D01*
X151639Y199756D01*
X151639Y206644D01*
X153422Y213298D01*
X156866Y219263D01*
X161737Y224134D01*
X167702Y227578D01*
X174356Y229361D01*
X181244Y229361D01*
X187898Y227578D01*
X193863Y224134D01*
X198734Y219263D01*
X202178Y213298D01*
X203961Y206644D01*
X203961Y199756D01*
X202178Y193102D01*
X198734Y187137D01*
X193863Y182266D01*
X187898Y178822D01*
X181244Y177039D01*
X174356Y177039D01*
G37*
%LPD*%
%LPC*%
G36*
X630592Y739839D02*
X630592Y739839D01*
X622447Y743213D01*
X616213Y749447D01*
X612839Y757592D01*
X612839Y766408D01*
X616213Y774553D01*
X622447Y780787D01*
X630592Y784161D01*
X639408Y784161D01*
X647553Y780787D01*
X653787Y774553D01*
X657161Y766408D01*
X657161Y757592D01*
X653787Y749447D01*
X647553Y743213D01*
X639408Y739839D01*
X630592Y739839D01*
G37*
%LPD*%
%LPC*%
G36*
X33692Y739839D02*
X33692Y739839D01*
X25547Y743213D01*
X19313Y749447D01*
X15939Y757592D01*
X15939Y766408D01*
X19313Y774553D01*
X25547Y780787D01*
X33692Y784161D01*
X42508Y784161D01*
X50653Y780787D01*
X56887Y774553D01*
X60261Y766408D01*
X60261Y757592D01*
X56887Y749447D01*
X50653Y743213D01*
X42508Y739839D01*
X33692Y739839D01*
G37*
%LPD*%
%LPC*%
G36*
X338492Y15939D02*
X338492Y15939D01*
X330347Y19313D01*
X324113Y25547D01*
X320739Y33692D01*
X320739Y42508D01*
X324113Y50653D01*
X330347Y56887D01*
X338492Y60261D01*
X347308Y60261D01*
X355453Y56887D01*
X361687Y50653D01*
X365061Y42508D01*
X365061Y33692D01*
X361687Y25547D01*
X355453Y19313D01*
X347308Y15939D01*
X338492Y15939D01*
G37*
%LPD*%
%LPC*%
G36*
X630592Y15939D02*
X630592Y15939D01*
X622447Y19313D01*
X616213Y25547D01*
X612839Y33692D01*
X612839Y42508D01*
X616213Y50653D01*
X622447Y56887D01*
X630592Y60261D01*
X639408Y60261D01*
X647553Y56887D01*
X653787Y50653D01*
X657161Y42508D01*
X657161Y33692D01*
X653787Y25547D01*
X647553Y19313D01*
X639408Y15939D01*
X630592Y15939D01*
G37*
%LPD*%
%LPC*%
G36*
X33692Y396939D02*
X33692Y396939D01*
X25547Y400313D01*
X19313Y406547D01*
X15939Y414692D01*
X15939Y423508D01*
X19313Y431653D01*
X25547Y437887D01*
X33692Y441261D01*
X42508Y441261D01*
X50653Y437887D01*
X56887Y431653D01*
X60261Y423508D01*
X60261Y414692D01*
X56887Y406547D01*
X50653Y400313D01*
X42508Y396939D01*
X33692Y396939D01*
G37*
%LPD*%
%LPC*%
G36*
X33692Y15939D02*
X33692Y15939D01*
X25547Y19313D01*
X19313Y25547D01*
X15939Y33692D01*
X15939Y42508D01*
X19313Y50653D01*
X25547Y56887D01*
X33692Y60261D01*
X42508Y60261D01*
X50653Y56887D01*
X56887Y50653D01*
X60261Y42508D01*
X60261Y33692D01*
X56887Y25547D01*
X50653Y19313D01*
X42508Y15939D01*
X33692Y15939D01*
G37*
%LPD*%
%LPC*%
G36*
X60133Y550671D02*
X60133Y550671D01*
X55371Y555433D01*
X55371Y562167D01*
X58450Y565246D01*
X58503Y565320D01*
X58563Y565389D01*
X58575Y565419D01*
X58594Y565446D01*
X58621Y565533D01*
X58655Y565618D01*
X58659Y565659D01*
X58666Y565681D01*
X58665Y565713D01*
X58673Y565784D01*
X58673Y613709D01*
X59485Y615670D01*
X67848Y624033D01*
X67901Y624107D01*
X67961Y624176D01*
X67973Y624206D01*
X67992Y624232D01*
X68019Y624319D01*
X68053Y624404D01*
X68057Y624445D01*
X68064Y624468D01*
X68063Y624500D01*
X68071Y624571D01*
X68071Y625667D01*
X72833Y630429D01*
X79567Y630429D01*
X84329Y625667D01*
X84329Y618933D01*
X79567Y614171D01*
X73391Y614171D01*
X73301Y614157D01*
X73210Y614149D01*
X73180Y614137D01*
X73148Y614132D01*
X73068Y614089D01*
X72984Y614053D01*
X72952Y614027D01*
X72931Y614016D01*
X72909Y613993D01*
X72853Y613948D01*
X69566Y610661D01*
X69513Y610587D01*
X69453Y610518D01*
X69441Y610488D01*
X69422Y610461D01*
X69395Y610374D01*
X69361Y610290D01*
X69357Y610249D01*
X69350Y610226D01*
X69351Y610194D01*
X69343Y610123D01*
X69343Y564768D01*
X69357Y564678D01*
X69365Y564587D01*
X69377Y564558D01*
X69382Y564526D01*
X69425Y564445D01*
X69461Y564361D01*
X69487Y564329D01*
X69498Y564308D01*
X69521Y564286D01*
X69566Y564230D01*
X71629Y562167D01*
X71629Y555433D01*
X66867Y550671D01*
X60133Y550671D01*
G37*
%LPD*%
%LPC*%
G36*
X72833Y207771D02*
X72833Y207771D01*
X68071Y212533D01*
X68071Y216677D01*
X68057Y216767D01*
X68049Y216858D01*
X68037Y216888D01*
X68032Y216920D01*
X67989Y217000D01*
X67953Y217084D01*
X67927Y217116D01*
X67916Y217137D01*
X67893Y217159D01*
X67848Y217215D01*
X59485Y225578D01*
X58673Y227539D01*
X58673Y272416D01*
X58659Y272506D01*
X58651Y272597D01*
X58639Y272626D01*
X58634Y272658D01*
X58591Y272739D01*
X58555Y272823D01*
X58529Y272855D01*
X58518Y272876D01*
X58495Y272898D01*
X58450Y272954D01*
X55371Y276033D01*
X55371Y282767D01*
X60133Y287529D01*
X66867Y287529D01*
X71629Y282767D01*
X71629Y276033D01*
X69566Y273970D01*
X69513Y273896D01*
X69453Y273827D01*
X69441Y273796D01*
X69422Y273770D01*
X69395Y273683D01*
X69361Y273598D01*
X69357Y273557D01*
X69350Y273535D01*
X69351Y273503D01*
X69343Y273432D01*
X69343Y231125D01*
X69357Y231035D01*
X69365Y230944D01*
X69377Y230914D01*
X69382Y230882D01*
X69425Y230802D01*
X69461Y230718D01*
X69487Y230686D01*
X69498Y230665D01*
X69521Y230643D01*
X69566Y230587D01*
X75901Y224252D01*
X75975Y224199D01*
X76044Y224139D01*
X76074Y224127D01*
X76101Y224108D01*
X76187Y224081D01*
X76272Y224047D01*
X76313Y224043D01*
X76336Y224036D01*
X76368Y224037D01*
X76439Y224029D01*
X79567Y224029D01*
X84329Y219267D01*
X84329Y212533D01*
X79567Y207771D01*
X72833Y207771D01*
G37*
%LPD*%
%LPC*%
G36*
X163382Y746251D02*
X163382Y746251D01*
X160208Y747566D01*
X157778Y749996D01*
X156463Y753170D01*
X156463Y770830D01*
X157778Y774004D01*
X160208Y776434D01*
X163382Y777749D01*
X166818Y777749D01*
X169992Y776434D01*
X172422Y774004D01*
X173737Y770830D01*
X173737Y753170D01*
X172422Y749996D01*
X169992Y747566D01*
X166818Y746251D01*
X163382Y746251D01*
G37*
%LPD*%
%LPC*%
G36*
X150682Y22351D02*
X150682Y22351D01*
X147508Y23666D01*
X145078Y26096D01*
X143763Y29270D01*
X143763Y46930D01*
X145078Y50104D01*
X147508Y52534D01*
X150682Y53849D01*
X154118Y53849D01*
X157292Y52534D01*
X159722Y50104D01*
X161037Y46930D01*
X161037Y29270D01*
X159722Y26096D01*
X157292Y23666D01*
X154118Y22351D01*
X150682Y22351D01*
G37*
%LPD*%
%LPC*%
G36*
X162877Y585723D02*
X162877Y585723D01*
X158769Y587425D01*
X155625Y590569D01*
X153923Y594677D01*
X153923Y599123D01*
X155625Y603231D01*
X158769Y606375D01*
X162877Y608077D01*
X167323Y608077D01*
X171431Y606375D01*
X174575Y603231D01*
X176277Y599123D01*
X176277Y594677D01*
X174575Y590569D01*
X171431Y587425D01*
X167323Y585723D01*
X162877Y585723D01*
G37*
%LPD*%
%LPC*%
G36*
X162877Y560323D02*
X162877Y560323D01*
X158769Y562025D01*
X155625Y565169D01*
X153923Y569277D01*
X153923Y573723D01*
X155625Y577831D01*
X158769Y580975D01*
X162877Y582677D01*
X167323Y582677D01*
X171431Y580975D01*
X174575Y577831D01*
X176277Y573723D01*
X176277Y569277D01*
X174575Y565169D01*
X171431Y562025D01*
X167323Y560323D01*
X162877Y560323D01*
G37*
%LPD*%
%LPC*%
G36*
X391477Y534923D02*
X391477Y534923D01*
X387369Y536625D01*
X384225Y539769D01*
X382523Y543877D01*
X382523Y548323D01*
X384225Y552431D01*
X387369Y555575D01*
X391477Y557277D01*
X395923Y557277D01*
X400031Y555575D01*
X403175Y552431D01*
X404877Y548323D01*
X404877Y543877D01*
X403175Y539769D01*
X400031Y536625D01*
X395923Y534923D01*
X391477Y534923D01*
G37*
%LPD*%
%LPC*%
G36*
X162877Y534923D02*
X162877Y534923D01*
X158769Y536625D01*
X155625Y539769D01*
X153923Y543877D01*
X153923Y548323D01*
X155625Y552431D01*
X158769Y555575D01*
X162877Y557277D01*
X167323Y557277D01*
X171431Y555575D01*
X174575Y552431D01*
X176277Y548323D01*
X176277Y543877D01*
X174575Y539769D01*
X171431Y536625D01*
X167323Y534923D01*
X162877Y534923D01*
G37*
%LPD*%
%LPC*%
G36*
X391477Y509523D02*
X391477Y509523D01*
X387369Y511225D01*
X384225Y514369D01*
X382523Y518477D01*
X382523Y522923D01*
X384225Y527031D01*
X387369Y530175D01*
X391477Y531877D01*
X395923Y531877D01*
X400031Y530175D01*
X403175Y527031D01*
X404877Y522923D01*
X404877Y518477D01*
X403175Y514369D01*
X400031Y511225D01*
X395923Y509523D01*
X391477Y509523D01*
G37*
%LPD*%
%LPC*%
G36*
X391477Y484123D02*
X391477Y484123D01*
X387369Y485825D01*
X384225Y488969D01*
X382523Y493077D01*
X382523Y497523D01*
X384225Y501631D01*
X387369Y504775D01*
X391477Y506477D01*
X395923Y506477D01*
X400031Y504775D01*
X403175Y501631D01*
X404877Y497523D01*
X404877Y493077D01*
X403175Y488969D01*
X400031Y485825D01*
X395923Y484123D01*
X391477Y484123D01*
G37*
%LPD*%
%LPC*%
G36*
X162877Y484123D02*
X162877Y484123D01*
X158769Y485825D01*
X155625Y488969D01*
X153923Y493077D01*
X153923Y497523D01*
X155625Y501631D01*
X158769Y504775D01*
X162877Y506477D01*
X167323Y506477D01*
X171431Y504775D01*
X174575Y501631D01*
X176277Y497523D01*
X176277Y493077D01*
X174575Y488969D01*
X171431Y485825D01*
X167323Y484123D01*
X162877Y484123D01*
G37*
%LPD*%
%LPC*%
G36*
X391477Y458723D02*
X391477Y458723D01*
X387369Y460425D01*
X384225Y463569D01*
X382523Y467677D01*
X382523Y472123D01*
X384225Y476231D01*
X387369Y479375D01*
X391477Y481077D01*
X395923Y481077D01*
X400031Y479375D01*
X403175Y476231D01*
X404877Y472123D01*
X404877Y467677D01*
X403175Y463569D01*
X400031Y460425D01*
X395923Y458723D01*
X391477Y458723D01*
G37*
%LPD*%
%LPC*%
G36*
X162877Y458723D02*
X162877Y458723D01*
X158769Y460425D01*
X155625Y463569D01*
X153923Y467677D01*
X153923Y472123D01*
X155625Y476231D01*
X158769Y479375D01*
X162877Y481077D01*
X167323Y481077D01*
X171431Y479375D01*
X174575Y476231D01*
X176277Y472123D01*
X176277Y467677D01*
X174575Y463569D01*
X171431Y460425D01*
X167323Y458723D01*
X162877Y458723D01*
G37*
%LPD*%
%LPC*%
G36*
X391477Y433323D02*
X391477Y433323D01*
X387369Y435025D01*
X384225Y438169D01*
X382523Y442277D01*
X382523Y446723D01*
X384225Y450831D01*
X387369Y453975D01*
X391477Y455677D01*
X395923Y455677D01*
X400031Y453975D01*
X403175Y450831D01*
X404877Y446723D01*
X404877Y442277D01*
X403175Y438169D01*
X400031Y435025D01*
X395923Y433323D01*
X391477Y433323D01*
G37*
%LPD*%
%LPC*%
G36*
X162877Y433323D02*
X162877Y433323D01*
X158769Y435025D01*
X155625Y438169D01*
X153923Y442277D01*
X153923Y446723D01*
X155625Y450831D01*
X158769Y453975D01*
X162877Y455677D01*
X167323Y455677D01*
X171431Y453975D01*
X174575Y450831D01*
X176277Y446723D01*
X176277Y442277D01*
X174575Y438169D01*
X171431Y435025D01*
X167323Y433323D01*
X162877Y433323D01*
G37*
%LPD*%
%LPC*%
G36*
X391477Y407923D02*
X391477Y407923D01*
X387369Y409625D01*
X384225Y412769D01*
X382523Y416877D01*
X382523Y421323D01*
X384225Y425431D01*
X387369Y428575D01*
X391477Y430277D01*
X395923Y430277D01*
X400031Y428575D01*
X403175Y425431D01*
X404877Y421323D01*
X404877Y416877D01*
X403175Y412769D01*
X400031Y409625D01*
X395923Y407923D01*
X391477Y407923D01*
G37*
%LPD*%
%LPC*%
G36*
X162877Y407923D02*
X162877Y407923D01*
X158769Y409625D01*
X155625Y412769D01*
X153923Y416877D01*
X153923Y421323D01*
X155625Y425431D01*
X158769Y428575D01*
X162877Y430277D01*
X167323Y430277D01*
X171431Y428575D01*
X174575Y425431D01*
X176277Y421323D01*
X176277Y416877D01*
X174575Y412769D01*
X171431Y409625D01*
X167323Y407923D01*
X162877Y407923D01*
G37*
%LPD*%
%LPC*%
G36*
X162877Y382523D02*
X162877Y382523D01*
X158769Y384225D01*
X155625Y387369D01*
X153923Y391477D01*
X153923Y395923D01*
X155625Y400031D01*
X158769Y403175D01*
X162877Y404877D01*
X167323Y404877D01*
X171431Y403175D01*
X174575Y400031D01*
X176277Y395923D01*
X176277Y391477D01*
X174575Y387369D01*
X171431Y384225D01*
X167323Y382523D01*
X162877Y382523D01*
G37*
%LPD*%
%LPC*%
G36*
X391477Y382523D02*
X391477Y382523D01*
X387369Y384225D01*
X384225Y387369D01*
X382523Y391477D01*
X382523Y395923D01*
X384225Y400031D01*
X387369Y403175D01*
X391477Y404877D01*
X395923Y404877D01*
X400031Y403175D01*
X403175Y400031D01*
X404877Y395923D01*
X404877Y391477D01*
X403175Y387369D01*
X400031Y384225D01*
X395923Y382523D01*
X391477Y382523D01*
G37*
%LPD*%
%LPC*%
G36*
X391477Y357123D02*
X391477Y357123D01*
X387369Y358825D01*
X384225Y361969D01*
X382523Y366077D01*
X382523Y370523D01*
X384225Y374631D01*
X387369Y377775D01*
X391477Y379477D01*
X395923Y379477D01*
X400031Y377775D01*
X403175Y374631D01*
X404877Y370523D01*
X404877Y366077D01*
X403175Y361969D01*
X400031Y358825D01*
X395923Y357123D01*
X391477Y357123D01*
G37*
%LPD*%
%LPC*%
G36*
X162877Y357123D02*
X162877Y357123D01*
X158769Y358825D01*
X155625Y361969D01*
X153923Y366077D01*
X153923Y370523D01*
X155625Y374631D01*
X158769Y377775D01*
X162877Y379477D01*
X167323Y379477D01*
X171431Y377775D01*
X174575Y374631D01*
X176277Y370523D01*
X176277Y366077D01*
X174575Y361969D01*
X171431Y358825D01*
X167323Y357123D01*
X162877Y357123D01*
G37*
%LPD*%
%LPC*%
G36*
X391477Y331723D02*
X391477Y331723D01*
X387369Y333425D01*
X384225Y336569D01*
X382523Y340677D01*
X382523Y345123D01*
X384225Y349231D01*
X387369Y352375D01*
X391477Y354077D01*
X395923Y354077D01*
X400031Y352375D01*
X403175Y349231D01*
X404877Y345123D01*
X404877Y340677D01*
X403175Y336569D01*
X400031Y333425D01*
X395923Y331723D01*
X391477Y331723D01*
G37*
%LPD*%
%LPC*%
G36*
X162877Y331723D02*
X162877Y331723D01*
X158769Y333425D01*
X155625Y336569D01*
X153923Y340677D01*
X153923Y345123D01*
X155625Y349231D01*
X158769Y352375D01*
X162877Y354077D01*
X167323Y354077D01*
X171431Y352375D01*
X174575Y349231D01*
X176277Y345123D01*
X176277Y340677D01*
X174575Y336569D01*
X171431Y333425D01*
X167323Y331723D01*
X162877Y331723D01*
G37*
%LPD*%
%LPC*%
G36*
X391477Y306323D02*
X391477Y306323D01*
X387369Y308025D01*
X384225Y311169D01*
X382523Y315277D01*
X382523Y319723D01*
X384225Y323831D01*
X387369Y326975D01*
X391477Y328677D01*
X395923Y328677D01*
X400031Y326975D01*
X403175Y323831D01*
X404877Y319723D01*
X404877Y315277D01*
X403175Y311169D01*
X400031Y308025D01*
X395923Y306323D01*
X391477Y306323D01*
G37*
%LPD*%
%LPC*%
G36*
X162877Y306323D02*
X162877Y306323D01*
X158769Y308025D01*
X155625Y311169D01*
X153923Y315277D01*
X153923Y319723D01*
X155625Y323831D01*
X158769Y326975D01*
X162877Y328677D01*
X167323Y328677D01*
X171431Y326975D01*
X174575Y323831D01*
X176277Y319723D01*
X176277Y315277D01*
X174575Y311169D01*
X171431Y308025D01*
X167323Y306323D01*
X162877Y306323D01*
G37*
%LPD*%
%LPC*%
G36*
X391477Y280923D02*
X391477Y280923D01*
X387369Y282625D01*
X384225Y285769D01*
X382523Y289877D01*
X382523Y294323D01*
X384225Y298431D01*
X387369Y301575D01*
X391477Y303277D01*
X395923Y303277D01*
X400031Y301575D01*
X403175Y298431D01*
X404877Y294323D01*
X404877Y289877D01*
X403175Y285769D01*
X400031Y282625D01*
X395923Y280923D01*
X391477Y280923D01*
G37*
%LPD*%
%LPC*%
G36*
X162877Y280923D02*
X162877Y280923D01*
X158769Y282625D01*
X155625Y285769D01*
X153923Y289877D01*
X153923Y294323D01*
X155625Y298431D01*
X158769Y301575D01*
X162877Y303277D01*
X167323Y303277D01*
X171431Y301575D01*
X174575Y298431D01*
X176277Y294323D01*
X176277Y289877D01*
X174575Y285769D01*
X171431Y282625D01*
X167323Y280923D01*
X162877Y280923D01*
G37*
%LPD*%
%LPC*%
G36*
X391477Y255523D02*
X391477Y255523D01*
X387369Y257225D01*
X384225Y260369D01*
X382523Y264477D01*
X382523Y268923D01*
X384225Y273031D01*
X387369Y276175D01*
X391477Y277877D01*
X395923Y277877D01*
X400031Y276175D01*
X403175Y273031D01*
X404877Y268923D01*
X404877Y264477D01*
X403175Y260369D01*
X400031Y257225D01*
X395923Y255523D01*
X391477Y255523D01*
G37*
%LPD*%
%LPC*%
G36*
X391477Y230123D02*
X391477Y230123D01*
X387369Y231825D01*
X384225Y234969D01*
X382523Y239077D01*
X382523Y243523D01*
X384225Y247631D01*
X387369Y250775D01*
X391477Y252477D01*
X395923Y252477D01*
X400031Y250775D01*
X403175Y247631D01*
X404877Y243523D01*
X404877Y239077D01*
X403175Y234969D01*
X400031Y231825D01*
X395923Y230123D01*
X391477Y230123D01*
G37*
%LPD*%
%LPC*%
G36*
X162877Y509523D02*
X162877Y509523D01*
X158769Y511225D01*
X155625Y514369D01*
X153923Y518477D01*
X153923Y522923D01*
X155625Y527031D01*
X158769Y530175D01*
X162877Y531877D01*
X167323Y531877D01*
X171431Y530175D01*
X174575Y527031D01*
X176277Y522923D01*
X176277Y518477D01*
X174575Y514369D01*
X171431Y511225D01*
X167323Y509523D01*
X162877Y509523D01*
G37*
%LPD*%
%LPC*%
G36*
X391477Y585723D02*
X391477Y585723D01*
X387369Y587425D01*
X384225Y590569D01*
X382523Y594677D01*
X382523Y599123D01*
X384225Y603231D01*
X387369Y606375D01*
X391477Y608077D01*
X395923Y608077D01*
X400031Y606375D01*
X403175Y603231D01*
X404877Y599123D01*
X404877Y594677D01*
X403175Y590569D01*
X400031Y587425D01*
X395923Y585723D01*
X391477Y585723D01*
G37*
%LPD*%
%LPC*%
G36*
X611123Y242823D02*
X611123Y242823D01*
X611123Y255080D01*
X621924Y255080D01*
X624066Y254741D01*
X626129Y254071D01*
X628062Y253086D01*
X629817Y251811D01*
X631350Y250277D01*
X632625Y248522D01*
X633610Y246590D01*
X634280Y244527D01*
X634550Y242823D01*
X611123Y242823D01*
G37*
%LPD*%
%LPC*%
G36*
X611123Y319023D02*
X611123Y319023D01*
X611123Y331280D01*
X621924Y331280D01*
X624066Y330941D01*
X626129Y330271D01*
X628062Y329286D01*
X629817Y328011D01*
X631350Y326477D01*
X632625Y324722D01*
X633610Y322790D01*
X634280Y320727D01*
X634550Y319023D01*
X611123Y319023D01*
G37*
%LPD*%
%LPC*%
G36*
X611123Y166623D02*
X611123Y166623D01*
X611123Y178880D01*
X621924Y178880D01*
X624066Y178541D01*
X626129Y177871D01*
X628062Y176886D01*
X629817Y175611D01*
X631350Y174077D01*
X632625Y172322D01*
X633610Y170390D01*
X634280Y168327D01*
X634550Y166623D01*
X611123Y166623D01*
G37*
%LPD*%
%LPC*%
G36*
X611123Y90423D02*
X611123Y90423D01*
X611123Y102680D01*
X621924Y102680D01*
X624066Y102341D01*
X626129Y101671D01*
X628062Y100686D01*
X629817Y99411D01*
X631350Y97877D01*
X632625Y96122D01*
X633610Y94190D01*
X634280Y92127D01*
X634550Y90423D01*
X611123Y90423D01*
G37*
%LPD*%
%LPC*%
G36*
X584650Y319023D02*
X584650Y319023D01*
X584920Y320727D01*
X585590Y322790D01*
X586575Y324722D01*
X587850Y326477D01*
X589383Y328011D01*
X591138Y329286D01*
X593071Y330271D01*
X595134Y330941D01*
X597276Y331280D01*
X608077Y331280D01*
X608077Y319023D01*
X584650Y319023D01*
G37*
%LPD*%
%LPC*%
G36*
X584650Y242823D02*
X584650Y242823D01*
X584920Y244527D01*
X585590Y246590D01*
X586575Y248522D01*
X587850Y250277D01*
X589383Y251811D01*
X591138Y253086D01*
X593071Y254071D01*
X595134Y254741D01*
X597276Y255080D01*
X608077Y255080D01*
X608077Y242823D01*
X584650Y242823D01*
G37*
%LPD*%
%LPC*%
G36*
X584650Y166623D02*
X584650Y166623D01*
X584920Y168327D01*
X585590Y170390D01*
X586575Y172322D01*
X587850Y174077D01*
X589383Y175611D01*
X591138Y176886D01*
X593071Y177871D01*
X595134Y178541D01*
X597276Y178880D01*
X608077Y178880D01*
X608077Y166623D01*
X584650Y166623D01*
G37*
%LPD*%
%LPC*%
G36*
X584650Y90423D02*
X584650Y90423D01*
X584920Y92127D01*
X585590Y94190D01*
X586575Y96122D01*
X587850Y97877D01*
X589383Y99411D01*
X591138Y100686D01*
X593071Y101671D01*
X595134Y102341D01*
X597276Y102680D01*
X608077Y102680D01*
X608077Y90423D01*
X584650Y90423D01*
G37*
%LPD*%
%LPC*%
G36*
X611123Y227520D02*
X611123Y227520D01*
X611123Y239777D01*
X634550Y239777D01*
X634280Y238073D01*
X633610Y236010D01*
X632625Y234078D01*
X631350Y232323D01*
X629817Y230789D01*
X628062Y229514D01*
X626129Y228529D01*
X624066Y227859D01*
X621924Y227520D01*
X611123Y227520D01*
G37*
%LPD*%
%LPC*%
G36*
X611123Y151320D02*
X611123Y151320D01*
X611123Y163577D01*
X634550Y163577D01*
X634280Y161873D01*
X633610Y159810D01*
X632625Y157878D01*
X631350Y156123D01*
X629817Y154589D01*
X628062Y153314D01*
X626129Y152329D01*
X624066Y151659D01*
X621924Y151320D01*
X611123Y151320D01*
G37*
%LPD*%
%LPC*%
G36*
X611123Y75120D02*
X611123Y75120D01*
X611123Y87377D01*
X634550Y87377D01*
X634280Y85673D01*
X633610Y83610D01*
X632625Y81678D01*
X631350Y79923D01*
X629817Y78389D01*
X628062Y77114D01*
X626129Y76129D01*
X624066Y75459D01*
X621924Y75120D01*
X611123Y75120D01*
G37*
%LPD*%
%LPC*%
G36*
X611123Y303720D02*
X611123Y303720D01*
X611123Y315977D01*
X634550Y315977D01*
X634280Y314273D01*
X633610Y312210D01*
X632625Y310278D01*
X631350Y308523D01*
X629817Y306989D01*
X628062Y305714D01*
X626129Y304729D01*
X624066Y304059D01*
X621924Y303720D01*
X611123Y303720D01*
G37*
%LPD*%
%LPC*%
G36*
X597276Y303720D02*
X597276Y303720D01*
X595134Y304059D01*
X593071Y304729D01*
X591138Y305714D01*
X589383Y306989D01*
X587850Y308523D01*
X586575Y310278D01*
X585590Y312210D01*
X584920Y314273D01*
X584650Y315977D01*
X608077Y315977D01*
X608077Y303720D01*
X597276Y303720D01*
G37*
%LPD*%
%LPC*%
G36*
X597276Y227520D02*
X597276Y227520D01*
X595134Y227859D01*
X593071Y228529D01*
X591138Y229514D01*
X589383Y230789D01*
X587850Y232323D01*
X586575Y234078D01*
X585590Y236010D01*
X584920Y238073D01*
X584650Y239777D01*
X608077Y239777D01*
X608077Y227520D01*
X597276Y227520D01*
G37*
%LPD*%
%LPC*%
G36*
X597276Y151320D02*
X597276Y151320D01*
X595134Y151659D01*
X593071Y152329D01*
X591138Y153314D01*
X589383Y154589D01*
X587850Y156123D01*
X586575Y157878D01*
X585590Y159810D01*
X584920Y161873D01*
X584650Y163577D01*
X608077Y163577D01*
X608077Y151320D01*
X597276Y151320D01*
G37*
%LPD*%
%LPC*%
G36*
X597276Y75120D02*
X597276Y75120D01*
X595134Y75459D01*
X593071Y76129D01*
X591138Y77114D01*
X589383Y78389D01*
X587850Y79923D01*
X586575Y81678D01*
X585590Y83610D01*
X584920Y85673D01*
X584650Y87377D01*
X608077Y87377D01*
X608077Y75120D01*
X597276Y75120D01*
G37*
%LPD*%
%LPC*%
G36*
X98233Y207771D02*
X98233Y207771D01*
X93471Y212533D01*
X93471Y219267D01*
X98233Y224029D01*
X104967Y224029D01*
X109729Y219267D01*
X109729Y212533D01*
X104967Y207771D01*
X98233Y207771D01*
G37*
%LPD*%
%LPC*%
G36*
X98233Y614171D02*
X98233Y614171D01*
X93471Y618933D01*
X93471Y625667D01*
X98233Y630429D01*
X104967Y630429D01*
X109729Y625667D01*
X109729Y618933D01*
X104967Y614171D01*
X98233Y614171D01*
G37*
%LPD*%
%LPC*%
G36*
X555433Y677671D02*
X555433Y677671D01*
X550671Y682433D01*
X550671Y689167D01*
X555433Y693929D01*
X562167Y693929D01*
X566929Y689167D01*
X566929Y682433D01*
X562167Y677671D01*
X555433Y677671D01*
G37*
%LPD*%
%LPC*%
G36*
X179323Y39623D02*
X179323Y39623D01*
X179323Y54744D01*
X180060Y54627D01*
X181505Y54158D01*
X182859Y53468D01*
X184088Y52575D01*
X185163Y51500D01*
X186056Y50271D01*
X186746Y48917D01*
X187215Y47472D01*
X187453Y45972D01*
X187453Y39623D01*
X179323Y39623D01*
G37*
%LPD*%
%LPC*%
G36*
X179323Y36577D02*
X179323Y36577D01*
X187453Y36577D01*
X187453Y30228D01*
X187215Y28728D01*
X186746Y27283D01*
X186056Y25929D01*
X185163Y24700D01*
X184088Y23625D01*
X182859Y22732D01*
X181505Y22042D01*
X180060Y21573D01*
X179323Y21456D01*
X179323Y36577D01*
G37*
%LPD*%
%LPC*%
G36*
X168147Y39623D02*
X168147Y39623D01*
X168147Y45972D01*
X168385Y47472D01*
X168854Y48917D01*
X169544Y50271D01*
X170437Y51500D01*
X171512Y52575D01*
X172741Y53468D01*
X174095Y54158D01*
X175540Y54627D01*
X176277Y54744D01*
X176277Y39623D01*
X168147Y39623D01*
G37*
%LPD*%
%LPC*%
G36*
X175540Y21573D02*
X175540Y21573D01*
X174095Y22042D01*
X172741Y22732D01*
X171512Y23625D01*
X170437Y24700D01*
X169544Y25929D01*
X168854Y27283D01*
X168385Y28728D01*
X168147Y30228D01*
X168147Y36577D01*
X176277Y36577D01*
X176277Y21456D01*
X175540Y21573D01*
G37*
%LPD*%
%LPC*%
G36*
X105155Y280923D02*
X105155Y280923D01*
X105155Y283188D01*
X110512Y288545D01*
X112777Y288545D01*
X112777Y280923D01*
X105155Y280923D01*
G37*
%LPD*%
%LPC*%
G36*
X110512Y270255D02*
X110512Y270255D01*
X105155Y275612D01*
X105155Y277877D01*
X112777Y277877D01*
X112777Y270255D01*
X110512Y270255D01*
G37*
%LPD*%
%LPC*%
G36*
X609599Y317499D02*
X609599Y317499D01*
X609599Y317501D01*
X609601Y317501D01*
X609601Y317499D01*
X609599Y317499D01*
G37*
%LPD*%
%LPC*%
G36*
X609599Y241299D02*
X609599Y241299D01*
X609599Y241301D01*
X609601Y241301D01*
X609601Y241299D01*
X609599Y241299D01*
G37*
%LPD*%
%LPC*%
G36*
X609599Y165099D02*
X609599Y165099D01*
X609599Y165101D01*
X609601Y165101D01*
X609601Y165099D01*
X609599Y165099D01*
G37*
%LPD*%
%LPC*%
G36*
X609599Y88899D02*
X609599Y88899D01*
X609599Y88901D01*
X609601Y88901D01*
X609601Y88899D01*
X609599Y88899D01*
G37*
%LPD*%
%LPC*%
G36*
X177799Y38099D02*
X177799Y38099D01*
X177799Y38101D01*
X177801Y38101D01*
X177801Y38099D01*
X177799Y38099D01*
G37*
%LPD*%
D10*
X530860Y622300D03*
D11*
X510540Y622300D03*
D12*
X508000Y762000D03*
X533400Y762000D03*
D13*
X468440Y393700D02*
X445961Y393700D01*
X598361Y393700D02*
X620840Y393700D01*
D10*
X482600Y685800D03*
X558800Y685800D03*
X76200Y215900D03*
X101600Y215900D03*
X76200Y622300D03*
X101600Y622300D03*
D14*
X139700Y754888D02*
X139700Y769112D01*
X165100Y769112D02*
X165100Y754888D01*
X393700Y754888D02*
X393700Y769112D01*
X419100Y769112D02*
X419100Y754888D01*
X177800Y45212D02*
X177800Y30988D01*
X152400Y30988D02*
X152400Y45212D01*
D15*
X254000Y754380D02*
X254000Y769620D01*
X279400Y769620D02*
X279400Y754380D01*
X304800Y754380D02*
X304800Y769620D01*
D16*
X165100Y596900D03*
X165100Y571500D03*
X165100Y546100D03*
X165100Y520700D03*
X165100Y495300D03*
X165100Y469900D03*
X165100Y444500D03*
X165100Y419100D03*
X165100Y393700D03*
X165100Y368300D03*
X165100Y342900D03*
X165100Y317500D03*
X165100Y292100D03*
X165100Y266700D03*
X165100Y241300D03*
X393700Y596900D03*
X393700Y571500D03*
X393700Y546100D03*
X393700Y520700D03*
X393700Y495300D03*
X393700Y469900D03*
X393700Y444500D03*
X393700Y419100D03*
X393700Y393700D03*
X393700Y368300D03*
X393700Y342900D03*
X393700Y317500D03*
X393700Y292100D03*
X393700Y266700D03*
X393700Y241300D03*
D17*
X495300Y520700D03*
D18*
X512300Y480700D03*
X529300Y520700D03*
X546300Y480700D03*
X563300Y520700D03*
D10*
X63500Y279400D03*
X114300Y279400D03*
X63500Y558800D03*
X114300Y558800D03*
D13*
X445961Y241300D02*
X468440Y241300D01*
X598361Y241300D02*
X620840Y241300D01*
X468440Y165100D02*
X445961Y165100D01*
X598361Y165100D02*
X620840Y165100D01*
X468440Y317500D02*
X445961Y317500D01*
X598361Y317500D02*
X620840Y317500D01*
X468440Y88900D02*
X445961Y88900D01*
X598361Y88900D02*
X620840Y88900D01*
D19*
X489204Y763524D02*
X420624Y763524D01*
X489204Y763524D02*
X502920Y777240D01*
X516636Y777240D01*
X530352Y763524D01*
X420624Y763524D02*
X419100Y762000D01*
X530352Y763524D02*
X533400Y762000D01*
X370332Y758952D02*
X306324Y758952D01*
X370332Y758952D02*
X388620Y740664D01*
X397764Y740664D01*
X419100Y762000D01*
X306324Y758952D02*
X304800Y762000D01*
X530352Y621792D02*
X530352Y521208D01*
X530352Y621792D02*
X530860Y622300D01*
X530352Y521208D02*
X562356Y521208D01*
X563300Y520700D01*
X530352Y521208D02*
X529300Y520700D01*
X608076Y406908D02*
X608076Y397764D01*
X608076Y406908D02*
X566928Y448056D01*
X566928Y516636D01*
X608076Y397764D02*
X609600Y393700D01*
X566928Y516636D02*
X563300Y520700D01*
X534924Y626364D02*
X534924Y758952D01*
X533400Y762000D01*
X534924Y626364D02*
X530860Y622300D01*
X525780Y502920D02*
X544068Y484632D01*
X525780Y502920D02*
X521208Y502920D01*
X512064Y512064D01*
X512064Y621792D01*
X544068Y484632D02*
X546300Y480700D01*
X512064Y621792D02*
X510540Y622300D01*
X164592Y242316D02*
X128016Y278892D01*
X128016Y544068D01*
X114300Y557784D01*
X164592Y242316D02*
X165100Y241300D01*
X114300Y557784D02*
X114300Y558800D01*
X434340Y626364D02*
X507492Y626364D01*
X434340Y626364D02*
X320040Y740664D01*
X297180Y740664D01*
X278892Y758952D01*
X507492Y626364D02*
X510540Y622300D01*
X278892Y758952D02*
X279400Y762000D01*
X612648Y164592D02*
X612648Y91440D01*
X609600Y88900D01*
X612648Y164592D02*
X609600Y165100D01*
X612648Y169164D02*
X612648Y237744D01*
X609600Y241300D01*
X612648Y169164D02*
X609600Y165100D01*
X612648Y242316D02*
X612648Y315468D01*
X609600Y317500D01*
X612648Y242316D02*
X609600Y241300D01*
X114300Y279400D02*
X114300Y105156D01*
X178308Y41148D01*
X177800Y38100D01*
X493776Y86868D02*
X608076Y86868D01*
X493776Y86868D02*
X475488Y68580D01*
X201168Y68580D01*
X178308Y45720D01*
X608076Y86868D02*
X609600Y88900D01*
X178308Y45720D02*
X177800Y38100D01*
X256032Y708660D02*
X256032Y758952D01*
X256032Y708660D02*
X393192Y571500D01*
X256032Y758952D02*
X254000Y762000D01*
X393192Y571500D02*
X393700Y571500D01*
X512064Y480060D02*
X512064Y452628D01*
X457200Y397764D01*
X512064Y480060D02*
X512300Y480700D01*
X457200Y397764D02*
X457200Y393700D01*
X64008Y562356D02*
X64008Y612648D01*
X73152Y621792D01*
X64008Y562356D02*
X63500Y558800D01*
X73152Y621792D02*
X76200Y622300D01*
X64008Y278892D02*
X64008Y228600D01*
X73152Y219456D01*
X64008Y278892D02*
X63500Y279400D01*
X73152Y219456D02*
X76200Y215900D01*
X141732Y717804D02*
X141732Y758952D01*
X141732Y717804D02*
X347472Y512064D01*
X347472Y192024D01*
X370332Y169164D01*
X393192Y169164D01*
X457200Y233172D01*
X457200Y241300D01*
X141732Y758952D02*
X139700Y762000D01*
X457200Y128016D02*
X457200Y88900D01*
X457200Y128016D02*
X489204Y160020D01*
X489204Y283464D01*
X457200Y315468D01*
X457200Y317500D01*
M02*
