M48
;GenerationSoftware,Autodesk,EAGLE,9.6.2*%
;CreationDate,2022-03-20T18:02:08Z*%
FMAT,2
ICI,OFF
METRIC,TZ,000.000
T8C0.800
T7C0.813
T6C0.914
T5C1.016
T4C1.350
T3C1.499
T2C2.400
T1C3.200
%
G90
M71
T1
X17780Y63500
X38100Y63500
X38100Y20320
X17780Y20320
T2
X3810Y3810
X63500Y3810
X63500Y76200
X3810Y76200
X3810Y41910
X34290Y3810
X62230Y43180
T3
X60960Y16510
X45720Y31750
X60960Y31750
X45720Y24130
X45720Y39370
X60960Y39370
X45720Y8890
X60960Y8890
X60960Y24130
X45720Y16510
T4
X52930Y52070
X51230Y48070
X49530Y52070
X54630Y48070
X56330Y52070
T5
X25400Y76200
X27940Y76200
X30480Y76200
T6
X16510Y76200
X39370Y76200
X41910Y76200
X17780Y3810
X15240Y3810
X13970Y76200
T7
X7620Y21590
X10160Y21590
X7620Y62230
X10160Y62230
X6350Y55880
X6350Y27940
X11430Y27940
X11430Y55880
X53086Y62230
X51054Y62230
X50800Y76200
X53340Y76200
X48260Y68580
X55880Y68580
T8
X39370Y54610
X39370Y52070
X39370Y49530
X39370Y46990
X39370Y44450
X39370Y41910
X39370Y39370
X39370Y36830
X39370Y34290
X39370Y31750
X39370Y29210
X16510Y44450
X39370Y24130
X16510Y46990
X16510Y49530
X16510Y52070
X16510Y54610
X16510Y57150
X16510Y39370
X16510Y36830
X16510Y41910
X16510Y34290
X16510Y59690
X16510Y31750
X16510Y29210
X16510Y26670
X16510Y24130
X39370Y59690
X39370Y57150
X39370Y26670
M30