G04 EAGLE Gerber RS-274X export*
G75*
%MOMM*%
%FSLAX34Y34*%
%LPD*%
%INBottom Copper*%
%IPPOS*%
%AMOC8*
5,1,8,0,0,1.08239X$1,22.5*%
G01*
%ADD10P,1.429621X8X22.500000*%
%ADD11C,1.320800*%
%ADD12P,1.732040X8X22.500000*%
%ADD13C,2.247900*%
%ADD14C,1.422400*%
%ADD15C,1.524000*%
%ADD16C,1.930400*%
%ADD17R,2.025000X2.025000*%
%ADD18C,2.025000*%
%ADD19C,0.762000*%

G36*
X658898Y11942D02*
X658898Y11942D01*
X658917Y11940D01*
X659019Y11962D01*
X659121Y11979D01*
X659138Y11988D01*
X659158Y11992D01*
X659247Y12045D01*
X659338Y12094D01*
X659352Y12108D01*
X659369Y12118D01*
X659436Y12197D01*
X659508Y12272D01*
X659516Y12290D01*
X659529Y12305D01*
X659568Y12401D01*
X659611Y12495D01*
X659613Y12515D01*
X659621Y12533D01*
X659639Y12700D01*
X659639Y787400D01*
X659636Y787420D01*
X659638Y787439D01*
X659616Y787541D01*
X659600Y787643D01*
X659590Y787660D01*
X659586Y787680D01*
X659533Y787769D01*
X659484Y787860D01*
X659470Y787874D01*
X659460Y787891D01*
X659381Y787958D01*
X659306Y788030D01*
X659288Y788038D01*
X659273Y788051D01*
X659177Y788090D01*
X659083Y788133D01*
X659063Y788135D01*
X659045Y788143D01*
X658878Y788161D01*
X12700Y788161D01*
X12680Y788158D01*
X12661Y788160D01*
X12559Y788138D01*
X12457Y788122D01*
X12440Y788112D01*
X12420Y788108D01*
X12331Y788055D01*
X12240Y788006D01*
X12226Y787992D01*
X12209Y787982D01*
X12142Y787903D01*
X12071Y787828D01*
X12062Y787810D01*
X12049Y787795D01*
X12010Y787699D01*
X11967Y787605D01*
X11965Y787585D01*
X11957Y787567D01*
X11939Y787400D01*
X11939Y12700D01*
X11942Y12680D01*
X11940Y12661D01*
X11962Y12559D01*
X11979Y12457D01*
X11988Y12440D01*
X11992Y12420D01*
X12045Y12331D01*
X12094Y12240D01*
X12108Y12226D01*
X12118Y12209D01*
X12197Y12142D01*
X12272Y12071D01*
X12290Y12062D01*
X12305Y12049D01*
X12401Y12010D01*
X12495Y11967D01*
X12515Y11965D01*
X12533Y11957D01*
X12700Y11939D01*
X658878Y11939D01*
X658898Y11942D01*
G37*
%LPC*%
G36*
X443422Y304736D02*
X443422Y304736D01*
X438730Y306679D01*
X435140Y310270D01*
X433196Y314961D01*
X433196Y320039D01*
X435140Y324730D01*
X438730Y328321D01*
X443422Y330264D01*
X459564Y330264D01*
X459655Y330279D01*
X459745Y330286D01*
X459775Y330299D01*
X459807Y330304D01*
X459888Y330347D01*
X459972Y330382D01*
X460004Y330408D01*
X460025Y330419D01*
X460047Y330442D01*
X460103Y330487D01*
X488218Y358603D01*
X488271Y358677D01*
X488331Y358746D01*
X488343Y358776D01*
X488362Y358803D01*
X488389Y358889D01*
X488423Y358974D01*
X488427Y359015D01*
X488434Y359038D01*
X488433Y359070D01*
X488441Y359141D01*
X488441Y508289D01*
X488439Y508303D01*
X488440Y508313D01*
X488439Y508318D01*
X488440Y508328D01*
X488418Y508430D01*
X488402Y508532D01*
X488392Y508549D01*
X488388Y508569D01*
X488335Y508658D01*
X488286Y508749D01*
X488272Y508763D01*
X488262Y508780D01*
X488183Y508847D01*
X488108Y508919D01*
X488090Y508927D01*
X488075Y508940D01*
X487979Y508979D01*
X487885Y509022D01*
X487865Y509024D01*
X487847Y509032D01*
X487680Y509050D01*
X484543Y509050D01*
X483650Y509943D01*
X483650Y529132D01*
X483639Y529203D01*
X483637Y529274D01*
X483619Y529323D01*
X483611Y529375D01*
X483577Y529438D01*
X483552Y529505D01*
X483520Y529546D01*
X483495Y529592D01*
X483443Y529641D01*
X483399Y529697D01*
X483355Y529726D01*
X483317Y529762D01*
X483252Y529792D01*
X483192Y529830D01*
X483141Y529843D01*
X483094Y529865D01*
X483023Y529873D01*
X482953Y529891D01*
X482901Y529886D01*
X482850Y529892D01*
X482779Y529877D01*
X482708Y529871D01*
X482660Y529851D01*
X482609Y529840D01*
X482548Y529803D01*
X482482Y529775D01*
X482426Y529730D01*
X482398Y529714D01*
X482383Y529696D01*
X482351Y529670D01*
X462758Y510077D01*
X462705Y510003D01*
X462645Y509934D01*
X462633Y509904D01*
X462614Y509877D01*
X462587Y509791D01*
X462553Y509706D01*
X462549Y509665D01*
X462542Y509642D01*
X462543Y509610D01*
X462535Y509539D01*
X462535Y407225D01*
X462538Y407206D01*
X462536Y407186D01*
X462558Y407085D01*
X462574Y406983D01*
X462584Y406965D01*
X462588Y406946D01*
X462641Y406857D01*
X462690Y406765D01*
X462704Y406752D01*
X462714Y406735D01*
X462793Y406667D01*
X462868Y406596D01*
X462886Y406588D01*
X462901Y406575D01*
X462997Y406536D01*
X463091Y406492D01*
X463111Y406490D01*
X463129Y406483D01*
X463296Y406464D01*
X470978Y406464D01*
X475670Y404521D01*
X479260Y400930D01*
X481204Y396239D01*
X481204Y391161D01*
X479260Y386470D01*
X475670Y382879D01*
X470978Y380936D01*
X443422Y380936D01*
X438730Y382879D01*
X435140Y386470D01*
X433196Y391161D01*
X433196Y396239D01*
X435140Y400930D01*
X438730Y404521D01*
X443422Y406464D01*
X451104Y406464D01*
X451124Y406467D01*
X451143Y406465D01*
X451245Y406487D01*
X451347Y406504D01*
X451364Y406513D01*
X451384Y406518D01*
X451473Y406571D01*
X451564Y406619D01*
X451578Y406633D01*
X451595Y406644D01*
X451662Y406722D01*
X451734Y406797D01*
X451742Y406815D01*
X451755Y406831D01*
X451794Y406927D01*
X451837Y407020D01*
X451839Y407040D01*
X451847Y407059D01*
X451865Y407225D01*
X451865Y513125D01*
X452677Y515086D01*
X474502Y536911D01*
X474555Y536985D01*
X474615Y537054D01*
X474627Y537084D01*
X474646Y537111D01*
X474673Y537197D01*
X474707Y537282D01*
X474711Y537323D01*
X474718Y537346D01*
X474717Y537378D01*
X474725Y537449D01*
X474725Y681864D01*
X474724Y681873D01*
X474724Y681878D01*
X474719Y681904D01*
X474711Y681954D01*
X474703Y682045D01*
X474691Y682074D01*
X474686Y682106D01*
X474643Y682187D01*
X474607Y682271D01*
X474581Y682303D01*
X474570Y682324D01*
X474547Y682346D01*
X474502Y682402D01*
X474471Y682433D01*
X474471Y689167D01*
X479233Y693929D01*
X485967Y693929D01*
X490729Y689167D01*
X490729Y682433D01*
X485930Y677634D01*
X485913Y677632D01*
X485896Y677622D01*
X485876Y677618D01*
X485787Y677565D01*
X485696Y677516D01*
X485682Y677502D01*
X485665Y677492D01*
X485598Y677413D01*
X485526Y677338D01*
X485518Y677320D01*
X485505Y677305D01*
X485466Y677209D01*
X485423Y677115D01*
X485421Y677095D01*
X485413Y677077D01*
X485395Y676910D01*
X485395Y533863D01*
X485204Y533402D01*
X485193Y533358D01*
X485174Y533316D01*
X485166Y533239D01*
X485148Y533163D01*
X485152Y533117D01*
X485147Y533072D01*
X485164Y532995D01*
X485171Y532918D01*
X485190Y532876D01*
X485199Y532831D01*
X485239Y532764D01*
X485271Y532693D01*
X485302Y532659D01*
X485325Y532620D01*
X485385Y532569D01*
X485437Y532512D01*
X485478Y532490D01*
X485512Y532460D01*
X485585Y532431D01*
X485653Y532394D01*
X485698Y532385D01*
X485741Y532368D01*
X485876Y532353D01*
X485895Y532350D01*
X485900Y532351D01*
X485907Y532350D01*
X492252Y532350D01*
X492272Y532353D01*
X492291Y532351D01*
X492393Y532373D01*
X492495Y532389D01*
X492512Y532399D01*
X492532Y532403D01*
X492621Y532456D01*
X492712Y532505D01*
X492726Y532519D01*
X492743Y532529D01*
X492810Y532608D01*
X492882Y532683D01*
X492890Y532701D01*
X492903Y532716D01*
X492942Y532812D01*
X492985Y532906D01*
X492987Y532926D01*
X492995Y532944D01*
X493013Y533111D01*
X493013Y641141D01*
X493825Y643102D01*
X501934Y651211D01*
X501987Y651285D01*
X502047Y651354D01*
X502059Y651384D01*
X502078Y651411D01*
X502105Y651497D01*
X502139Y651582D01*
X502143Y651623D01*
X502150Y651646D01*
X502149Y651678D01*
X502157Y651749D01*
X502157Y754056D01*
X502143Y754146D01*
X502135Y754237D01*
X502123Y754267D01*
X502118Y754299D01*
X502075Y754379D01*
X502039Y754463D01*
X502013Y754495D01*
X502002Y754516D01*
X501979Y754538D01*
X501934Y754594D01*
X498474Y758054D01*
X498474Y765946D01*
X504054Y771526D01*
X511946Y771526D01*
X517526Y765946D01*
X517526Y758054D01*
X513050Y753578D01*
X512997Y753504D01*
X512937Y753435D01*
X512925Y753405D01*
X512906Y753379D01*
X512879Y753292D01*
X512845Y753207D01*
X512841Y753166D01*
X512834Y753143D01*
X512835Y753111D01*
X512827Y753040D01*
X512827Y650225D01*
X512838Y650154D01*
X512840Y650083D01*
X512858Y650034D01*
X512866Y649982D01*
X512900Y649919D01*
X512925Y649852D01*
X512957Y649811D01*
X512982Y649765D01*
X513034Y649716D01*
X513078Y649660D01*
X513122Y649631D01*
X513160Y649595D01*
X513225Y649565D01*
X513285Y649527D01*
X513336Y649514D01*
X513383Y649492D01*
X513454Y649484D01*
X513524Y649466D01*
X513576Y649471D01*
X513627Y649465D01*
X513698Y649480D01*
X513769Y649486D01*
X513817Y649506D01*
X513868Y649517D01*
X513929Y649554D01*
X513995Y649582D01*
X514051Y649627D01*
X514079Y649643D01*
X514094Y649661D01*
X514126Y649687D01*
X550448Y686009D01*
X550501Y686083D01*
X550561Y686152D01*
X550573Y686182D01*
X550592Y686209D01*
X550619Y686295D01*
X550653Y686380D01*
X550657Y686421D01*
X550664Y686444D01*
X550663Y686476D01*
X550671Y686547D01*
X550671Y689167D01*
X555433Y693929D01*
X562167Y693929D01*
X566929Y689167D01*
X566929Y682433D01*
X562167Y677671D01*
X557515Y677671D01*
X557425Y677657D01*
X557334Y677649D01*
X557304Y677637D01*
X557272Y677632D01*
X557192Y677589D01*
X557108Y677553D01*
X557076Y677527D01*
X557055Y677516D01*
X557033Y677493D01*
X556977Y677448D01*
X517622Y638093D01*
X517569Y638019D01*
X517509Y637950D01*
X517497Y637920D01*
X517478Y637893D01*
X517451Y637807D01*
X517417Y637722D01*
X517413Y637681D01*
X517406Y637658D01*
X517407Y637626D01*
X517399Y637555D01*
X517399Y627134D01*
X517409Y627070D01*
X517410Y627004D01*
X517433Y626924D01*
X517438Y626892D01*
X517448Y626874D01*
X517457Y626843D01*
X518669Y623917D01*
X518669Y620683D01*
X517431Y617695D01*
X515145Y615409D01*
X512157Y614171D01*
X508923Y614171D01*
X505935Y615409D01*
X504982Y616362D01*
X504924Y616404D01*
X504872Y616453D01*
X504825Y616475D01*
X504783Y616506D01*
X504714Y616527D01*
X504649Y616557D01*
X504597Y616563D01*
X504547Y616578D01*
X504476Y616576D01*
X504405Y616584D01*
X504354Y616573D01*
X504302Y616572D01*
X504234Y616547D01*
X504164Y616532D01*
X504119Y616505D01*
X504071Y616487D01*
X504015Y616442D01*
X503953Y616405D01*
X503919Y616366D01*
X503879Y616333D01*
X503840Y616273D01*
X503793Y616219D01*
X503774Y616170D01*
X503746Y616126D01*
X503728Y616057D01*
X503701Y615990D01*
X503693Y615919D01*
X503685Y615888D01*
X503687Y615865D01*
X503683Y615824D01*
X503683Y533111D01*
X503686Y533091D01*
X503684Y533072D01*
X503706Y532970D01*
X503722Y532868D01*
X503732Y532851D01*
X503736Y532831D01*
X503789Y532742D01*
X503838Y532651D01*
X503852Y532637D01*
X503862Y532620D01*
X503941Y532553D01*
X504016Y532481D01*
X504034Y532473D01*
X504049Y532460D01*
X504145Y532421D01*
X504239Y532378D01*
X504259Y532376D01*
X504277Y532368D01*
X504444Y532350D01*
X506057Y532350D01*
X506950Y531457D01*
X506950Y509943D01*
X506057Y509050D01*
X499872Y509050D01*
X499852Y509047D01*
X499833Y509049D01*
X499731Y509027D01*
X499629Y509011D01*
X499612Y509001D01*
X499592Y508997D01*
X499503Y508944D01*
X499412Y508895D01*
X499398Y508881D01*
X499381Y508871D01*
X499314Y508792D01*
X499242Y508717D01*
X499234Y508699D01*
X499221Y508684D01*
X499182Y508588D01*
X499139Y508494D01*
X499137Y508474D01*
X499129Y508456D01*
X499111Y508289D01*
X499111Y355555D01*
X498299Y353594D01*
X474606Y329901D01*
X474579Y329864D01*
X474545Y329833D01*
X474507Y329764D01*
X474462Y329701D01*
X474449Y329658D01*
X474426Y329617D01*
X474413Y329541D01*
X474390Y329466D01*
X474391Y329420D01*
X474383Y329375D01*
X474394Y329298D01*
X474396Y329220D01*
X474412Y329177D01*
X474418Y329132D01*
X474454Y329063D01*
X474480Y328989D01*
X474509Y328954D01*
X474530Y328913D01*
X474586Y328858D01*
X474634Y328797D01*
X474673Y328773D01*
X474706Y328740D01*
X474825Y328674D01*
X474841Y328664D01*
X474846Y328663D01*
X474853Y328660D01*
X475670Y328321D01*
X479260Y324730D01*
X481204Y320039D01*
X481204Y314961D01*
X479260Y310270D01*
X475670Y306679D01*
X470978Y304736D01*
X443422Y304736D01*
G37*
%LPD*%
%LPC*%
G36*
X443422Y152336D02*
X443422Y152336D01*
X438730Y154279D01*
X435140Y157870D01*
X433196Y162561D01*
X433196Y167639D01*
X435140Y172330D01*
X438730Y175921D01*
X440625Y176706D01*
X440664Y176730D01*
X440707Y176746D01*
X440768Y176794D01*
X440834Y176835D01*
X440863Y176871D01*
X440899Y176900D01*
X440941Y176965D01*
X440991Y177025D01*
X441007Y177068D01*
X441032Y177106D01*
X441051Y177182D01*
X441079Y177255D01*
X441081Y177300D01*
X441092Y177345D01*
X441086Y177423D01*
X441090Y177500D01*
X441077Y177545D01*
X441073Y177590D01*
X441043Y177662D01*
X441021Y177737D01*
X440995Y177774D01*
X440977Y177817D01*
X440892Y177923D01*
X440881Y177939D01*
X440877Y177942D01*
X440872Y177947D01*
X420673Y198146D01*
X419861Y200107D01*
X419861Y632983D01*
X419847Y633073D01*
X419839Y633164D01*
X419827Y633194D01*
X419822Y633226D01*
X419779Y633306D01*
X419743Y633390D01*
X419717Y633422D01*
X419706Y633443D01*
X419683Y633465D01*
X419638Y633521D01*
X405800Y647359D01*
X405781Y647373D01*
X405765Y647392D01*
X405681Y647445D01*
X405600Y647503D01*
X405578Y647510D01*
X405557Y647523D01*
X405460Y647546D01*
X405365Y647575D01*
X405341Y647575D01*
X405318Y647580D01*
X405219Y647571D01*
X405119Y647569D01*
X405097Y647561D01*
X405073Y647558D01*
X404982Y647519D01*
X404888Y647484D01*
X404870Y647469D01*
X404848Y647460D01*
X404774Y647393D01*
X404696Y647331D01*
X404683Y647310D01*
X404666Y647294D01*
X404617Y647208D01*
X404563Y647124D01*
X404558Y647100D01*
X404546Y647079D01*
X404528Y646982D01*
X404503Y646885D01*
X404505Y646861D01*
X404501Y646838D01*
X404515Y646739D01*
X404523Y646640D01*
X404532Y646618D01*
X404535Y646594D01*
X404603Y646440D01*
X405378Y645098D01*
X407161Y638444D01*
X407161Y631556D01*
X405378Y624902D01*
X401934Y618937D01*
X397063Y614066D01*
X391098Y610622D01*
X384444Y608839D01*
X377556Y608839D01*
X370902Y610622D01*
X364937Y614066D01*
X360066Y618937D01*
X356622Y624902D01*
X354839Y631556D01*
X354839Y638444D01*
X356622Y645098D01*
X360066Y651063D01*
X364937Y655934D01*
X370902Y659378D01*
X377556Y661161D01*
X384444Y661161D01*
X391098Y659378D01*
X392440Y658603D01*
X392463Y658594D01*
X392483Y658580D01*
X392578Y658551D01*
X392671Y658516D01*
X392695Y658515D01*
X392718Y658508D01*
X392817Y658510D01*
X392916Y658507D01*
X392939Y658514D01*
X392964Y658514D01*
X393057Y658548D01*
X393152Y658576D01*
X393172Y658590D01*
X393195Y658599D01*
X393272Y658661D01*
X393353Y658718D01*
X393368Y658737D01*
X393387Y658752D01*
X393440Y658836D01*
X393499Y658916D01*
X393506Y658939D01*
X393520Y658959D01*
X393544Y659055D01*
X393574Y659150D01*
X393574Y659174D01*
X393580Y659198D01*
X393572Y659297D01*
X393570Y659396D01*
X393562Y659419D01*
X393560Y659443D01*
X393521Y659535D01*
X393488Y659628D01*
X393474Y659647D01*
X393464Y659669D01*
X393359Y659800D01*
X393241Y659918D01*
X392429Y661879D01*
X392429Y745557D01*
X392410Y745672D01*
X392393Y745788D01*
X392391Y745794D01*
X392390Y745800D01*
X392335Y745903D01*
X392282Y746008D01*
X392277Y746012D01*
X392274Y746018D01*
X392191Y746097D01*
X392106Y746180D01*
X392100Y746183D01*
X392096Y746187D01*
X392079Y746195D01*
X391959Y746261D01*
X388808Y747566D01*
X386378Y749996D01*
X385063Y753170D01*
X385063Y770830D01*
X386378Y774004D01*
X388808Y776434D01*
X391982Y777749D01*
X395418Y777749D01*
X398592Y776434D01*
X401022Y774004D01*
X402337Y770830D01*
X402337Y762004D01*
X402347Y761940D01*
X402348Y761874D01*
X402371Y761794D01*
X402376Y761761D01*
X402386Y761744D01*
X402395Y761713D01*
X402527Y761394D01*
X402544Y761366D01*
X402575Y761297D01*
X402895Y760757D01*
X402936Y760467D01*
X402940Y760456D01*
X402940Y760445D01*
X402987Y760284D01*
X403099Y760013D01*
X403099Y759385D01*
X403104Y759353D01*
X403106Y759278D01*
X403195Y758656D01*
X403123Y758372D01*
X403122Y758361D01*
X403117Y758350D01*
X403099Y758184D01*
X403099Y665465D01*
X403113Y665375D01*
X403121Y665284D01*
X403133Y665254D01*
X403138Y665222D01*
X403181Y665142D01*
X403217Y665058D01*
X403243Y665026D01*
X403254Y665005D01*
X403277Y664983D01*
X403322Y664927D01*
X428111Y640138D01*
X429719Y638530D01*
X430531Y636569D01*
X430531Y203693D01*
X430545Y203603D01*
X430553Y203512D01*
X430565Y203482D01*
X430570Y203450D01*
X430613Y203370D01*
X430649Y203286D01*
X430675Y203254D01*
X430686Y203233D01*
X430709Y203211D01*
X430754Y203155D01*
X455821Y178087D01*
X455895Y178034D01*
X455965Y177975D01*
X455995Y177962D01*
X456021Y177944D01*
X456108Y177917D01*
X456193Y177883D01*
X456234Y177878D01*
X456256Y177871D01*
X456288Y177872D01*
X456360Y177864D01*
X470978Y177864D01*
X475670Y175921D01*
X479260Y172330D01*
X481204Y167639D01*
X481204Y162561D01*
X479260Y157870D01*
X475670Y154279D01*
X470978Y152336D01*
X443422Y152336D01*
G37*
%LPD*%
%LPC*%
G36*
X110933Y550671D02*
X110933Y550671D01*
X106171Y555433D01*
X106171Y562167D01*
X108742Y564738D01*
X108795Y564812D01*
X108855Y564881D01*
X108867Y564912D01*
X108886Y564938D01*
X108913Y565025D01*
X108947Y565110D01*
X108951Y565151D01*
X108958Y565173D01*
X108957Y565205D01*
X108965Y565276D01*
X108965Y614895D01*
X108954Y614966D01*
X108952Y615037D01*
X108934Y615086D01*
X108926Y615138D01*
X108892Y615201D01*
X108867Y615268D01*
X108835Y615309D01*
X108810Y615355D01*
X108758Y615404D01*
X108714Y615460D01*
X108670Y615489D01*
X108632Y615524D01*
X108567Y615555D01*
X108507Y615593D01*
X108456Y615606D01*
X108409Y615628D01*
X108338Y615636D01*
X108268Y615653D01*
X108216Y615649D01*
X108165Y615655D01*
X108094Y615640D01*
X108023Y615634D01*
X107975Y615614D01*
X107924Y615603D01*
X107863Y615566D01*
X107797Y615538D01*
X107741Y615493D01*
X107713Y615477D01*
X107698Y615459D01*
X107666Y615433D01*
X105388Y613155D01*
X103123Y613155D01*
X103123Y620777D01*
X109997Y620777D01*
X110087Y620792D01*
X110178Y620799D01*
X110208Y620811D01*
X110240Y620817D01*
X110320Y620859D01*
X110404Y620895D01*
X110436Y620921D01*
X110457Y620932D01*
X110479Y620955D01*
X110535Y621000D01*
X234722Y745187D01*
X236683Y745999D01*
X247611Y745999D01*
X247682Y746010D01*
X247753Y746012D01*
X247802Y746030D01*
X247854Y746038D01*
X247917Y746072D01*
X247984Y746097D01*
X248025Y746129D01*
X248071Y746154D01*
X248120Y746206D01*
X248176Y746250D01*
X248205Y746294D01*
X248240Y746332D01*
X248271Y746397D01*
X248309Y746457D01*
X248322Y746508D01*
X248344Y746555D01*
X248352Y746626D01*
X248369Y746696D01*
X248365Y746748D01*
X248371Y746799D01*
X248356Y746870D01*
X248350Y746941D01*
X248330Y746989D01*
X248319Y747040D01*
X248282Y747101D01*
X248254Y747167D01*
X248209Y747223D01*
X248193Y747251D01*
X248175Y747266D01*
X248149Y747298D01*
X246247Y749200D01*
X244855Y752561D01*
X244855Y771439D01*
X246247Y774800D01*
X248820Y777373D01*
X252181Y778765D01*
X255819Y778765D01*
X259180Y777373D01*
X261753Y774800D01*
X263145Y771439D01*
X263145Y752587D01*
X263156Y752516D01*
X263158Y752445D01*
X263176Y752396D01*
X263184Y752344D01*
X263218Y752281D01*
X263243Y752214D01*
X263275Y752173D01*
X263300Y752127D01*
X263352Y752078D01*
X263396Y752022D01*
X263440Y751993D01*
X263478Y751957D01*
X263543Y751927D01*
X263603Y751889D01*
X263654Y751876D01*
X263701Y751854D01*
X263772Y751846D01*
X263842Y751828D01*
X263894Y751833D01*
X263945Y751827D01*
X264016Y751842D01*
X264087Y751848D01*
X264135Y751868D01*
X264186Y751879D01*
X264247Y751916D01*
X264313Y751944D01*
X264369Y751989D01*
X264397Y752005D01*
X264412Y752023D01*
X264444Y752049D01*
X270032Y757637D01*
X270085Y757711D01*
X270145Y757780D01*
X270157Y757810D01*
X270176Y757837D01*
X270203Y757923D01*
X270237Y758008D01*
X270241Y758049D01*
X270248Y758072D01*
X270247Y758104D01*
X270255Y758175D01*
X270255Y771439D01*
X271647Y774800D01*
X274220Y777373D01*
X277581Y778765D01*
X281219Y778765D01*
X284580Y777373D01*
X287153Y774800D01*
X288545Y771439D01*
X288545Y752561D01*
X287153Y749200D01*
X284580Y746627D01*
X281219Y745235D01*
X277581Y745235D01*
X274613Y746464D01*
X274500Y746491D01*
X274386Y746520D01*
X274380Y746519D01*
X274374Y746521D01*
X274257Y746510D01*
X274141Y746501D01*
X274135Y746498D01*
X274129Y746498D01*
X274022Y746450D01*
X273915Y746404D01*
X273909Y746400D01*
X273904Y746398D01*
X273891Y746385D01*
X273784Y746299D01*
X263626Y736141D01*
X261665Y735329D01*
X240269Y735329D01*
X240179Y735315D01*
X240088Y735307D01*
X240058Y735295D01*
X240026Y735290D01*
X239946Y735247D01*
X239862Y735211D01*
X239830Y735185D01*
X239809Y735174D01*
X239787Y735151D01*
X239731Y735106D01*
X163037Y658412D01*
X163023Y658393D01*
X163004Y658378D01*
X162951Y658293D01*
X162893Y658213D01*
X162886Y658190D01*
X162873Y658169D01*
X162850Y658072D01*
X162821Y657978D01*
X162822Y657953D01*
X162816Y657930D01*
X162825Y657831D01*
X162827Y657732D01*
X162836Y657709D01*
X162838Y657685D01*
X162877Y657594D01*
X162912Y657501D01*
X162927Y657482D01*
X162936Y657460D01*
X163003Y657386D01*
X163065Y657309D01*
X163086Y657296D01*
X163102Y657278D01*
X163189Y657229D01*
X163272Y657176D01*
X163296Y657170D01*
X163317Y657158D01*
X163414Y657140D01*
X163511Y657116D01*
X163535Y657117D01*
X163559Y657113D01*
X163657Y657127D01*
X163756Y657135D01*
X163778Y657144D01*
X163802Y657147D01*
X163956Y657215D01*
X167702Y659378D01*
X174356Y661161D01*
X181244Y661161D01*
X187898Y659378D01*
X193863Y655934D01*
X198734Y651063D01*
X202178Y645098D01*
X203961Y638444D01*
X203961Y631556D01*
X202178Y624902D01*
X198734Y618937D01*
X193863Y614066D01*
X187898Y610622D01*
X181244Y608839D01*
X174356Y608839D01*
X167702Y610622D01*
X161737Y614066D01*
X156866Y618937D01*
X153422Y624902D01*
X151639Y631556D01*
X151639Y638444D01*
X153422Y645098D01*
X155585Y648844D01*
X155594Y648867D01*
X155608Y648886D01*
X155637Y648981D01*
X155672Y649074D01*
X155673Y649098D01*
X155680Y649121D01*
X155678Y649221D01*
X155681Y649320D01*
X155674Y649343D01*
X155674Y649367D01*
X155640Y649461D01*
X155611Y649556D01*
X155598Y649576D01*
X155589Y649598D01*
X155527Y649676D01*
X155470Y649757D01*
X155451Y649772D01*
X155436Y649790D01*
X155352Y649844D01*
X155272Y649903D01*
X155249Y649910D01*
X155229Y649923D01*
X155132Y649948D01*
X155038Y649978D01*
X155013Y649978D01*
X154990Y649983D01*
X154891Y649976D01*
X154792Y649974D01*
X154769Y649966D01*
X154745Y649964D01*
X154654Y649925D01*
X154560Y649892D01*
X154541Y649877D01*
X154519Y649868D01*
X154388Y649763D01*
X119858Y615233D01*
X119805Y615159D01*
X119745Y615090D01*
X119733Y615060D01*
X119714Y615033D01*
X119687Y614947D01*
X119653Y614862D01*
X119649Y614821D01*
X119642Y614798D01*
X119643Y614766D01*
X119635Y614695D01*
X119635Y565276D01*
X119649Y565186D01*
X119657Y565095D01*
X119669Y565066D01*
X119674Y565034D01*
X119717Y564953D01*
X119753Y564869D01*
X119779Y564837D01*
X119790Y564816D01*
X119813Y564794D01*
X119858Y564738D01*
X122429Y562167D01*
X122429Y555433D01*
X117667Y550671D01*
X110933Y550671D01*
G37*
%LPD*%
%LPC*%
G36*
X174356Y177039D02*
X174356Y177039D01*
X167702Y178822D01*
X161737Y182266D01*
X156866Y187137D01*
X153422Y193102D01*
X151639Y199756D01*
X151639Y206644D01*
X153422Y213298D01*
X156866Y219263D01*
X161737Y224134D01*
X167702Y227578D01*
X174356Y229361D01*
X181244Y229361D01*
X187898Y227578D01*
X193863Y224134D01*
X198734Y219263D01*
X202178Y213298D01*
X203961Y206644D01*
X203961Y199756D01*
X202178Y193102D01*
X198734Y187137D01*
X193863Y182266D01*
X187898Y178822D01*
X181244Y177039D01*
X174356Y177039D01*
G37*
%LPD*%
%LPC*%
G36*
X377556Y177039D02*
X377556Y177039D01*
X370902Y178822D01*
X364937Y182266D01*
X360066Y187137D01*
X356622Y193102D01*
X354839Y199756D01*
X354839Y206644D01*
X356622Y213298D01*
X360066Y219263D01*
X364937Y224134D01*
X370902Y227578D01*
X377556Y229361D01*
X384444Y229361D01*
X391098Y227578D01*
X397063Y224134D01*
X401934Y219263D01*
X405378Y213298D01*
X407161Y206644D01*
X407161Y199756D01*
X405378Y193102D01*
X401934Y187137D01*
X397063Y182266D01*
X391098Y178822D01*
X384444Y177039D01*
X377556Y177039D01*
G37*
%LPD*%
%LPC*%
G36*
X630592Y739839D02*
X630592Y739839D01*
X622447Y743213D01*
X616213Y749447D01*
X612839Y757592D01*
X612839Y766408D01*
X616213Y774553D01*
X622447Y780787D01*
X630592Y784161D01*
X639408Y784161D01*
X647553Y780787D01*
X653787Y774553D01*
X657161Y766408D01*
X657161Y757592D01*
X653787Y749447D01*
X647553Y743213D01*
X639408Y739839D01*
X630592Y739839D01*
G37*
%LPD*%
%LPC*%
G36*
X33692Y739839D02*
X33692Y739839D01*
X25547Y743213D01*
X19313Y749447D01*
X15939Y757592D01*
X15939Y766408D01*
X19313Y774553D01*
X25547Y780787D01*
X33692Y784161D01*
X42508Y784161D01*
X50653Y780787D01*
X56887Y774553D01*
X60261Y766408D01*
X60261Y757592D01*
X56887Y749447D01*
X50653Y743213D01*
X42508Y739839D01*
X33692Y739839D01*
G37*
%LPD*%
%LPC*%
G36*
X33692Y15939D02*
X33692Y15939D01*
X25547Y19313D01*
X19313Y25547D01*
X15939Y33692D01*
X15939Y42508D01*
X19313Y50653D01*
X25547Y56887D01*
X33692Y60261D01*
X42508Y60261D01*
X50653Y56887D01*
X56887Y50653D01*
X60261Y42508D01*
X60261Y33692D01*
X56887Y25547D01*
X50653Y19313D01*
X42508Y15939D01*
X33692Y15939D01*
G37*
%LPD*%
%LPC*%
G36*
X338492Y15939D02*
X338492Y15939D01*
X330347Y19313D01*
X324113Y25547D01*
X320739Y33692D01*
X320739Y42508D01*
X324113Y50653D01*
X330347Y56887D01*
X338492Y60261D01*
X347308Y60261D01*
X355453Y56887D01*
X361687Y50653D01*
X365061Y42508D01*
X365061Y33692D01*
X361687Y25547D01*
X355453Y19313D01*
X347308Y15939D01*
X338492Y15939D01*
G37*
%LPD*%
%LPC*%
G36*
X617892Y409639D02*
X617892Y409639D01*
X609747Y413013D01*
X603513Y419247D01*
X600139Y427392D01*
X600139Y436208D01*
X603513Y444353D01*
X609747Y450587D01*
X617892Y453961D01*
X626708Y453961D01*
X634853Y450587D01*
X641087Y444353D01*
X644461Y436208D01*
X644461Y427392D01*
X641087Y419247D01*
X634853Y413013D01*
X626708Y409639D01*
X617892Y409639D01*
G37*
%LPD*%
%LPC*%
G36*
X33692Y396939D02*
X33692Y396939D01*
X25547Y400313D01*
X19313Y406547D01*
X15939Y414692D01*
X15939Y423508D01*
X19313Y431653D01*
X25547Y437887D01*
X33692Y441261D01*
X42508Y441261D01*
X50653Y437887D01*
X56887Y431653D01*
X60261Y423508D01*
X60261Y414692D01*
X56887Y406547D01*
X50653Y400313D01*
X42508Y396939D01*
X33692Y396939D01*
G37*
%LPD*%
%LPC*%
G36*
X630592Y15939D02*
X630592Y15939D01*
X622447Y19313D01*
X616213Y25547D01*
X612839Y33692D01*
X612839Y42508D01*
X616213Y50653D01*
X622447Y56887D01*
X630592Y60261D01*
X639408Y60261D01*
X647553Y56887D01*
X653787Y50653D01*
X657161Y42508D01*
X657161Y33692D01*
X653787Y25547D01*
X647553Y19313D01*
X639408Y15939D01*
X630592Y15939D01*
G37*
%LPD*%
%LPC*%
G36*
X443422Y228536D02*
X443422Y228536D01*
X438730Y230479D01*
X435140Y234070D01*
X433196Y238761D01*
X433196Y243839D01*
X435140Y248530D01*
X438730Y252121D01*
X443422Y254064D01*
X470978Y254064D01*
X475670Y252121D01*
X479260Y248530D01*
X481204Y243839D01*
X481204Y238761D01*
X479260Y234070D01*
X475670Y230479D01*
X470978Y228536D01*
X443422Y228536D01*
G37*
%LPD*%
%LPC*%
G36*
X595822Y304736D02*
X595822Y304736D01*
X591130Y306679D01*
X587540Y310270D01*
X585596Y314961D01*
X585596Y320039D01*
X587540Y324730D01*
X591130Y328321D01*
X595822Y330264D01*
X623378Y330264D01*
X628070Y328321D01*
X631660Y324730D01*
X633604Y320039D01*
X633604Y314961D01*
X631660Y310270D01*
X628070Y306679D01*
X623378Y304736D01*
X595822Y304736D01*
G37*
%LPD*%
%LPC*%
G36*
X595822Y228536D02*
X595822Y228536D01*
X591130Y230479D01*
X587540Y234070D01*
X585596Y238761D01*
X585596Y243839D01*
X587540Y248530D01*
X591130Y252121D01*
X595822Y254064D01*
X623378Y254064D01*
X628070Y252121D01*
X631660Y248530D01*
X633604Y243839D01*
X633604Y238761D01*
X631660Y234070D01*
X628070Y230479D01*
X623378Y228536D01*
X595822Y228536D01*
G37*
%LPD*%
%LPC*%
G36*
X443422Y76136D02*
X443422Y76136D01*
X438730Y78079D01*
X435140Y81670D01*
X433196Y86361D01*
X433196Y91439D01*
X435140Y96130D01*
X438730Y99721D01*
X443422Y101664D01*
X470978Y101664D01*
X475670Y99721D01*
X479260Y96130D01*
X481204Y91439D01*
X481204Y86361D01*
X479260Y81670D01*
X475670Y78079D01*
X470978Y76136D01*
X443422Y76136D01*
G37*
%LPD*%
%LPC*%
G36*
X595822Y152336D02*
X595822Y152336D01*
X591130Y154279D01*
X587540Y157870D01*
X585596Y162561D01*
X585596Y167639D01*
X587540Y172330D01*
X591130Y175921D01*
X595822Y177864D01*
X623378Y177864D01*
X628070Y175921D01*
X631660Y172330D01*
X633604Y167639D01*
X633604Y162561D01*
X631660Y157870D01*
X628070Y154279D01*
X623378Y152336D01*
X595822Y152336D01*
G37*
%LPD*%
%LPC*%
G36*
X595822Y76136D02*
X595822Y76136D01*
X591130Y78079D01*
X587540Y81670D01*
X585596Y86361D01*
X585596Y91439D01*
X587540Y96130D01*
X591130Y99721D01*
X595822Y101664D01*
X623378Y101664D01*
X628070Y99721D01*
X631660Y96130D01*
X633604Y91439D01*
X633604Y86361D01*
X631660Y81670D01*
X628070Y78079D01*
X623378Y76136D01*
X595822Y76136D01*
G37*
%LPD*%
%LPC*%
G36*
X176082Y22351D02*
X176082Y22351D01*
X172908Y23666D01*
X170478Y26096D01*
X169163Y29270D01*
X169163Y46930D01*
X170478Y50104D01*
X172908Y52534D01*
X176082Y53849D01*
X179518Y53849D01*
X182692Y52534D01*
X185122Y50104D01*
X186437Y46930D01*
X186437Y29270D01*
X185122Y26096D01*
X182692Y23666D01*
X179518Y22351D01*
X176082Y22351D01*
G37*
%LPD*%
%LPC*%
G36*
X137982Y746251D02*
X137982Y746251D01*
X134808Y747566D01*
X132378Y749996D01*
X131063Y753170D01*
X131063Y770830D01*
X132378Y774004D01*
X134808Y776434D01*
X137982Y777749D01*
X141418Y777749D01*
X144592Y776434D01*
X147022Y774004D01*
X148337Y770830D01*
X148337Y753170D01*
X147022Y749996D01*
X144592Y747566D01*
X141418Y746251D01*
X137982Y746251D01*
G37*
%LPD*%
%LPC*%
G36*
X509983Y469050D02*
X509983Y469050D01*
X505701Y470824D01*
X502424Y474101D01*
X500650Y478383D01*
X500650Y483017D01*
X502424Y487299D01*
X505701Y490576D01*
X509983Y492350D01*
X514617Y492350D01*
X518899Y490576D01*
X522176Y487299D01*
X523950Y483017D01*
X523950Y478383D01*
X522176Y474101D01*
X518899Y470824D01*
X514617Y469050D01*
X509983Y469050D01*
G37*
%LPD*%
%LPC*%
G36*
X543983Y469050D02*
X543983Y469050D01*
X539701Y470824D01*
X536424Y474101D01*
X534650Y478383D01*
X534650Y483017D01*
X536424Y487299D01*
X539701Y490576D01*
X543983Y492350D01*
X548617Y492350D01*
X552899Y490576D01*
X556176Y487299D01*
X557950Y483017D01*
X557950Y478383D01*
X556176Y474101D01*
X552899Y470824D01*
X548617Y469050D01*
X543983Y469050D01*
G37*
%LPD*%
%LPC*%
G36*
X391477Y255523D02*
X391477Y255523D01*
X387369Y257225D01*
X384225Y260369D01*
X382523Y264477D01*
X382523Y268923D01*
X384225Y273031D01*
X387369Y276175D01*
X391477Y277877D01*
X395923Y277877D01*
X400031Y276175D01*
X403175Y273031D01*
X404877Y268923D01*
X404877Y264477D01*
X403175Y260369D01*
X400031Y257225D01*
X395923Y255523D01*
X391477Y255523D01*
G37*
%LPD*%
%LPC*%
G36*
X391477Y230123D02*
X391477Y230123D01*
X387369Y231825D01*
X384225Y234969D01*
X382523Y239077D01*
X382523Y243523D01*
X384225Y247631D01*
X387369Y250775D01*
X391477Y252477D01*
X395923Y252477D01*
X400031Y250775D01*
X403175Y247631D01*
X404877Y243523D01*
X404877Y239077D01*
X403175Y234969D01*
X400031Y231825D01*
X395923Y230123D01*
X391477Y230123D01*
G37*
%LPD*%
%LPC*%
G36*
X162877Y230123D02*
X162877Y230123D01*
X158769Y231825D01*
X155625Y234969D01*
X153923Y239077D01*
X153923Y243523D01*
X155625Y247631D01*
X158769Y250775D01*
X162877Y252477D01*
X167323Y252477D01*
X171431Y250775D01*
X174575Y247631D01*
X176277Y243523D01*
X176277Y239077D01*
X174575Y234969D01*
X171431Y231825D01*
X167323Y230123D01*
X162877Y230123D01*
G37*
%LPD*%
%LPC*%
G36*
X162877Y280923D02*
X162877Y280923D01*
X158769Y282625D01*
X155625Y285769D01*
X153923Y289877D01*
X153923Y294323D01*
X155625Y298431D01*
X158769Y301575D01*
X162877Y303277D01*
X167323Y303277D01*
X171431Y301575D01*
X174575Y298431D01*
X176277Y294323D01*
X176277Y289877D01*
X174575Y285769D01*
X171431Y282625D01*
X167323Y280923D01*
X162877Y280923D01*
G37*
%LPD*%
%LPC*%
G36*
X391477Y280923D02*
X391477Y280923D01*
X387369Y282625D01*
X384225Y285769D01*
X382523Y289877D01*
X382523Y294323D01*
X384225Y298431D01*
X387369Y301575D01*
X391477Y303277D01*
X395923Y303277D01*
X400031Y301575D01*
X403175Y298431D01*
X404877Y294323D01*
X404877Y289877D01*
X403175Y285769D01*
X400031Y282625D01*
X395923Y280923D01*
X391477Y280923D01*
G37*
%LPD*%
%LPC*%
G36*
X162877Y306323D02*
X162877Y306323D01*
X158769Y308025D01*
X155625Y311169D01*
X153923Y315277D01*
X153923Y319723D01*
X155625Y323831D01*
X158769Y326975D01*
X162877Y328677D01*
X167323Y328677D01*
X171431Y326975D01*
X174575Y323831D01*
X176277Y319723D01*
X176277Y315277D01*
X174575Y311169D01*
X171431Y308025D01*
X167323Y306323D01*
X162877Y306323D01*
G37*
%LPD*%
%LPC*%
G36*
X391477Y306323D02*
X391477Y306323D01*
X387369Y308025D01*
X384225Y311169D01*
X382523Y315277D01*
X382523Y319723D01*
X384225Y323831D01*
X387369Y326975D01*
X391477Y328677D01*
X395923Y328677D01*
X400031Y326975D01*
X403175Y323831D01*
X404877Y319723D01*
X404877Y315277D01*
X403175Y311169D01*
X400031Y308025D01*
X395923Y306323D01*
X391477Y306323D01*
G37*
%LPD*%
%LPC*%
G36*
X162877Y331723D02*
X162877Y331723D01*
X158769Y333425D01*
X155625Y336569D01*
X153923Y340677D01*
X153923Y345123D01*
X155625Y349231D01*
X158769Y352375D01*
X162877Y354077D01*
X167323Y354077D01*
X171431Y352375D01*
X174575Y349231D01*
X176277Y345123D01*
X176277Y340677D01*
X174575Y336569D01*
X171431Y333425D01*
X167323Y331723D01*
X162877Y331723D01*
G37*
%LPD*%
%LPC*%
G36*
X391477Y331723D02*
X391477Y331723D01*
X387369Y333425D01*
X384225Y336569D01*
X382523Y340677D01*
X382523Y345123D01*
X384225Y349231D01*
X387369Y352375D01*
X391477Y354077D01*
X395923Y354077D01*
X400031Y352375D01*
X403175Y349231D01*
X404877Y345123D01*
X404877Y340677D01*
X403175Y336569D01*
X400031Y333425D01*
X395923Y331723D01*
X391477Y331723D01*
G37*
%LPD*%
%LPC*%
G36*
X162877Y357123D02*
X162877Y357123D01*
X158769Y358825D01*
X155625Y361969D01*
X153923Y366077D01*
X153923Y370523D01*
X155625Y374631D01*
X158769Y377775D01*
X162877Y379477D01*
X167323Y379477D01*
X171431Y377775D01*
X174575Y374631D01*
X176277Y370523D01*
X176277Y366077D01*
X174575Y361969D01*
X171431Y358825D01*
X167323Y357123D01*
X162877Y357123D01*
G37*
%LPD*%
%LPC*%
G36*
X391477Y357123D02*
X391477Y357123D01*
X387369Y358825D01*
X384225Y361969D01*
X382523Y366077D01*
X382523Y370523D01*
X384225Y374631D01*
X387369Y377775D01*
X391477Y379477D01*
X395923Y379477D01*
X400031Y377775D01*
X403175Y374631D01*
X404877Y370523D01*
X404877Y366077D01*
X403175Y361969D01*
X400031Y358825D01*
X395923Y357123D01*
X391477Y357123D01*
G37*
%LPD*%
%LPC*%
G36*
X162877Y382523D02*
X162877Y382523D01*
X158769Y384225D01*
X155625Y387369D01*
X153923Y391477D01*
X153923Y395923D01*
X155625Y400031D01*
X158769Y403175D01*
X162877Y404877D01*
X167323Y404877D01*
X171431Y403175D01*
X174575Y400031D01*
X176277Y395923D01*
X176277Y391477D01*
X174575Y387369D01*
X171431Y384225D01*
X167323Y382523D01*
X162877Y382523D01*
G37*
%LPD*%
%LPC*%
G36*
X391477Y382523D02*
X391477Y382523D01*
X387369Y384225D01*
X384225Y387369D01*
X382523Y391477D01*
X382523Y395923D01*
X384225Y400031D01*
X387369Y403175D01*
X391477Y404877D01*
X395923Y404877D01*
X400031Y403175D01*
X403175Y400031D01*
X404877Y395923D01*
X404877Y391477D01*
X403175Y387369D01*
X400031Y384225D01*
X395923Y382523D01*
X391477Y382523D01*
G37*
%LPD*%
%LPC*%
G36*
X162877Y407923D02*
X162877Y407923D01*
X158769Y409625D01*
X155625Y412769D01*
X153923Y416877D01*
X153923Y421323D01*
X155625Y425431D01*
X158769Y428575D01*
X162877Y430277D01*
X167323Y430277D01*
X171431Y428575D01*
X174575Y425431D01*
X176277Y421323D01*
X176277Y416877D01*
X174575Y412769D01*
X171431Y409625D01*
X167323Y407923D01*
X162877Y407923D01*
G37*
%LPD*%
%LPC*%
G36*
X391477Y585723D02*
X391477Y585723D01*
X387369Y587425D01*
X384225Y590569D01*
X382523Y594677D01*
X382523Y599123D01*
X384225Y603231D01*
X387369Y606375D01*
X391477Y608077D01*
X395923Y608077D01*
X400031Y606375D01*
X403175Y603231D01*
X404877Y599123D01*
X404877Y594677D01*
X403175Y590569D01*
X400031Y587425D01*
X395923Y585723D01*
X391477Y585723D01*
G37*
%LPD*%
%LPC*%
G36*
X162877Y585723D02*
X162877Y585723D01*
X158769Y587425D01*
X155625Y590569D01*
X153923Y594677D01*
X153923Y599123D01*
X155625Y603231D01*
X158769Y606375D01*
X162877Y608077D01*
X167323Y608077D01*
X171431Y606375D01*
X174575Y603231D01*
X176277Y599123D01*
X176277Y594677D01*
X174575Y590569D01*
X171431Y587425D01*
X167323Y585723D01*
X162877Y585723D01*
G37*
%LPD*%
%LPC*%
G36*
X162877Y560323D02*
X162877Y560323D01*
X158769Y562025D01*
X155625Y565169D01*
X153923Y569277D01*
X153923Y573723D01*
X155625Y577831D01*
X158769Y580975D01*
X162877Y582677D01*
X167323Y582677D01*
X171431Y580975D01*
X174575Y577831D01*
X176277Y573723D01*
X176277Y569277D01*
X174575Y565169D01*
X171431Y562025D01*
X167323Y560323D01*
X162877Y560323D01*
G37*
%LPD*%
%LPC*%
G36*
X391477Y560323D02*
X391477Y560323D01*
X387369Y562025D01*
X384225Y565169D01*
X382523Y569277D01*
X382523Y573723D01*
X384225Y577831D01*
X387369Y580975D01*
X391477Y582677D01*
X395923Y582677D01*
X400031Y580975D01*
X403175Y577831D01*
X404877Y573723D01*
X404877Y569277D01*
X403175Y565169D01*
X400031Y562025D01*
X395923Y560323D01*
X391477Y560323D01*
G37*
%LPD*%
%LPC*%
G36*
X162877Y534923D02*
X162877Y534923D01*
X158769Y536625D01*
X155625Y539769D01*
X153923Y543877D01*
X153923Y548323D01*
X155625Y552431D01*
X158769Y555575D01*
X162877Y557277D01*
X167323Y557277D01*
X171431Y555575D01*
X174575Y552431D01*
X176277Y548323D01*
X176277Y543877D01*
X174575Y539769D01*
X171431Y536625D01*
X167323Y534923D01*
X162877Y534923D01*
G37*
%LPD*%
%LPC*%
G36*
X391477Y534923D02*
X391477Y534923D01*
X387369Y536625D01*
X384225Y539769D01*
X382523Y543877D01*
X382523Y548323D01*
X384225Y552431D01*
X387369Y555575D01*
X391477Y557277D01*
X395923Y557277D01*
X400031Y555575D01*
X403175Y552431D01*
X404877Y548323D01*
X404877Y543877D01*
X403175Y539769D01*
X400031Y536625D01*
X395923Y534923D01*
X391477Y534923D01*
G37*
%LPD*%
%LPC*%
G36*
X391477Y407923D02*
X391477Y407923D01*
X387369Y409625D01*
X384225Y412769D01*
X382523Y416877D01*
X382523Y421323D01*
X384225Y425431D01*
X387369Y428575D01*
X391477Y430277D01*
X395923Y430277D01*
X400031Y428575D01*
X403175Y425431D01*
X404877Y421323D01*
X404877Y416877D01*
X403175Y412769D01*
X400031Y409625D01*
X395923Y407923D01*
X391477Y407923D01*
G37*
%LPD*%
%LPC*%
G36*
X391477Y484123D02*
X391477Y484123D01*
X387369Y485825D01*
X384225Y488969D01*
X382523Y493077D01*
X382523Y497523D01*
X384225Y501631D01*
X387369Y504775D01*
X391477Y506477D01*
X395923Y506477D01*
X400031Y504775D01*
X403175Y501631D01*
X404877Y497523D01*
X404877Y493077D01*
X403175Y488969D01*
X400031Y485825D01*
X395923Y484123D01*
X391477Y484123D01*
G37*
%LPD*%
%LPC*%
G36*
X162877Y509523D02*
X162877Y509523D01*
X158769Y511225D01*
X155625Y514369D01*
X153923Y518477D01*
X153923Y522923D01*
X155625Y527031D01*
X158769Y530175D01*
X162877Y531877D01*
X167323Y531877D01*
X171431Y530175D01*
X174575Y527031D01*
X176277Y522923D01*
X176277Y518477D01*
X174575Y514369D01*
X171431Y511225D01*
X167323Y509523D01*
X162877Y509523D01*
G37*
%LPD*%
%LPC*%
G36*
X391477Y509523D02*
X391477Y509523D01*
X387369Y511225D01*
X384225Y514369D01*
X382523Y518477D01*
X382523Y522923D01*
X384225Y527031D01*
X387369Y530175D01*
X391477Y531877D01*
X395923Y531877D01*
X400031Y530175D01*
X403175Y527031D01*
X404877Y522923D01*
X404877Y518477D01*
X403175Y514369D01*
X400031Y511225D01*
X395923Y509523D01*
X391477Y509523D01*
G37*
%LPD*%
%LPC*%
G36*
X162877Y433323D02*
X162877Y433323D01*
X158769Y435025D01*
X155625Y438169D01*
X153923Y442277D01*
X153923Y446723D01*
X155625Y450831D01*
X158769Y453975D01*
X162877Y455677D01*
X167323Y455677D01*
X171431Y453975D01*
X174575Y450831D01*
X176277Y446723D01*
X176277Y442277D01*
X174575Y438169D01*
X171431Y435025D01*
X167323Y433323D01*
X162877Y433323D01*
G37*
%LPD*%
%LPC*%
G36*
X391477Y433323D02*
X391477Y433323D01*
X387369Y435025D01*
X384225Y438169D01*
X382523Y442277D01*
X382523Y446723D01*
X384225Y450831D01*
X387369Y453975D01*
X391477Y455677D01*
X395923Y455677D01*
X400031Y453975D01*
X403175Y450831D01*
X404877Y446723D01*
X404877Y442277D01*
X403175Y438169D01*
X400031Y435025D01*
X395923Y433323D01*
X391477Y433323D01*
G37*
%LPD*%
%LPC*%
G36*
X162877Y458723D02*
X162877Y458723D01*
X158769Y460425D01*
X155625Y463569D01*
X153923Y467677D01*
X153923Y472123D01*
X155625Y476231D01*
X158769Y479375D01*
X162877Y481077D01*
X167323Y481077D01*
X171431Y479375D01*
X174575Y476231D01*
X176277Y472123D01*
X176277Y467677D01*
X174575Y463569D01*
X171431Y460425D01*
X167323Y458723D01*
X162877Y458723D01*
G37*
%LPD*%
%LPC*%
G36*
X391477Y458723D02*
X391477Y458723D01*
X387369Y460425D01*
X384225Y463569D01*
X382523Y467677D01*
X382523Y472123D01*
X384225Y476231D01*
X387369Y479375D01*
X391477Y481077D01*
X395923Y481077D01*
X400031Y479375D01*
X403175Y476231D01*
X404877Y472123D01*
X404877Y467677D01*
X403175Y463569D01*
X400031Y460425D01*
X395923Y458723D01*
X391477Y458723D01*
G37*
%LPD*%
%LPC*%
G36*
X162877Y484123D02*
X162877Y484123D01*
X158769Y485825D01*
X155625Y488969D01*
X153923Y493077D01*
X153923Y497523D01*
X155625Y501631D01*
X158769Y504775D01*
X162877Y506477D01*
X167323Y506477D01*
X171431Y504775D01*
X174575Y501631D01*
X176277Y497523D01*
X176277Y493077D01*
X174575Y488969D01*
X171431Y485825D01*
X167323Y484123D01*
X162877Y484123D01*
G37*
%LPD*%
%LPC*%
G36*
X611123Y395223D02*
X611123Y395223D01*
X611123Y407480D01*
X621924Y407480D01*
X624066Y407141D01*
X626129Y406471D01*
X628062Y405486D01*
X629817Y404211D01*
X631350Y402677D01*
X632625Y400922D01*
X633610Y398990D01*
X634280Y396927D01*
X634550Y395223D01*
X611123Y395223D01*
G37*
%LPD*%
%LPC*%
G36*
X584650Y395223D02*
X584650Y395223D01*
X584920Y396927D01*
X585590Y398990D01*
X586575Y400922D01*
X587850Y402677D01*
X589383Y404211D01*
X591138Y405486D01*
X593071Y406471D01*
X595134Y407141D01*
X597276Y407480D01*
X608077Y407480D01*
X608077Y395223D01*
X584650Y395223D01*
G37*
%LPD*%
%LPC*%
G36*
X611123Y379920D02*
X611123Y379920D01*
X611123Y392177D01*
X634550Y392177D01*
X634280Y390473D01*
X633610Y388410D01*
X632625Y386478D01*
X631350Y384723D01*
X629817Y383189D01*
X628062Y381914D01*
X626129Y380929D01*
X624066Y380259D01*
X621924Y379920D01*
X611123Y379920D01*
G37*
%LPD*%
%LPC*%
G36*
X597276Y379920D02*
X597276Y379920D01*
X595134Y380259D01*
X593071Y380929D01*
X591138Y381914D01*
X589383Y383189D01*
X587850Y384723D01*
X586575Y386478D01*
X585590Y388410D01*
X584920Y390473D01*
X584650Y392177D01*
X608077Y392177D01*
X608077Y379920D01*
X597276Y379920D01*
G37*
%LPD*%
%LPC*%
G36*
X72833Y614171D02*
X72833Y614171D01*
X68071Y618933D01*
X68071Y625667D01*
X72833Y630429D01*
X79567Y630429D01*
X84329Y625667D01*
X84329Y618933D01*
X79567Y614171D01*
X72833Y614171D01*
G37*
%LPD*%
%LPC*%
G36*
X60133Y271271D02*
X60133Y271271D01*
X55371Y276033D01*
X55371Y282767D01*
X60133Y287529D01*
X66867Y287529D01*
X71629Y282767D01*
X71629Y276033D01*
X66867Y271271D01*
X60133Y271271D01*
G37*
%LPD*%
%LPC*%
G36*
X60133Y550671D02*
X60133Y550671D01*
X55371Y555433D01*
X55371Y562167D01*
X60133Y566929D01*
X66867Y566929D01*
X71629Y562167D01*
X71629Y555433D01*
X66867Y550671D01*
X60133Y550671D01*
G37*
%LPD*%
%LPC*%
G36*
X72833Y207771D02*
X72833Y207771D01*
X68071Y212533D01*
X68071Y219267D01*
X72833Y224029D01*
X79567Y224029D01*
X84329Y219267D01*
X84329Y212533D01*
X79567Y207771D01*
X72833Y207771D01*
G37*
%LPD*%
%LPC*%
G36*
X110933Y271271D02*
X110933Y271271D01*
X106171Y276033D01*
X106171Y282767D01*
X110933Y287529D01*
X117667Y287529D01*
X122429Y282767D01*
X122429Y276033D01*
X117667Y271271D01*
X110933Y271271D01*
G37*
%LPD*%
%LPC*%
G36*
X306323Y763523D02*
X306323Y763523D01*
X306323Y779666D01*
X307179Y779531D01*
X308700Y779036D01*
X310125Y778310D01*
X311419Y777370D01*
X312550Y776239D01*
X313490Y774945D01*
X314216Y773520D01*
X314711Y771999D01*
X314961Y770420D01*
X314961Y763523D01*
X306323Y763523D01*
G37*
%LPD*%
%LPC*%
G36*
X306323Y760477D02*
X306323Y760477D01*
X314961Y760477D01*
X314961Y753580D01*
X314711Y752001D01*
X314216Y750480D01*
X313490Y749055D01*
X312550Y747761D01*
X311419Y746630D01*
X310125Y745690D01*
X308700Y744964D01*
X307179Y744469D01*
X306323Y744334D01*
X306323Y760477D01*
G37*
%LPD*%
%LPC*%
G36*
X294639Y763523D02*
X294639Y763523D01*
X294639Y770420D01*
X294889Y771999D01*
X295384Y773520D01*
X296110Y774945D01*
X297050Y776239D01*
X298181Y777370D01*
X299475Y778310D01*
X300900Y779036D01*
X302421Y779531D01*
X303277Y779666D01*
X303277Y763523D01*
X294639Y763523D01*
G37*
%LPD*%
%LPC*%
G36*
X302421Y744469D02*
X302421Y744469D01*
X300900Y744964D01*
X299475Y745690D01*
X298181Y746630D01*
X297050Y747761D01*
X296110Y749055D01*
X295384Y750480D01*
X294889Y752001D01*
X294639Y753580D01*
X294639Y760477D01*
X303277Y760477D01*
X303277Y744334D01*
X302421Y744469D01*
G37*
%LPD*%
%LPC*%
G36*
X166623Y763523D02*
X166623Y763523D01*
X166623Y778644D01*
X167360Y778527D01*
X168805Y778058D01*
X170159Y777368D01*
X171388Y776475D01*
X172463Y775400D01*
X173356Y774171D01*
X174046Y772817D01*
X174515Y771372D01*
X174753Y769872D01*
X174753Y763523D01*
X166623Y763523D01*
G37*
%LPD*%
%LPC*%
G36*
X153923Y39623D02*
X153923Y39623D01*
X153923Y54744D01*
X154660Y54627D01*
X156105Y54158D01*
X157459Y53468D01*
X158688Y52575D01*
X159763Y51500D01*
X160656Y50271D01*
X161346Y48917D01*
X161815Y47472D01*
X162053Y45972D01*
X162053Y39623D01*
X153923Y39623D01*
G37*
%LPD*%
%LPC*%
G36*
X420623Y763523D02*
X420623Y763523D01*
X420623Y778644D01*
X421360Y778527D01*
X422805Y778058D01*
X424159Y777368D01*
X425388Y776475D01*
X426463Y775400D01*
X427356Y774171D01*
X428046Y772817D01*
X428515Y771372D01*
X428753Y769872D01*
X428753Y763523D01*
X420623Y763523D01*
G37*
%LPD*%
%LPC*%
G36*
X166623Y760477D02*
X166623Y760477D01*
X174753Y760477D01*
X174753Y754128D01*
X174515Y752628D01*
X174046Y751183D01*
X173356Y749829D01*
X172463Y748600D01*
X171388Y747525D01*
X170159Y746632D01*
X168805Y745942D01*
X167360Y745473D01*
X166623Y745356D01*
X166623Y760477D01*
G37*
%LPD*%
%LPC*%
G36*
X153923Y36577D02*
X153923Y36577D01*
X162053Y36577D01*
X162053Y30228D01*
X161815Y28728D01*
X161346Y27283D01*
X160656Y25929D01*
X159763Y24700D01*
X158688Y23625D01*
X157459Y22732D01*
X156105Y22042D01*
X154660Y21573D01*
X153923Y21456D01*
X153923Y36577D01*
G37*
%LPD*%
%LPC*%
G36*
X420623Y760477D02*
X420623Y760477D01*
X428753Y760477D01*
X428753Y754128D01*
X428515Y752628D01*
X428046Y751183D01*
X427356Y749829D01*
X426463Y748600D01*
X425388Y747525D01*
X424159Y746632D01*
X422805Y745942D01*
X421360Y745473D01*
X420623Y745356D01*
X420623Y760477D01*
G37*
%LPD*%
%LPC*%
G36*
X409447Y763523D02*
X409447Y763523D01*
X409447Y769872D01*
X409685Y771372D01*
X410154Y772817D01*
X410844Y774171D01*
X411737Y775400D01*
X412812Y776475D01*
X414041Y777368D01*
X415395Y778058D01*
X416840Y778527D01*
X417577Y778644D01*
X417577Y763523D01*
X409447Y763523D01*
G37*
%LPD*%
%LPC*%
G36*
X155447Y763523D02*
X155447Y763523D01*
X155447Y769872D01*
X155685Y771372D01*
X156154Y772817D01*
X156844Y774171D01*
X157737Y775400D01*
X158812Y776475D01*
X160041Y777368D01*
X161395Y778058D01*
X162840Y778527D01*
X163577Y778644D01*
X163577Y763523D01*
X155447Y763523D01*
G37*
%LPD*%
%LPC*%
G36*
X142747Y39623D02*
X142747Y39623D01*
X142747Y45972D01*
X142985Y47472D01*
X143454Y48917D01*
X144144Y50271D01*
X145037Y51500D01*
X146112Y52575D01*
X147341Y53468D01*
X148695Y54158D01*
X150140Y54627D01*
X150877Y54744D01*
X150877Y39623D01*
X142747Y39623D01*
G37*
%LPD*%
%LPC*%
G36*
X162840Y745473D02*
X162840Y745473D01*
X161395Y745942D01*
X160041Y746632D01*
X158812Y747525D01*
X157737Y748600D01*
X156844Y749829D01*
X156154Y751183D01*
X155685Y752628D01*
X155447Y754128D01*
X155447Y760477D01*
X163577Y760477D01*
X163577Y745356D01*
X162840Y745473D01*
G37*
%LPD*%
%LPC*%
G36*
X416840Y745473D02*
X416840Y745473D01*
X415395Y745942D01*
X414041Y746632D01*
X412812Y747525D01*
X411737Y748600D01*
X410844Y749829D01*
X410154Y751183D01*
X409685Y752628D01*
X409447Y754128D01*
X409447Y760477D01*
X417577Y760477D01*
X417577Y745356D01*
X416840Y745473D01*
G37*
%LPD*%
%LPC*%
G36*
X150140Y21573D02*
X150140Y21573D01*
X148695Y22042D01*
X147341Y22732D01*
X146112Y23625D01*
X145037Y24700D01*
X144144Y25929D01*
X143454Y27283D01*
X142985Y28728D01*
X142747Y30228D01*
X142747Y36577D01*
X150877Y36577D01*
X150877Y21456D01*
X150140Y21573D01*
G37*
%LPD*%
%LPC*%
G36*
X564823Y522223D02*
X564823Y522223D01*
X564823Y533282D01*
X566266Y533054D01*
X568162Y532438D01*
X569938Y531533D01*
X571551Y530361D01*
X572961Y528951D01*
X574133Y527338D01*
X575038Y525562D01*
X575654Y523666D01*
X575882Y522223D01*
X564823Y522223D01*
G37*
%LPD*%
%LPC*%
G36*
X530823Y522223D02*
X530823Y522223D01*
X530823Y533282D01*
X532266Y533054D01*
X534162Y532438D01*
X535938Y531533D01*
X537551Y530361D01*
X538961Y528951D01*
X540133Y527338D01*
X541038Y525562D01*
X541654Y523666D01*
X541882Y522223D01*
X530823Y522223D01*
G37*
%LPD*%
%LPC*%
G36*
X564823Y519177D02*
X564823Y519177D01*
X575882Y519177D01*
X575654Y517734D01*
X575038Y515838D01*
X574133Y514062D01*
X572961Y512449D01*
X571551Y511039D01*
X569938Y509867D01*
X568162Y508962D01*
X566266Y508346D01*
X564823Y508118D01*
X564823Y519177D01*
G37*
%LPD*%
%LPC*%
G36*
X550718Y522223D02*
X550718Y522223D01*
X550946Y523666D01*
X551562Y525562D01*
X552467Y527338D01*
X553639Y528951D01*
X555049Y530361D01*
X556662Y531533D01*
X558438Y532438D01*
X560334Y533054D01*
X561777Y533282D01*
X561777Y522223D01*
X550718Y522223D01*
G37*
%LPD*%
%LPC*%
G36*
X530823Y519177D02*
X530823Y519177D01*
X541882Y519177D01*
X541654Y517734D01*
X541038Y515838D01*
X540133Y514062D01*
X538961Y512449D01*
X537551Y511039D01*
X535938Y509867D01*
X534162Y508962D01*
X532266Y508346D01*
X530823Y508118D01*
X530823Y519177D01*
G37*
%LPD*%
%LPC*%
G36*
X516718Y522223D02*
X516718Y522223D01*
X516946Y523666D01*
X517562Y525562D01*
X518467Y527338D01*
X519639Y528951D01*
X521049Y530361D01*
X522662Y531533D01*
X524438Y532438D01*
X526334Y533054D01*
X527777Y533282D01*
X527777Y522223D01*
X516718Y522223D01*
G37*
%LPD*%
%LPC*%
G36*
X526334Y508346D02*
X526334Y508346D01*
X524438Y508962D01*
X522662Y509867D01*
X521049Y511039D01*
X519639Y512449D01*
X518467Y514062D01*
X517562Y515838D01*
X516946Y517734D01*
X516718Y519177D01*
X527777Y519177D01*
X527777Y508118D01*
X526334Y508346D01*
G37*
%LPD*%
%LPC*%
G36*
X560334Y508346D02*
X560334Y508346D01*
X558438Y508962D01*
X556662Y509867D01*
X555049Y511039D01*
X553639Y512449D01*
X552467Y514062D01*
X551562Y515838D01*
X550946Y517734D01*
X550718Y519177D01*
X561777Y519177D01*
X561777Y508118D01*
X560334Y508346D01*
G37*
%LPD*%
%LPC*%
G36*
X166623Y268223D02*
X166623Y268223D01*
X166623Y278803D01*
X167955Y278593D01*
X169780Y277999D01*
X171490Y277128D01*
X173043Y276000D01*
X174400Y274643D01*
X175528Y273090D01*
X176399Y271380D01*
X176993Y269555D01*
X177203Y268223D01*
X166623Y268223D01*
G37*
%LPD*%
%LPC*%
G36*
X166623Y265177D02*
X166623Y265177D01*
X177203Y265177D01*
X176993Y263845D01*
X176399Y262020D01*
X175528Y260310D01*
X174400Y258757D01*
X173043Y257400D01*
X171490Y256272D01*
X169780Y255401D01*
X167955Y254807D01*
X166623Y254597D01*
X166623Y265177D01*
G37*
%LPD*%
%LPC*%
G36*
X152997Y268223D02*
X152997Y268223D01*
X153207Y269555D01*
X153801Y271380D01*
X154672Y273090D01*
X155800Y274643D01*
X157157Y276000D01*
X158710Y277128D01*
X160420Y277999D01*
X162245Y278593D01*
X163577Y278803D01*
X163577Y268223D01*
X152997Y268223D01*
G37*
%LPD*%
%LPC*%
G36*
X162245Y254807D02*
X162245Y254807D01*
X160420Y255401D01*
X158710Y256272D01*
X157157Y257400D01*
X155800Y258757D01*
X154672Y260310D01*
X153801Y262020D01*
X153207Y263845D01*
X152997Y265177D01*
X163577Y265177D01*
X163577Y254597D01*
X162245Y254807D01*
G37*
%LPD*%
%LPC*%
G36*
X534923Y763523D02*
X534923Y763523D01*
X534923Y772542D01*
X537767Y772542D01*
X543942Y766367D01*
X543942Y763523D01*
X534923Y763523D01*
G37*
%LPD*%
%LPC*%
G36*
X522858Y763523D02*
X522858Y763523D01*
X522858Y766367D01*
X529033Y772542D01*
X531877Y772542D01*
X531877Y763523D01*
X522858Y763523D01*
G37*
%LPD*%
%LPC*%
G36*
X534923Y751458D02*
X534923Y751458D01*
X534923Y760477D01*
X543942Y760477D01*
X543942Y757633D01*
X537767Y751458D01*
X534923Y751458D01*
G37*
%LPD*%
%LPC*%
G36*
X529033Y751458D02*
X529033Y751458D01*
X522858Y757633D01*
X522858Y760477D01*
X531877Y760477D01*
X531877Y751458D01*
X529033Y751458D01*
G37*
%LPD*%
%LPC*%
G36*
X103123Y217423D02*
X103123Y217423D01*
X103123Y225045D01*
X105388Y225045D01*
X110745Y219688D01*
X110745Y217423D01*
X103123Y217423D01*
G37*
%LPD*%
%LPC*%
G36*
X103123Y623823D02*
X103123Y623823D01*
X103123Y631445D01*
X105388Y631445D01*
X110745Y626088D01*
X110745Y623823D01*
X103123Y623823D01*
G37*
%LPD*%
%LPC*%
G36*
X532383Y623823D02*
X532383Y623823D01*
X532383Y631445D01*
X534648Y631445D01*
X540005Y626088D01*
X540005Y623823D01*
X532383Y623823D01*
G37*
%LPD*%
%LPC*%
G36*
X92455Y217423D02*
X92455Y217423D01*
X92455Y219688D01*
X97812Y225045D01*
X100077Y225045D01*
X100077Y217423D01*
X92455Y217423D01*
G37*
%LPD*%
%LPC*%
G36*
X92455Y623823D02*
X92455Y623823D01*
X92455Y626088D01*
X97812Y631445D01*
X100077Y631445D01*
X100077Y623823D01*
X92455Y623823D01*
G37*
%LPD*%
%LPC*%
G36*
X521715Y623823D02*
X521715Y623823D01*
X521715Y626088D01*
X527072Y631445D01*
X529337Y631445D01*
X529337Y623823D01*
X521715Y623823D01*
G37*
%LPD*%
%LPC*%
G36*
X532383Y613155D02*
X532383Y613155D01*
X532383Y620777D01*
X540005Y620777D01*
X540005Y618512D01*
X534648Y613155D01*
X532383Y613155D01*
G37*
%LPD*%
%LPC*%
G36*
X103123Y206755D02*
X103123Y206755D01*
X103123Y214377D01*
X110745Y214377D01*
X110745Y212112D01*
X105388Y206755D01*
X103123Y206755D01*
G37*
%LPD*%
%LPC*%
G36*
X527072Y613155D02*
X527072Y613155D01*
X521715Y618512D01*
X521715Y620777D01*
X529337Y620777D01*
X529337Y613155D01*
X527072Y613155D01*
G37*
%LPD*%
%LPC*%
G36*
X97812Y206755D02*
X97812Y206755D01*
X92455Y212112D01*
X92455Y214377D01*
X100077Y214377D01*
X100077Y206755D01*
X97812Y206755D01*
G37*
%LPD*%
%LPC*%
G36*
X97812Y613155D02*
X97812Y613155D01*
X92455Y618512D01*
X92455Y620777D01*
X100077Y620777D01*
X100077Y613155D01*
X97812Y613155D01*
G37*
%LPD*%
%LPC*%
G36*
X533399Y761999D02*
X533399Y761999D01*
X533399Y762001D01*
X533401Y762001D01*
X533401Y761999D01*
X533399Y761999D01*
G37*
%LPD*%
%LPC*%
G36*
X101599Y622299D02*
X101599Y622299D01*
X101599Y622301D01*
X101601Y622301D01*
X101601Y622299D01*
X101599Y622299D01*
G37*
%LPD*%
%LPC*%
G36*
X530859Y622299D02*
X530859Y622299D01*
X530859Y622301D01*
X530861Y622301D01*
X530861Y622299D01*
X530859Y622299D01*
G37*
%LPD*%
%LPC*%
G36*
X609599Y393699D02*
X609599Y393699D01*
X609599Y393701D01*
X609601Y393701D01*
X609601Y393699D01*
X609599Y393699D01*
G37*
%LPD*%
%LPC*%
G36*
X419099Y761999D02*
X419099Y761999D01*
X419099Y762001D01*
X419101Y762001D01*
X419101Y761999D01*
X419099Y761999D01*
G37*
%LPD*%
%LPC*%
G36*
X304799Y761999D02*
X304799Y761999D01*
X304799Y762001D01*
X304801Y762001D01*
X304801Y761999D01*
X304799Y761999D01*
G37*
%LPD*%
%LPC*%
G36*
X165099Y761999D02*
X165099Y761999D01*
X165099Y762001D01*
X165101Y762001D01*
X165101Y761999D01*
X165099Y761999D01*
G37*
%LPD*%
%LPC*%
G36*
X165099Y266699D02*
X165099Y266699D01*
X165099Y266701D01*
X165101Y266701D01*
X165101Y266699D01*
X165099Y266699D01*
G37*
%LPD*%
%LPC*%
G36*
X529299Y520699D02*
X529299Y520699D01*
X529299Y520701D01*
X529301Y520701D01*
X529301Y520699D01*
X529299Y520699D01*
G37*
%LPD*%
%LPC*%
G36*
X152399Y38099D02*
X152399Y38099D01*
X152399Y38101D01*
X152401Y38101D01*
X152401Y38099D01*
X152399Y38099D01*
G37*
%LPD*%
%LPC*%
G36*
X563299Y520699D02*
X563299Y520699D01*
X563299Y520701D01*
X563301Y520701D01*
X563301Y520699D01*
X563299Y520699D01*
G37*
%LPD*%
%LPC*%
G36*
X101599Y215899D02*
X101599Y215899D01*
X101599Y215901D01*
X101601Y215901D01*
X101601Y215899D01*
X101599Y215899D01*
G37*
%LPD*%
D10*
X530860Y622300D03*
D11*
X510540Y622300D03*
D12*
X508000Y762000D03*
X533400Y762000D03*
D13*
X468440Y393700D02*
X445961Y393700D01*
X598361Y393700D02*
X620840Y393700D01*
D10*
X482600Y685800D03*
X558800Y685800D03*
X76200Y215900D03*
X101600Y215900D03*
X76200Y622300D03*
X101600Y622300D03*
D14*
X139700Y754888D02*
X139700Y769112D01*
X165100Y769112D02*
X165100Y754888D01*
X393700Y754888D02*
X393700Y769112D01*
X419100Y769112D02*
X419100Y754888D01*
X177800Y45212D02*
X177800Y30988D01*
X152400Y30988D02*
X152400Y45212D01*
D15*
X254000Y754380D02*
X254000Y769620D01*
X279400Y769620D02*
X279400Y754380D01*
X304800Y754380D02*
X304800Y769620D01*
D16*
X165100Y596900D03*
X165100Y571500D03*
X165100Y546100D03*
X165100Y520700D03*
X165100Y495300D03*
X165100Y469900D03*
X165100Y444500D03*
X165100Y419100D03*
X165100Y393700D03*
X165100Y368300D03*
X165100Y342900D03*
X165100Y317500D03*
X165100Y292100D03*
X165100Y266700D03*
X165100Y241300D03*
X393700Y596900D03*
X393700Y571500D03*
X393700Y546100D03*
X393700Y520700D03*
X393700Y495300D03*
X393700Y469900D03*
X393700Y444500D03*
X393700Y419100D03*
X393700Y393700D03*
X393700Y368300D03*
X393700Y342900D03*
X393700Y317500D03*
X393700Y292100D03*
X393700Y266700D03*
X393700Y241300D03*
D17*
X495300Y520700D03*
D18*
X512300Y480700D03*
X529300Y520700D03*
X546300Y480700D03*
X563300Y520700D03*
D10*
X63500Y279400D03*
X114300Y279400D03*
X63500Y558800D03*
X114300Y558800D03*
D13*
X445961Y241300D02*
X468440Y241300D01*
X598361Y241300D02*
X620840Y241300D01*
X468440Y165100D02*
X445961Y165100D01*
X598361Y165100D02*
X620840Y165100D01*
X468440Y317500D02*
X445961Y317500D01*
X598361Y317500D02*
X620840Y317500D01*
X468440Y88900D02*
X445961Y88900D01*
X598361Y88900D02*
X620840Y88900D01*
D19*
X105156Y626364D02*
X105156Y699516D01*
X164592Y758952D01*
X105156Y626364D02*
X101600Y622300D01*
X164592Y758952D02*
X165100Y762000D01*
X118872Y219456D02*
X105156Y219456D01*
X118872Y219456D02*
X164592Y265176D01*
X105156Y219456D02*
X101600Y215900D01*
X164592Y265176D02*
X165100Y266700D01*
X150876Y187452D02*
X150876Y41148D01*
X150876Y187452D02*
X118872Y219456D01*
X150876Y41148D02*
X152400Y38100D01*
X100584Y333756D02*
X100584Y621792D01*
X100584Y333756D02*
X164592Y269748D01*
X100584Y621792D02*
X101600Y622300D01*
X164592Y269748D02*
X165100Y266700D01*
X301752Y402336D02*
X301752Y758952D01*
X301752Y402336D02*
X169164Y269748D01*
X301752Y758952D02*
X304800Y762000D01*
X169164Y269748D02*
X165100Y266700D01*
X512064Y626364D02*
X512064Y640080D01*
X557784Y685800D01*
X512064Y626364D02*
X510540Y622300D01*
X557784Y685800D02*
X558800Y685800D01*
X114300Y617220D02*
X114300Y558800D01*
X114300Y617220D02*
X237744Y740664D01*
X260604Y740664D01*
X278892Y758952D01*
X279400Y762000D01*
X480060Y685800D02*
X480060Y534924D01*
X457200Y512064D01*
X457200Y393700D01*
X480060Y685800D02*
X482600Y685800D01*
X397764Y662940D02*
X397764Y758952D01*
X397764Y662940D02*
X425196Y635508D01*
X425196Y201168D01*
X457200Y169164D01*
X397764Y758952D02*
X393700Y762000D01*
X457200Y169164D02*
X457200Y165100D01*
X507492Y649224D02*
X507492Y758952D01*
X507492Y649224D02*
X498348Y640080D01*
X498348Y521208D01*
X507492Y758952D02*
X508000Y762000D01*
X498348Y521208D02*
X495300Y520700D01*
X493776Y516636D02*
X493776Y356616D01*
X457200Y320040D01*
X493776Y516636D02*
X495300Y520700D01*
X457200Y320040D02*
X457200Y317500D01*
M02*
