G04 EAGLE Gerber RS-274X export*
G75*
%MOMM*%
%FSLAX34Y34*%
%LPD*%
%INSilkscreen Top*%
%IPPOS*%
%AMOC8*
5,1,8,0,0,1.08239X$1,22.5*%
G01*
%ADD10C,0.152400*%
%ADD11C,0.076200*%
%ADD12C,0.127000*%
%ADD13C,0.254000*%
%ADD14R,0.889000X1.270000*%
%ADD15R,1.016000X5.334000*%
%ADD16C,0.203200*%
%ADD17C,0.101600*%
%ADD18C,0.200000*%


D10*
X233878Y115062D02*
X233878Y131318D01*
X238393Y131318D02*
X229362Y131318D01*
X246522Y115062D02*
X251037Y115062D01*
X246522Y115062D02*
X246421Y115064D01*
X246320Y115070D01*
X246219Y115079D01*
X246118Y115092D01*
X246018Y115109D01*
X245919Y115130D01*
X245821Y115154D01*
X245724Y115182D01*
X245627Y115214D01*
X245532Y115249D01*
X245439Y115288D01*
X245347Y115330D01*
X245256Y115376D01*
X245168Y115425D01*
X245081Y115477D01*
X244996Y115533D01*
X244913Y115591D01*
X244833Y115653D01*
X244755Y115718D01*
X244679Y115785D01*
X244606Y115855D01*
X244536Y115928D01*
X244469Y116004D01*
X244404Y116082D01*
X244342Y116162D01*
X244284Y116245D01*
X244228Y116330D01*
X244176Y116417D01*
X244127Y116505D01*
X244081Y116596D01*
X244039Y116688D01*
X244000Y116781D01*
X243965Y116876D01*
X243933Y116973D01*
X243905Y117070D01*
X243881Y117168D01*
X243860Y117267D01*
X243843Y117367D01*
X243830Y117468D01*
X243821Y117569D01*
X243815Y117670D01*
X243813Y117771D01*
X243812Y117771D02*
X243812Y122287D01*
X243813Y122287D02*
X243815Y122406D01*
X243821Y122526D01*
X243831Y122645D01*
X243845Y122763D01*
X243862Y122882D01*
X243884Y122999D01*
X243909Y123116D01*
X243939Y123231D01*
X243972Y123346D01*
X244009Y123460D01*
X244049Y123572D01*
X244094Y123683D01*
X244142Y123792D01*
X244193Y123900D01*
X244248Y124006D01*
X244307Y124110D01*
X244369Y124212D01*
X244434Y124312D01*
X244503Y124410D01*
X244575Y124506D01*
X244650Y124599D01*
X244727Y124689D01*
X244808Y124777D01*
X244892Y124862D01*
X244979Y124944D01*
X245068Y125024D01*
X245160Y125100D01*
X245254Y125174D01*
X245351Y125244D01*
X245449Y125311D01*
X245550Y125375D01*
X245654Y125435D01*
X245759Y125492D01*
X245866Y125545D01*
X245974Y125595D01*
X246084Y125641D01*
X246196Y125683D01*
X246309Y125722D01*
X246423Y125757D01*
X246538Y125788D01*
X246655Y125816D01*
X246772Y125839D01*
X246889Y125859D01*
X247008Y125875D01*
X247127Y125887D01*
X247246Y125895D01*
X247365Y125899D01*
X247485Y125899D01*
X247604Y125895D01*
X247723Y125887D01*
X247842Y125875D01*
X247961Y125859D01*
X248078Y125839D01*
X248195Y125816D01*
X248312Y125788D01*
X248427Y125757D01*
X248541Y125722D01*
X248654Y125683D01*
X248766Y125641D01*
X248876Y125595D01*
X248984Y125545D01*
X249091Y125492D01*
X249196Y125435D01*
X249300Y125375D01*
X249401Y125311D01*
X249499Y125244D01*
X249596Y125174D01*
X249690Y125100D01*
X249782Y125024D01*
X249871Y124944D01*
X249958Y124862D01*
X250042Y124777D01*
X250123Y124689D01*
X250200Y124599D01*
X250275Y124506D01*
X250347Y124410D01*
X250416Y124312D01*
X250481Y124212D01*
X250543Y124110D01*
X250602Y124006D01*
X250657Y123900D01*
X250708Y123792D01*
X250756Y123683D01*
X250801Y123572D01*
X250841Y123460D01*
X250878Y123346D01*
X250911Y123231D01*
X250941Y123116D01*
X250966Y122999D01*
X250988Y122882D01*
X251005Y122763D01*
X251019Y122645D01*
X251029Y122526D01*
X251035Y122406D01*
X251037Y122287D01*
X251037Y120481D01*
X243812Y120481D01*
X260447Y121384D02*
X264511Y121384D01*
X260447Y121384D02*
X260335Y121382D01*
X260224Y121376D01*
X260113Y121366D01*
X260002Y121353D01*
X259892Y121335D01*
X259783Y121313D01*
X259674Y121288D01*
X259566Y121259D01*
X259460Y121226D01*
X259354Y121189D01*
X259250Y121149D01*
X259148Y121105D01*
X259047Y121057D01*
X258948Y121006D01*
X258850Y120951D01*
X258755Y120893D01*
X258662Y120832D01*
X258571Y120767D01*
X258482Y120699D01*
X258396Y120628D01*
X258313Y120555D01*
X258232Y120478D01*
X258153Y120398D01*
X258078Y120316D01*
X258006Y120231D01*
X257936Y120144D01*
X257870Y120054D01*
X257807Y119962D01*
X257747Y119867D01*
X257691Y119771D01*
X257638Y119673D01*
X257589Y119573D01*
X257543Y119471D01*
X257501Y119368D01*
X257462Y119263D01*
X257427Y119157D01*
X257396Y119050D01*
X257369Y118942D01*
X257345Y118833D01*
X257326Y118723D01*
X257310Y118613D01*
X257298Y118502D01*
X257290Y118390D01*
X257286Y118279D01*
X257286Y118167D01*
X257290Y118056D01*
X257298Y117944D01*
X257310Y117833D01*
X257326Y117723D01*
X257345Y117613D01*
X257369Y117504D01*
X257396Y117396D01*
X257427Y117289D01*
X257462Y117183D01*
X257501Y117078D01*
X257543Y116975D01*
X257589Y116873D01*
X257638Y116773D01*
X257691Y116675D01*
X257747Y116579D01*
X257807Y116484D01*
X257870Y116392D01*
X257936Y116302D01*
X258006Y116215D01*
X258078Y116130D01*
X258153Y116048D01*
X258232Y115968D01*
X258313Y115891D01*
X258396Y115818D01*
X258482Y115747D01*
X258571Y115679D01*
X258662Y115614D01*
X258755Y115553D01*
X258850Y115495D01*
X258948Y115440D01*
X259047Y115389D01*
X259148Y115341D01*
X259250Y115297D01*
X259354Y115257D01*
X259460Y115220D01*
X259566Y115187D01*
X259674Y115158D01*
X259783Y115133D01*
X259892Y115111D01*
X260002Y115093D01*
X260113Y115080D01*
X260224Y115070D01*
X260335Y115064D01*
X260447Y115062D01*
X264511Y115062D01*
X264511Y123190D01*
X264509Y123291D01*
X264503Y123392D01*
X264494Y123493D01*
X264481Y123594D01*
X264464Y123694D01*
X264443Y123793D01*
X264419Y123891D01*
X264391Y123988D01*
X264359Y124085D01*
X264324Y124180D01*
X264285Y124273D01*
X264243Y124365D01*
X264197Y124456D01*
X264148Y124545D01*
X264096Y124631D01*
X264040Y124716D01*
X263982Y124799D01*
X263920Y124879D01*
X263855Y124957D01*
X263788Y125033D01*
X263718Y125106D01*
X263645Y125176D01*
X263569Y125243D01*
X263491Y125308D01*
X263411Y125370D01*
X263328Y125428D01*
X263243Y125484D01*
X263157Y125536D01*
X263068Y125585D01*
X262977Y125631D01*
X262885Y125673D01*
X262792Y125712D01*
X262697Y125747D01*
X262600Y125779D01*
X262503Y125807D01*
X262405Y125831D01*
X262306Y125852D01*
X262206Y125869D01*
X262105Y125882D01*
X262004Y125891D01*
X261903Y125897D01*
X261802Y125899D01*
X258189Y125899D01*
X272226Y125899D02*
X272226Y115062D01*
X272226Y125899D02*
X280354Y125899D01*
X280455Y125897D01*
X280556Y125891D01*
X280657Y125882D01*
X280758Y125869D01*
X280858Y125852D01*
X280957Y125831D01*
X281055Y125807D01*
X281152Y125779D01*
X281249Y125747D01*
X281344Y125712D01*
X281437Y125673D01*
X281529Y125631D01*
X281620Y125585D01*
X281709Y125536D01*
X281795Y125484D01*
X281880Y125428D01*
X281963Y125370D01*
X282043Y125308D01*
X282121Y125243D01*
X282197Y125176D01*
X282270Y125106D01*
X282340Y125033D01*
X282407Y124957D01*
X282472Y124879D01*
X282534Y124799D01*
X282592Y124716D01*
X282648Y124631D01*
X282700Y124545D01*
X282749Y124456D01*
X282795Y124365D01*
X282837Y124273D01*
X282876Y124180D01*
X282911Y124085D01*
X282943Y123988D01*
X282971Y123891D01*
X282995Y123793D01*
X283016Y123694D01*
X283033Y123594D01*
X283046Y123493D01*
X283055Y123392D01*
X283061Y123291D01*
X283063Y123190D01*
X283064Y123190D02*
X283064Y115062D01*
X277645Y115062D02*
X277645Y125899D01*
X299182Y131318D02*
X299182Y115062D01*
X299182Y124093D02*
X308213Y124093D01*
X308213Y131318D02*
X308213Y115062D01*
X323809Y121384D02*
X334647Y121384D01*
X353196Y115062D02*
X353196Y131318D01*
X357711Y131318D02*
X348680Y131318D01*
X363131Y122287D02*
X363131Y118674D01*
X363131Y122287D02*
X363133Y122406D01*
X363139Y122526D01*
X363149Y122645D01*
X363163Y122763D01*
X363180Y122882D01*
X363202Y122999D01*
X363227Y123116D01*
X363257Y123231D01*
X363290Y123346D01*
X363327Y123460D01*
X363367Y123572D01*
X363412Y123683D01*
X363460Y123792D01*
X363511Y123900D01*
X363566Y124006D01*
X363625Y124110D01*
X363687Y124212D01*
X363752Y124312D01*
X363821Y124410D01*
X363893Y124506D01*
X363968Y124599D01*
X364045Y124689D01*
X364126Y124777D01*
X364210Y124862D01*
X364297Y124944D01*
X364386Y125024D01*
X364478Y125100D01*
X364572Y125174D01*
X364669Y125244D01*
X364767Y125311D01*
X364868Y125375D01*
X364972Y125435D01*
X365077Y125492D01*
X365184Y125545D01*
X365292Y125595D01*
X365402Y125641D01*
X365514Y125683D01*
X365627Y125722D01*
X365741Y125757D01*
X365856Y125788D01*
X365973Y125816D01*
X366090Y125839D01*
X366207Y125859D01*
X366326Y125875D01*
X366445Y125887D01*
X366564Y125895D01*
X366683Y125899D01*
X366803Y125899D01*
X366922Y125895D01*
X367041Y125887D01*
X367160Y125875D01*
X367279Y125859D01*
X367396Y125839D01*
X367513Y125816D01*
X367630Y125788D01*
X367745Y125757D01*
X367859Y125722D01*
X367972Y125683D01*
X368084Y125641D01*
X368194Y125595D01*
X368302Y125545D01*
X368409Y125492D01*
X368514Y125435D01*
X368618Y125375D01*
X368719Y125311D01*
X368817Y125244D01*
X368914Y125174D01*
X369008Y125100D01*
X369100Y125024D01*
X369189Y124944D01*
X369276Y124862D01*
X369360Y124777D01*
X369441Y124689D01*
X369518Y124599D01*
X369593Y124506D01*
X369665Y124410D01*
X369734Y124312D01*
X369799Y124212D01*
X369861Y124110D01*
X369920Y124006D01*
X369975Y123900D01*
X370026Y123792D01*
X370074Y123683D01*
X370119Y123572D01*
X370159Y123460D01*
X370196Y123346D01*
X370229Y123231D01*
X370259Y123116D01*
X370284Y122999D01*
X370306Y122882D01*
X370323Y122763D01*
X370337Y122645D01*
X370347Y122526D01*
X370353Y122406D01*
X370355Y122287D01*
X370355Y118674D01*
X370353Y118555D01*
X370347Y118435D01*
X370337Y118316D01*
X370323Y118198D01*
X370306Y118079D01*
X370284Y117962D01*
X370259Y117845D01*
X370229Y117730D01*
X370196Y117615D01*
X370159Y117501D01*
X370119Y117389D01*
X370074Y117278D01*
X370026Y117169D01*
X369975Y117061D01*
X369920Y116955D01*
X369861Y116851D01*
X369799Y116749D01*
X369734Y116649D01*
X369665Y116551D01*
X369593Y116455D01*
X369518Y116362D01*
X369441Y116272D01*
X369360Y116184D01*
X369276Y116099D01*
X369189Y116017D01*
X369100Y115937D01*
X369008Y115861D01*
X368914Y115787D01*
X368817Y115717D01*
X368719Y115650D01*
X368618Y115586D01*
X368514Y115526D01*
X368409Y115469D01*
X368302Y115416D01*
X368194Y115366D01*
X368084Y115320D01*
X367972Y115278D01*
X367859Y115239D01*
X367745Y115204D01*
X367630Y115173D01*
X367513Y115145D01*
X367396Y115122D01*
X367279Y115102D01*
X367160Y115086D01*
X367041Y115074D01*
X366922Y115066D01*
X366803Y115062D01*
X366683Y115062D01*
X366564Y115066D01*
X366445Y115074D01*
X366326Y115086D01*
X366207Y115102D01*
X366090Y115122D01*
X365973Y115145D01*
X365856Y115173D01*
X365741Y115204D01*
X365627Y115239D01*
X365514Y115278D01*
X365402Y115320D01*
X365292Y115366D01*
X365184Y115416D01*
X365077Y115469D01*
X364972Y115526D01*
X364868Y115586D01*
X364767Y115650D01*
X364669Y115717D01*
X364572Y115787D01*
X364478Y115861D01*
X364386Y115937D01*
X364297Y116017D01*
X364210Y116099D01*
X364126Y116184D01*
X364045Y116272D01*
X363968Y116362D01*
X363893Y116455D01*
X363821Y116551D01*
X363752Y116649D01*
X363687Y116749D01*
X363625Y116851D01*
X363566Y116955D01*
X363511Y117061D01*
X363460Y117169D01*
X363412Y117278D01*
X363367Y117389D01*
X363327Y117501D01*
X363290Y117615D01*
X363257Y117730D01*
X363227Y117845D01*
X363202Y117962D01*
X363180Y118079D01*
X363163Y118198D01*
X363149Y118316D01*
X363139Y118435D01*
X363133Y118555D01*
X363131Y118674D01*
X377199Y117771D02*
X377199Y125899D01*
X377199Y117771D02*
X377201Y117670D01*
X377207Y117569D01*
X377216Y117468D01*
X377229Y117367D01*
X377246Y117267D01*
X377267Y117168D01*
X377291Y117070D01*
X377319Y116973D01*
X377351Y116876D01*
X377386Y116781D01*
X377425Y116688D01*
X377467Y116596D01*
X377513Y116505D01*
X377562Y116417D01*
X377614Y116330D01*
X377670Y116245D01*
X377728Y116162D01*
X377790Y116082D01*
X377855Y116004D01*
X377922Y115928D01*
X377992Y115855D01*
X378065Y115785D01*
X378141Y115718D01*
X378219Y115653D01*
X378299Y115591D01*
X378382Y115533D01*
X378467Y115477D01*
X378554Y115425D01*
X378642Y115376D01*
X378733Y115330D01*
X378825Y115288D01*
X378918Y115249D01*
X379013Y115214D01*
X379110Y115182D01*
X379207Y115154D01*
X379305Y115130D01*
X379404Y115109D01*
X379504Y115092D01*
X379605Y115079D01*
X379706Y115070D01*
X379807Y115064D01*
X379908Y115062D01*
X384424Y115062D01*
X384424Y125899D01*
X392018Y131318D02*
X392018Y115062D01*
X392018Y131318D02*
X396534Y131318D01*
X396667Y131316D01*
X396799Y131310D01*
X396931Y131300D01*
X397063Y131287D01*
X397195Y131269D01*
X397325Y131248D01*
X397456Y131223D01*
X397585Y131194D01*
X397713Y131161D01*
X397841Y131125D01*
X397967Y131085D01*
X398092Y131041D01*
X398216Y130993D01*
X398338Y130942D01*
X398459Y130887D01*
X398578Y130829D01*
X398696Y130767D01*
X398811Y130702D01*
X398925Y130633D01*
X399036Y130562D01*
X399145Y130486D01*
X399252Y130408D01*
X399357Y130327D01*
X399459Y130242D01*
X399559Y130155D01*
X399656Y130065D01*
X399751Y129972D01*
X399842Y129876D01*
X399931Y129778D01*
X400017Y129677D01*
X400100Y129573D01*
X400180Y129467D01*
X400256Y129359D01*
X400330Y129249D01*
X400400Y129136D01*
X400467Y129022D01*
X400530Y128905D01*
X400590Y128787D01*
X400647Y128667D01*
X400700Y128545D01*
X400749Y128422D01*
X400795Y128298D01*
X400837Y128172D01*
X400875Y128045D01*
X400910Y127917D01*
X400941Y127788D01*
X400968Y127659D01*
X400991Y127528D01*
X401011Y127397D01*
X401026Y127265D01*
X401038Y127133D01*
X401046Y127001D01*
X401050Y126868D01*
X401050Y126736D01*
X401046Y126603D01*
X401038Y126471D01*
X401026Y126339D01*
X401011Y126207D01*
X400991Y126076D01*
X400968Y125945D01*
X400941Y125816D01*
X400910Y125687D01*
X400875Y125559D01*
X400837Y125432D01*
X400795Y125306D01*
X400749Y125182D01*
X400700Y125059D01*
X400647Y124937D01*
X400590Y124817D01*
X400530Y124699D01*
X400467Y124582D01*
X400400Y124468D01*
X400330Y124355D01*
X400256Y124245D01*
X400180Y124137D01*
X400100Y124031D01*
X400017Y123927D01*
X399931Y123826D01*
X399842Y123728D01*
X399751Y123632D01*
X399656Y123539D01*
X399559Y123449D01*
X399459Y123362D01*
X399357Y123277D01*
X399252Y123196D01*
X399145Y123118D01*
X399036Y123042D01*
X398925Y122971D01*
X398811Y122902D01*
X398696Y122837D01*
X398578Y122775D01*
X398459Y122717D01*
X398338Y122662D01*
X398216Y122611D01*
X398092Y122563D01*
X397967Y122519D01*
X397841Y122479D01*
X397713Y122443D01*
X397585Y122410D01*
X397456Y122381D01*
X397325Y122356D01*
X397195Y122335D01*
X397063Y122317D01*
X396931Y122304D01*
X396799Y122294D01*
X396667Y122288D01*
X396534Y122286D01*
X396534Y122287D02*
X392018Y122287D01*
X397437Y122287D02*
X401049Y115062D01*
X408947Y115062D02*
X408947Y131318D01*
X407141Y115062D02*
X410753Y115062D01*
X410753Y131318D02*
X407141Y131318D01*
D11*
X273078Y789582D02*
X269999Y789582D01*
X273078Y789582D02*
X273168Y789584D01*
X273257Y789590D01*
X273346Y789600D01*
X273434Y789613D01*
X273522Y789631D01*
X273609Y789652D01*
X273695Y789677D01*
X273780Y789706D01*
X273864Y789738D01*
X273946Y789774D01*
X274026Y789814D01*
X274104Y789857D01*
X274181Y789904D01*
X274256Y789953D01*
X274328Y790006D01*
X274398Y790062D01*
X274465Y790121D01*
X274530Y790183D01*
X274592Y790248D01*
X274651Y790315D01*
X274707Y790385D01*
X274760Y790457D01*
X274809Y790532D01*
X274856Y790608D01*
X274899Y790687D01*
X274939Y790767D01*
X274975Y790849D01*
X275007Y790933D01*
X275036Y791018D01*
X275061Y791104D01*
X275082Y791191D01*
X275100Y791278D01*
X275113Y791367D01*
X275123Y791456D01*
X275129Y791545D01*
X275131Y791635D01*
X275131Y792661D01*
X275129Y792751D01*
X275123Y792840D01*
X275113Y792929D01*
X275100Y793017D01*
X275082Y793105D01*
X275061Y793192D01*
X275036Y793278D01*
X275007Y793363D01*
X274975Y793447D01*
X274939Y793529D01*
X274899Y793609D01*
X274856Y793688D01*
X274809Y793764D01*
X274760Y793839D01*
X274707Y793911D01*
X274651Y793981D01*
X274592Y794048D01*
X274530Y794113D01*
X274465Y794175D01*
X274398Y794234D01*
X274328Y794290D01*
X274256Y794343D01*
X274181Y794392D01*
X274105Y794439D01*
X274026Y794482D01*
X273946Y794522D01*
X273864Y794558D01*
X273780Y794590D01*
X273695Y794619D01*
X273609Y794644D01*
X273522Y794665D01*
X273434Y794683D01*
X273346Y794696D01*
X273257Y794706D01*
X273168Y794712D01*
X273078Y794714D01*
X269999Y794714D01*
X269999Y798820D01*
X275131Y798820D01*
X278485Y798820D02*
X281565Y789582D01*
X284644Y798820D01*
X243398Y791520D02*
X243396Y791430D01*
X243390Y791341D01*
X243380Y791252D01*
X243367Y791164D01*
X243349Y791076D01*
X243328Y790989D01*
X243303Y790903D01*
X243274Y790818D01*
X243242Y790734D01*
X243206Y790652D01*
X243166Y790572D01*
X243123Y790494D01*
X243076Y790417D01*
X243027Y790342D01*
X242974Y790270D01*
X242918Y790200D01*
X242859Y790133D01*
X242797Y790068D01*
X242732Y790006D01*
X242665Y789947D01*
X242595Y789891D01*
X242523Y789838D01*
X242448Y789789D01*
X242372Y789742D01*
X242293Y789699D01*
X242213Y789659D01*
X242131Y789623D01*
X242047Y789591D01*
X241962Y789562D01*
X241876Y789537D01*
X241789Y789516D01*
X241701Y789498D01*
X241613Y789485D01*
X241524Y789475D01*
X241435Y789469D01*
X241345Y789467D01*
X241218Y789469D01*
X241091Y789474D01*
X240965Y789484D01*
X240839Y789497D01*
X240713Y789513D01*
X240588Y789534D01*
X240463Y789558D01*
X240340Y789585D01*
X240217Y789616D01*
X240095Y789651D01*
X239974Y789689D01*
X239854Y789731D01*
X239736Y789777D01*
X239619Y789825D01*
X239503Y789878D01*
X239389Y789933D01*
X239277Y789992D01*
X239166Y790054D01*
X239057Y790119D01*
X238951Y790188D01*
X238846Y790259D01*
X238743Y790334D01*
X238643Y790412D01*
X238545Y790492D01*
X238449Y790575D01*
X238356Y790661D01*
X238265Y790750D01*
X238522Y796652D02*
X238524Y796742D01*
X238530Y796831D01*
X238540Y796920D01*
X238553Y797009D01*
X238571Y797096D01*
X238592Y797183D01*
X238617Y797269D01*
X238646Y797354D01*
X238678Y797438D01*
X238714Y797520D01*
X238754Y797600D01*
X238797Y797679D01*
X238844Y797755D01*
X238893Y797830D01*
X238946Y797902D01*
X239002Y797972D01*
X239061Y798039D01*
X239123Y798104D01*
X239188Y798166D01*
X239255Y798225D01*
X239325Y798281D01*
X239397Y798334D01*
X239472Y798383D01*
X239549Y798430D01*
X239627Y798473D01*
X239707Y798513D01*
X239789Y798549D01*
X239873Y798581D01*
X239958Y798610D01*
X240044Y798635D01*
X240131Y798656D01*
X240219Y798674D01*
X240307Y798687D01*
X240396Y798697D01*
X240485Y798703D01*
X240575Y798705D01*
X240699Y798703D01*
X240823Y798697D01*
X240946Y798687D01*
X241069Y798673D01*
X241192Y798655D01*
X241313Y798633D01*
X241435Y798608D01*
X241555Y798578D01*
X241674Y798545D01*
X241792Y798507D01*
X241909Y798466D01*
X242024Y798422D01*
X242138Y798373D01*
X242251Y798321D01*
X242361Y798265D01*
X242470Y798206D01*
X242577Y798143D01*
X242682Y798077D01*
X242784Y798008D01*
X242884Y797935D01*
X239548Y794856D02*
X239472Y794903D01*
X239397Y794954D01*
X239325Y795008D01*
X239255Y795065D01*
X239188Y795125D01*
X239123Y795188D01*
X239061Y795253D01*
X239002Y795321D01*
X238946Y795392D01*
X238893Y795465D01*
X238843Y795540D01*
X238797Y795618D01*
X238754Y795697D01*
X238714Y795778D01*
X238678Y795861D01*
X238646Y795945D01*
X238617Y796030D01*
X238592Y796117D01*
X238571Y796205D01*
X238553Y796293D01*
X238540Y796382D01*
X238530Y796472D01*
X238524Y796562D01*
X238522Y796652D01*
X242371Y793316D02*
X242448Y793269D01*
X242523Y793218D01*
X242595Y793164D01*
X242665Y793107D01*
X242732Y793047D01*
X242797Y792984D01*
X242859Y792919D01*
X242918Y792851D01*
X242974Y792780D01*
X243027Y792707D01*
X243077Y792632D01*
X243123Y792554D01*
X243166Y792475D01*
X243206Y792394D01*
X243242Y792311D01*
X243274Y792227D01*
X243303Y792142D01*
X243328Y792055D01*
X243349Y791968D01*
X243367Y791879D01*
X243380Y791790D01*
X243390Y791700D01*
X243396Y791610D01*
X243398Y791520D01*
X242371Y793316D02*
X239549Y794856D01*
X247732Y798705D02*
X247732Y789467D01*
X248758Y789467D02*
X246705Y789467D01*
X246705Y798705D02*
X248758Y798705D01*
X256258Y794599D02*
X257798Y794599D01*
X257798Y789467D01*
X254718Y789467D01*
X254628Y789469D01*
X254539Y789475D01*
X254450Y789485D01*
X254362Y789498D01*
X254274Y789516D01*
X254187Y789537D01*
X254101Y789562D01*
X254016Y789591D01*
X253932Y789623D01*
X253850Y789659D01*
X253770Y789699D01*
X253692Y789742D01*
X253615Y789789D01*
X253540Y789838D01*
X253468Y789891D01*
X253398Y789947D01*
X253331Y790006D01*
X253266Y790068D01*
X253204Y790133D01*
X253145Y790200D01*
X253089Y790270D01*
X253036Y790342D01*
X252987Y790417D01*
X252940Y790494D01*
X252897Y790572D01*
X252857Y790652D01*
X252821Y790734D01*
X252789Y790818D01*
X252760Y790903D01*
X252735Y790989D01*
X252714Y791076D01*
X252696Y791164D01*
X252683Y791252D01*
X252673Y791341D01*
X252667Y791430D01*
X252665Y791520D01*
X252666Y791520D02*
X252666Y796652D01*
X252665Y796652D02*
X252667Y796742D01*
X252673Y796831D01*
X252683Y796920D01*
X252696Y797008D01*
X252714Y797096D01*
X252735Y797183D01*
X252760Y797269D01*
X252789Y797354D01*
X252821Y797438D01*
X252857Y797520D01*
X252897Y797600D01*
X252940Y797678D01*
X252987Y797755D01*
X253036Y797830D01*
X253089Y797902D01*
X253145Y797972D01*
X253204Y798039D01*
X253266Y798104D01*
X253331Y798166D01*
X253398Y798225D01*
X253468Y798281D01*
X253540Y798334D01*
X253615Y798383D01*
X253691Y798430D01*
X253770Y798473D01*
X253850Y798513D01*
X253932Y798549D01*
X254016Y798581D01*
X254101Y798610D01*
X254187Y798635D01*
X254274Y798656D01*
X254361Y798674D01*
X254450Y798687D01*
X254539Y798697D01*
X254628Y798703D01*
X254718Y798705D01*
X257798Y798705D01*
X300507Y794724D02*
X302047Y794724D01*
X302047Y789591D01*
X298967Y789591D01*
X298877Y789593D01*
X298788Y789599D01*
X298699Y789609D01*
X298611Y789622D01*
X298523Y789640D01*
X298436Y789661D01*
X298350Y789686D01*
X298265Y789715D01*
X298181Y789747D01*
X298099Y789783D01*
X298019Y789823D01*
X297941Y789866D01*
X297864Y789913D01*
X297789Y789962D01*
X297717Y790015D01*
X297647Y790071D01*
X297580Y790130D01*
X297515Y790192D01*
X297453Y790257D01*
X297394Y790324D01*
X297338Y790394D01*
X297285Y790466D01*
X297236Y790541D01*
X297189Y790618D01*
X297146Y790696D01*
X297106Y790776D01*
X297070Y790858D01*
X297038Y790942D01*
X297009Y791027D01*
X296984Y791113D01*
X296963Y791200D01*
X296945Y791288D01*
X296932Y791376D01*
X296922Y791465D01*
X296916Y791554D01*
X296914Y791644D01*
X296914Y796777D01*
X296916Y796867D01*
X296922Y796956D01*
X296932Y797045D01*
X296945Y797133D01*
X296963Y797221D01*
X296984Y797308D01*
X297009Y797394D01*
X297038Y797479D01*
X297070Y797563D01*
X297106Y797645D01*
X297146Y797725D01*
X297189Y797803D01*
X297236Y797880D01*
X297285Y797955D01*
X297338Y798027D01*
X297394Y798097D01*
X297453Y798164D01*
X297515Y798229D01*
X297580Y798291D01*
X297647Y798350D01*
X297717Y798406D01*
X297789Y798459D01*
X297864Y798508D01*
X297940Y798555D01*
X298019Y798598D01*
X298099Y798638D01*
X298181Y798674D01*
X298265Y798706D01*
X298350Y798735D01*
X298436Y798760D01*
X298523Y798781D01*
X298610Y798799D01*
X298699Y798812D01*
X298788Y798822D01*
X298877Y798828D01*
X298967Y798830D01*
X298967Y798829D02*
X302047Y798829D01*
X306514Y798829D02*
X306514Y789591D01*
X311647Y789591D02*
X306514Y798829D01*
X311647Y798829D02*
X311647Y789591D01*
X316114Y789591D02*
X316114Y798829D01*
X318680Y798829D01*
X318778Y798827D01*
X318876Y798821D01*
X318974Y798812D01*
X319072Y798799D01*
X319169Y798782D01*
X319265Y798762D01*
X319360Y798737D01*
X319454Y798709D01*
X319547Y798678D01*
X319639Y798643D01*
X319730Y798604D01*
X319819Y798563D01*
X319906Y798517D01*
X319991Y798469D01*
X320075Y798417D01*
X320156Y798362D01*
X320236Y798304D01*
X320313Y798243D01*
X320387Y798179D01*
X320459Y798112D01*
X320529Y798042D01*
X320596Y797970D01*
X320660Y797896D01*
X320721Y797819D01*
X320779Y797739D01*
X320834Y797658D01*
X320886Y797574D01*
X320934Y797489D01*
X320980Y797402D01*
X321021Y797313D01*
X321060Y797222D01*
X321095Y797130D01*
X321126Y797037D01*
X321154Y796943D01*
X321179Y796848D01*
X321199Y796752D01*
X321216Y796655D01*
X321229Y796557D01*
X321238Y796459D01*
X321244Y796361D01*
X321246Y796263D01*
X321247Y796263D02*
X321247Y792158D01*
X321245Y792060D01*
X321239Y791962D01*
X321230Y791864D01*
X321217Y791766D01*
X321200Y791669D01*
X321180Y791573D01*
X321155Y791478D01*
X321127Y791384D01*
X321096Y791291D01*
X321061Y791199D01*
X321022Y791108D01*
X320981Y791019D01*
X320935Y790932D01*
X320887Y790847D01*
X320835Y790763D01*
X320780Y790682D01*
X320722Y790602D01*
X320661Y790525D01*
X320597Y790451D01*
X320530Y790379D01*
X320460Y790309D01*
X320388Y790242D01*
X320314Y790178D01*
X320237Y790117D01*
X320157Y790059D01*
X320076Y790004D01*
X319992Y789952D01*
X319907Y789904D01*
X319820Y789858D01*
X319731Y789817D01*
X319640Y789778D01*
X319548Y789743D01*
X319455Y789712D01*
X319361Y789684D01*
X319266Y789659D01*
X319170Y789639D01*
X319073Y789622D01*
X318975Y789609D01*
X318877Y789600D01*
X318779Y789594D01*
X318681Y789592D01*
X318680Y789591D02*
X316114Y789591D01*
X158263Y794918D02*
X157057Y794918D01*
X158263Y794918D02*
X158263Y790897D01*
X155850Y790897D01*
X155771Y790899D01*
X155692Y790905D01*
X155614Y790914D01*
X155536Y790928D01*
X155459Y790945D01*
X155383Y790966D01*
X155308Y790991D01*
X155235Y791019D01*
X155162Y791051D01*
X155092Y791087D01*
X155023Y791126D01*
X154957Y791168D01*
X154892Y791213D01*
X154830Y791262D01*
X154770Y791314D01*
X154713Y791368D01*
X154659Y791425D01*
X154607Y791485D01*
X154558Y791547D01*
X154513Y791612D01*
X154471Y791678D01*
X154432Y791747D01*
X154396Y791817D01*
X154364Y791890D01*
X154336Y791963D01*
X154311Y792038D01*
X154290Y792114D01*
X154273Y792191D01*
X154259Y792269D01*
X154250Y792347D01*
X154244Y792426D01*
X154242Y792505D01*
X154242Y796526D01*
X154244Y796605D01*
X154250Y796684D01*
X154259Y796762D01*
X154273Y796840D01*
X154290Y796917D01*
X154311Y796993D01*
X154336Y797068D01*
X154364Y797141D01*
X154396Y797214D01*
X154432Y797284D01*
X154471Y797353D01*
X154513Y797419D01*
X154558Y797484D01*
X154607Y797546D01*
X154659Y797606D01*
X154713Y797663D01*
X154770Y797717D01*
X154830Y797769D01*
X154892Y797818D01*
X154957Y797863D01*
X155023Y797905D01*
X155092Y797944D01*
X155162Y797980D01*
X155235Y798012D01*
X155308Y798040D01*
X155383Y798065D01*
X155459Y798086D01*
X155536Y798103D01*
X155614Y798117D01*
X155692Y798126D01*
X155771Y798132D01*
X155850Y798134D01*
X155850Y798135D02*
X158263Y798135D01*
X161922Y798135D02*
X161922Y790897D01*
X165943Y790897D02*
X161922Y798135D01*
X165943Y798135D02*
X165943Y790897D01*
X169602Y790897D02*
X169602Y798135D01*
X171612Y798135D01*
X171700Y798133D01*
X171787Y798127D01*
X171874Y798118D01*
X171961Y798104D01*
X172047Y798087D01*
X172132Y798066D01*
X172217Y798042D01*
X172300Y798014D01*
X172382Y797982D01*
X172462Y797947D01*
X172541Y797908D01*
X172618Y797866D01*
X172693Y797820D01*
X172765Y797771D01*
X172836Y797719D01*
X172905Y797665D01*
X172971Y797607D01*
X173034Y797546D01*
X173095Y797483D01*
X173153Y797417D01*
X173207Y797348D01*
X173259Y797277D01*
X173308Y797205D01*
X173354Y797130D01*
X173396Y797053D01*
X173435Y796974D01*
X173470Y796894D01*
X173502Y796812D01*
X173530Y796729D01*
X173554Y796644D01*
X173575Y796559D01*
X173592Y796473D01*
X173606Y796386D01*
X173615Y796299D01*
X173621Y796212D01*
X173623Y796124D01*
X173623Y792907D01*
X173621Y792819D01*
X173615Y792732D01*
X173606Y792645D01*
X173592Y792558D01*
X173575Y792472D01*
X173554Y792387D01*
X173530Y792302D01*
X173502Y792219D01*
X173470Y792137D01*
X173435Y792057D01*
X173396Y791978D01*
X173354Y791901D01*
X173308Y791826D01*
X173259Y791754D01*
X173207Y791683D01*
X173153Y791614D01*
X173095Y791548D01*
X173034Y791485D01*
X172971Y791424D01*
X172905Y791366D01*
X172836Y791312D01*
X172765Y791260D01*
X172692Y791211D01*
X172617Y791165D01*
X172541Y791123D01*
X172462Y791084D01*
X172382Y791049D01*
X172300Y791017D01*
X172217Y790989D01*
X172132Y790965D01*
X172047Y790944D01*
X171961Y790927D01*
X171874Y790913D01*
X171787Y790904D01*
X171700Y790898D01*
X171612Y790896D01*
X171612Y790897D02*
X169602Y790897D01*
X130788Y798196D02*
X128778Y796587D01*
X130788Y798196D02*
X130788Y790958D01*
X128778Y790958D02*
X132799Y790958D01*
X139999Y796386D02*
X139997Y796470D01*
X139991Y796553D01*
X139982Y796636D01*
X139968Y796719D01*
X139951Y796800D01*
X139930Y796881D01*
X139905Y796961D01*
X139877Y797040D01*
X139845Y797117D01*
X139809Y797193D01*
X139770Y797267D01*
X139728Y797339D01*
X139682Y797409D01*
X139633Y797477D01*
X139581Y797542D01*
X139527Y797605D01*
X139469Y797666D01*
X139408Y797724D01*
X139345Y797778D01*
X139280Y797830D01*
X139212Y797879D01*
X139142Y797925D01*
X139070Y797967D01*
X138996Y798006D01*
X138920Y798042D01*
X138843Y798074D01*
X138764Y798102D01*
X138684Y798127D01*
X138603Y798148D01*
X138522Y798165D01*
X138439Y798179D01*
X138356Y798188D01*
X138273Y798194D01*
X138189Y798196D01*
X138095Y798194D01*
X138001Y798188D01*
X137907Y798179D01*
X137813Y798165D01*
X137721Y798148D01*
X137629Y798127D01*
X137538Y798103D01*
X137448Y798075D01*
X137359Y798043D01*
X137271Y798007D01*
X137186Y797968D01*
X137101Y797926D01*
X137019Y797880D01*
X136938Y797831D01*
X136860Y797779D01*
X136784Y797723D01*
X136710Y797665D01*
X136638Y797603D01*
X136569Y797539D01*
X136503Y797472D01*
X136439Y797402D01*
X136379Y797330D01*
X136321Y797255D01*
X136266Y797178D01*
X136215Y797099D01*
X136167Y797018D01*
X136122Y796935D01*
X136080Y796851D01*
X136042Y796764D01*
X136008Y796676D01*
X135977Y796587D01*
X139396Y794978D02*
X139458Y795040D01*
X139517Y795104D01*
X139573Y795172D01*
X139626Y795241D01*
X139676Y795313D01*
X139723Y795387D01*
X139766Y795463D01*
X139806Y795541D01*
X139842Y795620D01*
X139874Y795701D01*
X139903Y795784D01*
X139929Y795868D01*
X139950Y795952D01*
X139968Y796038D01*
X139981Y796124D01*
X139991Y796211D01*
X139997Y796299D01*
X139999Y796386D01*
X139396Y794979D02*
X135978Y790958D01*
X139999Y790958D01*
X145188Y790958D02*
X142776Y798196D01*
X147601Y798196D02*
X145188Y790958D01*
X123397Y729169D02*
X123397Y721931D01*
X123397Y729169D02*
X125408Y729169D01*
X125496Y729167D01*
X125583Y729161D01*
X125670Y729152D01*
X125757Y729138D01*
X125843Y729121D01*
X125928Y729100D01*
X126013Y729076D01*
X126096Y729048D01*
X126178Y729016D01*
X126258Y728981D01*
X126337Y728942D01*
X126414Y728900D01*
X126489Y728854D01*
X126561Y728805D01*
X126632Y728753D01*
X126701Y728699D01*
X126767Y728641D01*
X126830Y728580D01*
X126891Y728517D01*
X126949Y728451D01*
X127003Y728382D01*
X127055Y728311D01*
X127104Y728239D01*
X127150Y728164D01*
X127192Y728087D01*
X127231Y728008D01*
X127266Y727928D01*
X127298Y727846D01*
X127326Y727763D01*
X127350Y727678D01*
X127371Y727593D01*
X127388Y727507D01*
X127402Y727420D01*
X127411Y727333D01*
X127417Y727246D01*
X127419Y727158D01*
X127418Y727158D02*
X127418Y723941D01*
X127419Y723941D02*
X127417Y723853D01*
X127411Y723766D01*
X127402Y723679D01*
X127388Y723592D01*
X127371Y723506D01*
X127350Y723421D01*
X127326Y723336D01*
X127298Y723253D01*
X127266Y723171D01*
X127231Y723091D01*
X127192Y723012D01*
X127150Y722935D01*
X127104Y722860D01*
X127055Y722788D01*
X127003Y722717D01*
X126949Y722648D01*
X126891Y722582D01*
X126830Y722519D01*
X126767Y722458D01*
X126701Y722400D01*
X126632Y722346D01*
X126561Y722294D01*
X126488Y722245D01*
X126413Y722199D01*
X126337Y722157D01*
X126258Y722118D01*
X126178Y722083D01*
X126096Y722051D01*
X126013Y722023D01*
X125928Y721999D01*
X125843Y721978D01*
X125757Y721961D01*
X125670Y721947D01*
X125583Y721938D01*
X125496Y721932D01*
X125408Y721930D01*
X125408Y721931D02*
X123397Y721931D01*
X130435Y729169D02*
X132848Y725751D01*
X135260Y729169D01*
X132848Y725751D02*
X132848Y721931D01*
X138277Y721931D02*
X138277Y729169D01*
X142298Y721931D01*
X142298Y729169D01*
X147728Y729169D02*
X145315Y721931D01*
X150140Y721931D02*
X147728Y729169D01*
X149537Y723740D02*
X145918Y723740D01*
X153235Y721931D02*
X153235Y729169D01*
X155648Y725147D01*
X158060Y729169D01*
X158060Y721931D01*
X162128Y721931D02*
X162128Y729169D01*
X161324Y721931D02*
X162932Y721931D01*
X162932Y729169D02*
X161324Y729169D01*
X165475Y721931D02*
X170300Y729169D01*
X165475Y729169D02*
X170300Y721931D01*
X173333Y721931D02*
X176550Y721931D01*
X173333Y721931D02*
X173333Y729169D01*
X176550Y729169D01*
X175745Y725952D02*
X173333Y725952D01*
X179573Y729169D02*
X179573Y721931D01*
X182790Y721931D01*
X142046Y713751D02*
X139633Y717169D01*
X142046Y713751D02*
X144458Y717169D01*
X142046Y713751D02*
X142046Y709931D01*
X146833Y709931D02*
X149246Y717169D01*
X151658Y709931D01*
X151055Y711740D02*
X147436Y711740D01*
X155797Y709931D02*
X154189Y717169D01*
X157406Y714756D02*
X155797Y709931D01*
X159014Y709931D02*
X157406Y714756D01*
X160623Y717169D02*
X159014Y709931D01*
X380625Y724260D02*
X380625Y731498D01*
X382636Y731498D01*
X382724Y731496D01*
X382811Y731490D01*
X382898Y731481D01*
X382985Y731467D01*
X383071Y731450D01*
X383156Y731429D01*
X383241Y731405D01*
X383324Y731377D01*
X383406Y731345D01*
X383486Y731310D01*
X383565Y731271D01*
X383642Y731229D01*
X383717Y731183D01*
X383789Y731134D01*
X383860Y731082D01*
X383929Y731028D01*
X383995Y730970D01*
X384058Y730909D01*
X384119Y730846D01*
X384177Y730780D01*
X384231Y730711D01*
X384283Y730640D01*
X384332Y730568D01*
X384378Y730493D01*
X384420Y730416D01*
X384459Y730337D01*
X384494Y730257D01*
X384526Y730175D01*
X384554Y730092D01*
X384578Y730007D01*
X384599Y729922D01*
X384616Y729836D01*
X384630Y729749D01*
X384639Y729662D01*
X384645Y729575D01*
X384647Y729487D01*
X384646Y729487D02*
X384646Y726270D01*
X384647Y726270D02*
X384645Y726182D01*
X384639Y726095D01*
X384630Y726008D01*
X384616Y725921D01*
X384599Y725835D01*
X384578Y725750D01*
X384554Y725665D01*
X384526Y725582D01*
X384494Y725500D01*
X384459Y725420D01*
X384420Y725341D01*
X384378Y725264D01*
X384332Y725189D01*
X384283Y725117D01*
X384231Y725046D01*
X384177Y724977D01*
X384119Y724911D01*
X384058Y724848D01*
X383995Y724787D01*
X383929Y724729D01*
X383860Y724675D01*
X383789Y724623D01*
X383716Y724574D01*
X383641Y724528D01*
X383565Y724486D01*
X383486Y724447D01*
X383406Y724412D01*
X383324Y724380D01*
X383241Y724352D01*
X383156Y724328D01*
X383071Y724307D01*
X382985Y724290D01*
X382898Y724276D01*
X382811Y724267D01*
X382724Y724261D01*
X382636Y724259D01*
X382636Y724260D02*
X380625Y724260D01*
X387663Y731498D02*
X390076Y728080D01*
X392489Y731498D01*
X390076Y728080D02*
X390076Y724260D01*
X395505Y724260D02*
X395505Y731498D01*
X399526Y724260D01*
X399526Y731498D01*
X404956Y731498D02*
X402543Y724260D01*
X407369Y724260D02*
X404956Y731498D01*
X406765Y726069D02*
X403146Y726069D01*
X410463Y724260D02*
X410463Y731498D01*
X412876Y727477D01*
X415289Y731498D01*
X415289Y724260D01*
X419356Y724260D02*
X419356Y731498D01*
X418552Y724260D02*
X420160Y724260D01*
X420160Y731498D02*
X418552Y731498D01*
X422703Y724260D02*
X427529Y731498D01*
X422703Y731498D02*
X427529Y724260D01*
X430561Y724260D02*
X433778Y724260D01*
X430561Y724260D02*
X430561Y731498D01*
X433778Y731498D01*
X432974Y728281D02*
X430561Y728281D01*
X436801Y731498D02*
X436801Y724260D01*
X440018Y724260D01*
X393780Y719498D02*
X393780Y712260D01*
X393780Y719498D02*
X395791Y719498D01*
X395880Y719496D01*
X395969Y719490D01*
X396057Y719480D01*
X396145Y719467D01*
X396232Y719449D01*
X396319Y719428D01*
X396404Y719402D01*
X396488Y719373D01*
X396571Y719341D01*
X396652Y719304D01*
X396732Y719264D01*
X396809Y719221D01*
X396885Y719174D01*
X396959Y719124D01*
X397030Y719071D01*
X397099Y719015D01*
X397165Y718955D01*
X397229Y718893D01*
X397289Y718828D01*
X397347Y718761D01*
X397402Y718691D01*
X397454Y718618D01*
X397502Y718543D01*
X397547Y718467D01*
X397589Y718388D01*
X397627Y718308D01*
X397661Y718226D01*
X397692Y718142D01*
X397719Y718057D01*
X397743Y717972D01*
X397762Y717885D01*
X397778Y717797D01*
X397790Y717709D01*
X397798Y717620D01*
X397802Y717531D01*
X397802Y717443D01*
X397798Y717354D01*
X397790Y717265D01*
X397778Y717177D01*
X397762Y717089D01*
X397743Y717002D01*
X397719Y716917D01*
X397692Y716832D01*
X397661Y716748D01*
X397627Y716666D01*
X397589Y716586D01*
X397547Y716507D01*
X397502Y716431D01*
X397454Y716356D01*
X397402Y716283D01*
X397347Y716213D01*
X397289Y716146D01*
X397229Y716081D01*
X397165Y716019D01*
X397099Y715959D01*
X397030Y715903D01*
X396959Y715850D01*
X396885Y715800D01*
X396809Y715753D01*
X396732Y715710D01*
X396652Y715670D01*
X396571Y715633D01*
X396488Y715601D01*
X396404Y715572D01*
X396319Y715546D01*
X396232Y715525D01*
X396145Y715507D01*
X396057Y715494D01*
X395969Y715484D01*
X395880Y715478D01*
X395791Y715476D01*
X395791Y715477D02*
X393780Y715477D01*
X401194Y712260D02*
X401194Y719498D01*
X400390Y712260D02*
X401998Y712260D01*
X401998Y719498D02*
X400390Y719498D01*
X406474Y719498D02*
X406474Y712260D01*
X408484Y719498D02*
X404463Y719498D01*
X412769Y712260D02*
X414377Y712260D01*
X412769Y712260D02*
X412690Y712262D01*
X412611Y712268D01*
X412533Y712277D01*
X412455Y712291D01*
X412378Y712308D01*
X412302Y712329D01*
X412227Y712354D01*
X412154Y712382D01*
X412081Y712414D01*
X412011Y712450D01*
X411942Y712489D01*
X411876Y712531D01*
X411811Y712576D01*
X411749Y712625D01*
X411689Y712677D01*
X411632Y712731D01*
X411578Y712788D01*
X411526Y712848D01*
X411477Y712910D01*
X411432Y712975D01*
X411390Y713041D01*
X411351Y713110D01*
X411315Y713180D01*
X411283Y713253D01*
X411255Y713326D01*
X411230Y713401D01*
X411209Y713477D01*
X411192Y713554D01*
X411178Y713632D01*
X411169Y713710D01*
X411163Y713789D01*
X411161Y713868D01*
X411160Y713868D02*
X411160Y717889D01*
X411161Y717889D02*
X411163Y717968D01*
X411169Y718047D01*
X411178Y718125D01*
X411192Y718203D01*
X411209Y718280D01*
X411230Y718356D01*
X411255Y718431D01*
X411283Y718504D01*
X411315Y718577D01*
X411351Y718647D01*
X411390Y718716D01*
X411432Y718782D01*
X411477Y718847D01*
X411526Y718909D01*
X411578Y718969D01*
X411632Y719026D01*
X411689Y719080D01*
X411749Y719132D01*
X411811Y719181D01*
X411876Y719226D01*
X411942Y719268D01*
X412011Y719307D01*
X412081Y719343D01*
X412154Y719375D01*
X412227Y719403D01*
X412302Y719428D01*
X412378Y719449D01*
X412455Y719466D01*
X412533Y719480D01*
X412611Y719489D01*
X412690Y719495D01*
X412769Y719497D01*
X412769Y719498D02*
X414377Y719498D01*
X417423Y719498D02*
X417423Y712260D01*
X417423Y716281D02*
X421444Y716281D01*
X421444Y719498D02*
X421444Y712260D01*
X412332Y794820D02*
X411126Y794820D01*
X412332Y794820D02*
X412332Y790799D01*
X409920Y790799D01*
X409841Y790801D01*
X409762Y790807D01*
X409684Y790816D01*
X409606Y790830D01*
X409529Y790847D01*
X409453Y790868D01*
X409378Y790893D01*
X409305Y790921D01*
X409232Y790953D01*
X409162Y790989D01*
X409093Y791028D01*
X409027Y791070D01*
X408962Y791115D01*
X408900Y791164D01*
X408840Y791216D01*
X408783Y791270D01*
X408729Y791327D01*
X408677Y791387D01*
X408628Y791449D01*
X408583Y791514D01*
X408541Y791580D01*
X408502Y791649D01*
X408466Y791719D01*
X408434Y791792D01*
X408406Y791865D01*
X408381Y791940D01*
X408360Y792016D01*
X408343Y792093D01*
X408329Y792171D01*
X408320Y792249D01*
X408314Y792328D01*
X408312Y792407D01*
X408311Y792407D02*
X408311Y796428D01*
X408312Y796428D02*
X408314Y796507D01*
X408320Y796586D01*
X408329Y796664D01*
X408343Y796742D01*
X408360Y796819D01*
X408381Y796895D01*
X408406Y796970D01*
X408434Y797043D01*
X408466Y797116D01*
X408502Y797186D01*
X408541Y797255D01*
X408583Y797321D01*
X408628Y797386D01*
X408677Y797448D01*
X408729Y797508D01*
X408783Y797565D01*
X408840Y797619D01*
X408900Y797671D01*
X408962Y797720D01*
X409027Y797765D01*
X409093Y797807D01*
X409162Y797846D01*
X409232Y797882D01*
X409305Y797914D01*
X409378Y797942D01*
X409453Y797967D01*
X409529Y797988D01*
X409606Y798005D01*
X409684Y798019D01*
X409762Y798028D01*
X409841Y798034D01*
X409920Y798036D01*
X409920Y798037D02*
X412332Y798037D01*
X415991Y798037D02*
X415991Y790799D01*
X420012Y790799D02*
X415991Y798037D01*
X420012Y798037D02*
X420012Y790799D01*
X423671Y790799D02*
X423671Y798037D01*
X425682Y798037D01*
X425770Y798035D01*
X425857Y798029D01*
X425944Y798020D01*
X426031Y798006D01*
X426117Y797989D01*
X426202Y797968D01*
X426287Y797944D01*
X426370Y797916D01*
X426452Y797884D01*
X426532Y797849D01*
X426611Y797810D01*
X426688Y797768D01*
X426763Y797722D01*
X426835Y797673D01*
X426906Y797621D01*
X426975Y797567D01*
X427041Y797509D01*
X427104Y797448D01*
X427165Y797385D01*
X427223Y797319D01*
X427277Y797250D01*
X427329Y797179D01*
X427378Y797107D01*
X427424Y797032D01*
X427466Y796955D01*
X427505Y796876D01*
X427540Y796796D01*
X427572Y796714D01*
X427600Y796631D01*
X427624Y796546D01*
X427645Y796461D01*
X427662Y796375D01*
X427676Y796288D01*
X427685Y796201D01*
X427691Y796114D01*
X427693Y796026D01*
X427692Y796026D02*
X427692Y792809D01*
X427693Y792809D02*
X427691Y792721D01*
X427685Y792634D01*
X427676Y792547D01*
X427662Y792460D01*
X427645Y792374D01*
X427624Y792289D01*
X427600Y792204D01*
X427572Y792121D01*
X427540Y792039D01*
X427505Y791959D01*
X427466Y791880D01*
X427424Y791803D01*
X427378Y791728D01*
X427329Y791656D01*
X427277Y791585D01*
X427223Y791516D01*
X427165Y791450D01*
X427104Y791387D01*
X427041Y791326D01*
X426975Y791268D01*
X426906Y791214D01*
X426835Y791162D01*
X426762Y791113D01*
X426687Y791067D01*
X426611Y791025D01*
X426532Y790986D01*
X426452Y790951D01*
X426370Y790919D01*
X426287Y790891D01*
X426202Y790867D01*
X426117Y790846D01*
X426031Y790829D01*
X425944Y790815D01*
X425857Y790806D01*
X425770Y790800D01*
X425682Y790798D01*
X425682Y790799D02*
X423671Y790799D01*
X384858Y798098D02*
X382847Y796489D01*
X384858Y798098D02*
X384858Y790860D01*
X386868Y790860D02*
X382847Y790860D01*
X392259Y798098D02*
X392343Y798096D01*
X392426Y798090D01*
X392509Y798081D01*
X392592Y798067D01*
X392673Y798050D01*
X392754Y798029D01*
X392834Y798004D01*
X392913Y797976D01*
X392990Y797944D01*
X393066Y797908D01*
X393140Y797869D01*
X393212Y797827D01*
X393282Y797781D01*
X393350Y797732D01*
X393415Y797680D01*
X393478Y797626D01*
X393539Y797568D01*
X393597Y797507D01*
X393651Y797444D01*
X393703Y797379D01*
X393752Y797311D01*
X393798Y797241D01*
X393840Y797169D01*
X393879Y797095D01*
X393915Y797019D01*
X393947Y796942D01*
X393975Y796863D01*
X394000Y796783D01*
X394021Y796702D01*
X394038Y796621D01*
X394052Y796538D01*
X394061Y796455D01*
X394067Y796372D01*
X394069Y796288D01*
X392259Y798098D02*
X392165Y798096D01*
X392071Y798090D01*
X391977Y798081D01*
X391883Y798067D01*
X391791Y798050D01*
X391699Y798029D01*
X391608Y798005D01*
X391518Y797977D01*
X391429Y797945D01*
X391341Y797909D01*
X391256Y797870D01*
X391171Y797828D01*
X391089Y797782D01*
X391008Y797733D01*
X390930Y797681D01*
X390854Y797625D01*
X390780Y797567D01*
X390708Y797505D01*
X390639Y797441D01*
X390573Y797374D01*
X390509Y797304D01*
X390449Y797232D01*
X390391Y797157D01*
X390336Y797080D01*
X390285Y797001D01*
X390237Y796920D01*
X390192Y796837D01*
X390150Y796753D01*
X390112Y796666D01*
X390078Y796578D01*
X390047Y796489D01*
X393466Y794880D02*
X393528Y794942D01*
X393587Y795006D01*
X393643Y795074D01*
X393696Y795143D01*
X393746Y795215D01*
X393793Y795289D01*
X393836Y795365D01*
X393876Y795443D01*
X393912Y795522D01*
X393944Y795603D01*
X393973Y795686D01*
X393999Y795770D01*
X394020Y795854D01*
X394038Y795940D01*
X394051Y796026D01*
X394061Y796113D01*
X394067Y796201D01*
X394069Y796288D01*
X393465Y794881D02*
X390047Y790860D01*
X394068Y790860D01*
X399258Y790860D02*
X396845Y798098D01*
X401670Y798098D02*
X399258Y790860D01*
X145321Y6567D02*
X144114Y6567D01*
X145321Y6567D02*
X145321Y2545D01*
X142908Y2545D01*
X142908Y2546D02*
X142829Y2548D01*
X142750Y2554D01*
X142672Y2563D01*
X142594Y2577D01*
X142517Y2594D01*
X142441Y2615D01*
X142366Y2640D01*
X142293Y2668D01*
X142220Y2700D01*
X142150Y2736D01*
X142081Y2775D01*
X142015Y2817D01*
X141950Y2862D01*
X141888Y2911D01*
X141828Y2963D01*
X141771Y3017D01*
X141717Y3074D01*
X141665Y3134D01*
X141616Y3196D01*
X141571Y3261D01*
X141529Y3327D01*
X141490Y3396D01*
X141454Y3466D01*
X141422Y3539D01*
X141394Y3612D01*
X141369Y3687D01*
X141348Y3763D01*
X141331Y3840D01*
X141317Y3918D01*
X141308Y3996D01*
X141302Y4075D01*
X141300Y4154D01*
X141300Y8175D01*
X141302Y8254D01*
X141308Y8333D01*
X141317Y8411D01*
X141331Y8489D01*
X141348Y8566D01*
X141369Y8642D01*
X141394Y8717D01*
X141422Y8790D01*
X141454Y8863D01*
X141490Y8933D01*
X141529Y9002D01*
X141571Y9068D01*
X141616Y9133D01*
X141665Y9195D01*
X141717Y9255D01*
X141771Y9312D01*
X141828Y9366D01*
X141888Y9418D01*
X141950Y9467D01*
X142015Y9512D01*
X142081Y9554D01*
X142150Y9593D01*
X142220Y9629D01*
X142293Y9661D01*
X142366Y9689D01*
X142441Y9714D01*
X142517Y9735D01*
X142594Y9752D01*
X142672Y9766D01*
X142750Y9775D01*
X142829Y9781D01*
X142908Y9783D01*
X145321Y9783D01*
X148980Y9783D02*
X148980Y2545D01*
X153001Y2545D02*
X148980Y9783D01*
X153001Y9783D02*
X153001Y2545D01*
X156659Y2545D02*
X156659Y9783D01*
X158670Y9783D01*
X158670Y9784D02*
X158758Y9782D01*
X158845Y9776D01*
X158932Y9767D01*
X159019Y9753D01*
X159105Y9736D01*
X159190Y9715D01*
X159275Y9691D01*
X159358Y9663D01*
X159440Y9631D01*
X159520Y9596D01*
X159599Y9557D01*
X159676Y9515D01*
X159751Y9469D01*
X159823Y9420D01*
X159894Y9368D01*
X159963Y9314D01*
X160029Y9256D01*
X160092Y9195D01*
X160153Y9132D01*
X160211Y9066D01*
X160265Y8997D01*
X160317Y8926D01*
X160366Y8854D01*
X160412Y8779D01*
X160454Y8702D01*
X160493Y8623D01*
X160528Y8543D01*
X160560Y8461D01*
X160588Y8378D01*
X160612Y8293D01*
X160633Y8208D01*
X160650Y8122D01*
X160664Y8035D01*
X160673Y7948D01*
X160679Y7861D01*
X160681Y7773D01*
X160681Y4556D01*
X160679Y4468D01*
X160673Y4381D01*
X160664Y4294D01*
X160650Y4207D01*
X160633Y4121D01*
X160612Y4036D01*
X160588Y3951D01*
X160560Y3868D01*
X160528Y3786D01*
X160493Y3706D01*
X160454Y3627D01*
X160412Y3550D01*
X160366Y3475D01*
X160317Y3403D01*
X160265Y3332D01*
X160211Y3263D01*
X160153Y3197D01*
X160092Y3134D01*
X160029Y3073D01*
X159963Y3015D01*
X159894Y2961D01*
X159823Y2909D01*
X159750Y2860D01*
X159675Y2814D01*
X159599Y2772D01*
X159520Y2733D01*
X159440Y2698D01*
X159358Y2666D01*
X159275Y2638D01*
X159190Y2614D01*
X159105Y2593D01*
X159019Y2576D01*
X158932Y2562D01*
X158845Y2553D01*
X158758Y2547D01*
X158670Y2545D01*
X156659Y2545D01*
X168965Y8236D02*
X170976Y9844D01*
X170976Y2606D01*
X172986Y2606D02*
X168965Y2606D01*
X178377Y9845D02*
X178461Y9843D01*
X178544Y9837D01*
X178627Y9828D01*
X178710Y9814D01*
X178791Y9797D01*
X178872Y9776D01*
X178952Y9751D01*
X179031Y9723D01*
X179108Y9691D01*
X179184Y9655D01*
X179258Y9616D01*
X179330Y9574D01*
X179400Y9528D01*
X179468Y9479D01*
X179533Y9427D01*
X179596Y9373D01*
X179657Y9315D01*
X179715Y9254D01*
X179769Y9191D01*
X179821Y9126D01*
X179870Y9058D01*
X179916Y8988D01*
X179958Y8916D01*
X179997Y8842D01*
X180033Y8766D01*
X180065Y8689D01*
X180093Y8610D01*
X180118Y8530D01*
X180139Y8449D01*
X180156Y8368D01*
X180170Y8285D01*
X180179Y8202D01*
X180185Y8119D01*
X180187Y8035D01*
X178377Y9844D02*
X178283Y9842D01*
X178189Y9836D01*
X178095Y9827D01*
X178001Y9813D01*
X177909Y9796D01*
X177817Y9775D01*
X177726Y9751D01*
X177636Y9723D01*
X177547Y9691D01*
X177459Y9655D01*
X177374Y9616D01*
X177289Y9574D01*
X177207Y9528D01*
X177126Y9479D01*
X177048Y9427D01*
X176972Y9371D01*
X176898Y9313D01*
X176826Y9251D01*
X176757Y9187D01*
X176691Y9120D01*
X176627Y9050D01*
X176567Y8978D01*
X176509Y8903D01*
X176454Y8826D01*
X176403Y8747D01*
X176355Y8666D01*
X176310Y8583D01*
X176268Y8499D01*
X176230Y8412D01*
X176196Y8324D01*
X176165Y8235D01*
X179584Y6627D02*
X179646Y6689D01*
X179705Y6753D01*
X179761Y6821D01*
X179814Y6890D01*
X179864Y6962D01*
X179911Y7036D01*
X179954Y7112D01*
X179994Y7190D01*
X180030Y7269D01*
X180062Y7350D01*
X180091Y7433D01*
X180117Y7517D01*
X180138Y7601D01*
X180156Y7687D01*
X180169Y7773D01*
X180179Y7860D01*
X180185Y7948D01*
X180187Y8035D01*
X179583Y6627D02*
X176165Y2606D01*
X180186Y2606D01*
X185376Y2606D02*
X182963Y9844D01*
X187789Y9844D02*
X185376Y2606D01*
D10*
X508000Y640080D02*
X513080Y640080D01*
X510540Y637540D02*
X510540Y642620D01*
X495300Y622300D02*
X495308Y622923D01*
X495331Y623546D01*
X495369Y624169D01*
X495422Y624790D01*
X495491Y625409D01*
X495575Y626027D01*
X495674Y626642D01*
X495788Y627255D01*
X495917Y627865D01*
X496061Y628472D01*
X496220Y629075D01*
X496394Y629673D01*
X496582Y630268D01*
X496785Y630857D01*
X497002Y631441D01*
X497233Y632020D01*
X497479Y632593D01*
X497739Y633160D01*
X498012Y633720D01*
X498299Y634273D01*
X498600Y634820D01*
X498914Y635358D01*
X499241Y635889D01*
X499581Y636411D01*
X499933Y636926D01*
X500299Y637431D01*
X500676Y637927D01*
X501066Y638414D01*
X501467Y638891D01*
X501880Y639358D01*
X502304Y639814D01*
X502739Y640261D01*
X503186Y640696D01*
X503642Y641120D01*
X504109Y641533D01*
X504586Y641934D01*
X505073Y642324D01*
X505569Y642701D01*
X506074Y643067D01*
X506589Y643419D01*
X507111Y643759D01*
X507642Y644086D01*
X508180Y644400D01*
X508727Y644701D01*
X509280Y644988D01*
X509840Y645261D01*
X510407Y645521D01*
X510980Y645767D01*
X511559Y645998D01*
X512143Y646215D01*
X512732Y646418D01*
X513327Y646606D01*
X513925Y646780D01*
X514528Y646939D01*
X515135Y647083D01*
X515745Y647212D01*
X516358Y647326D01*
X516973Y647425D01*
X517591Y647509D01*
X518210Y647578D01*
X518831Y647631D01*
X519454Y647669D01*
X520077Y647692D01*
X520700Y647700D01*
X521323Y647692D01*
X521946Y647669D01*
X522569Y647631D01*
X523190Y647578D01*
X523809Y647509D01*
X524427Y647425D01*
X525042Y647326D01*
X525655Y647212D01*
X526265Y647083D01*
X526872Y646939D01*
X527475Y646780D01*
X528073Y646606D01*
X528668Y646418D01*
X529257Y646215D01*
X529841Y645998D01*
X530420Y645767D01*
X530993Y645521D01*
X531560Y645261D01*
X532120Y644988D01*
X532673Y644701D01*
X533220Y644400D01*
X533758Y644086D01*
X534289Y643759D01*
X534811Y643419D01*
X535326Y643067D01*
X535831Y642701D01*
X536327Y642324D01*
X536814Y641934D01*
X537291Y641533D01*
X537758Y641120D01*
X538214Y640696D01*
X538661Y640261D01*
X539096Y639814D01*
X539520Y639358D01*
X539933Y638891D01*
X540334Y638414D01*
X540724Y637927D01*
X541101Y637431D01*
X541467Y636926D01*
X541819Y636411D01*
X542159Y635889D01*
X542486Y635358D01*
X542800Y634820D01*
X543101Y634273D01*
X543388Y633720D01*
X543661Y633160D01*
X543921Y632593D01*
X544167Y632020D01*
X544398Y631441D01*
X544615Y630857D01*
X544818Y630268D01*
X545006Y629673D01*
X545180Y629075D01*
X545339Y628472D01*
X545483Y627865D01*
X545612Y627255D01*
X545726Y626642D01*
X545825Y626027D01*
X545909Y625409D01*
X545978Y624790D01*
X546031Y624169D01*
X546069Y623546D01*
X546092Y622923D01*
X546100Y622300D01*
X546092Y621677D01*
X546069Y621054D01*
X546031Y620431D01*
X545978Y619810D01*
X545909Y619191D01*
X545825Y618573D01*
X545726Y617958D01*
X545612Y617345D01*
X545483Y616735D01*
X545339Y616128D01*
X545180Y615525D01*
X545006Y614927D01*
X544818Y614332D01*
X544615Y613743D01*
X544398Y613159D01*
X544167Y612580D01*
X543921Y612007D01*
X543661Y611440D01*
X543388Y610880D01*
X543101Y610327D01*
X542800Y609780D01*
X542486Y609242D01*
X542159Y608711D01*
X541819Y608189D01*
X541467Y607674D01*
X541101Y607169D01*
X540724Y606673D01*
X540334Y606186D01*
X539933Y605709D01*
X539520Y605242D01*
X539096Y604786D01*
X538661Y604339D01*
X538214Y603904D01*
X537758Y603480D01*
X537291Y603067D01*
X536814Y602666D01*
X536327Y602276D01*
X535831Y601899D01*
X535326Y601533D01*
X534811Y601181D01*
X534289Y600841D01*
X533758Y600514D01*
X533220Y600200D01*
X532673Y599899D01*
X532120Y599612D01*
X531560Y599339D01*
X530993Y599079D01*
X530420Y598833D01*
X529841Y598602D01*
X529257Y598385D01*
X528668Y598182D01*
X528073Y597994D01*
X527475Y597820D01*
X526872Y597661D01*
X526265Y597517D01*
X525655Y597388D01*
X525042Y597274D01*
X524427Y597175D01*
X523809Y597091D01*
X523190Y597022D01*
X522569Y596969D01*
X521946Y596931D01*
X521323Y596908D01*
X520700Y596900D01*
X520077Y596908D01*
X519454Y596931D01*
X518831Y596969D01*
X518210Y597022D01*
X517591Y597091D01*
X516973Y597175D01*
X516358Y597274D01*
X515745Y597388D01*
X515135Y597517D01*
X514528Y597661D01*
X513925Y597820D01*
X513327Y597994D01*
X512732Y598182D01*
X512143Y598385D01*
X511559Y598602D01*
X510980Y598833D01*
X510407Y599079D01*
X509840Y599339D01*
X509280Y599612D01*
X508727Y599899D01*
X508180Y600200D01*
X507642Y600514D01*
X507111Y600841D01*
X506589Y601181D01*
X506074Y601533D01*
X505569Y601899D01*
X505073Y602276D01*
X504586Y602666D01*
X504109Y603067D01*
X503642Y603480D01*
X503186Y603904D01*
X502739Y604339D01*
X502304Y604786D01*
X501880Y605242D01*
X501467Y605709D01*
X501066Y606186D01*
X500676Y606673D01*
X500299Y607169D01*
X499933Y607674D01*
X499581Y608189D01*
X499241Y608711D01*
X498914Y609242D01*
X498600Y609780D01*
X498299Y610327D01*
X498012Y610880D01*
X497739Y611440D01*
X497479Y612007D01*
X497233Y612580D01*
X497002Y613159D01*
X496785Y613743D01*
X496582Y614332D01*
X496394Y614927D01*
X496220Y615525D01*
X496061Y616128D01*
X495917Y616735D01*
X495788Y617345D01*
X495674Y617958D01*
X495575Y618573D01*
X495491Y619191D01*
X495422Y619810D01*
X495369Y620431D01*
X495331Y621054D01*
X495308Y621677D01*
X495300Y622300D01*
D12*
X549275Y633095D02*
X551815Y633095D01*
X549275Y633095D02*
X549175Y633097D01*
X549076Y633103D01*
X548976Y633113D01*
X548878Y633126D01*
X548779Y633144D01*
X548682Y633165D01*
X548586Y633190D01*
X548490Y633219D01*
X548396Y633252D01*
X548303Y633288D01*
X548212Y633328D01*
X548122Y633372D01*
X548034Y633419D01*
X547948Y633469D01*
X547864Y633523D01*
X547782Y633580D01*
X547703Y633640D01*
X547625Y633704D01*
X547551Y633770D01*
X547479Y633839D01*
X547410Y633911D01*
X547344Y633985D01*
X547280Y634063D01*
X547220Y634142D01*
X547163Y634224D01*
X547109Y634308D01*
X547059Y634394D01*
X547012Y634482D01*
X546968Y634572D01*
X546928Y634663D01*
X546892Y634756D01*
X546859Y634850D01*
X546830Y634946D01*
X546805Y635042D01*
X546784Y635139D01*
X546766Y635238D01*
X546753Y635336D01*
X546743Y635436D01*
X546737Y635535D01*
X546735Y635635D01*
X546735Y641985D01*
X546737Y642085D01*
X546743Y642184D01*
X546753Y642284D01*
X546766Y642382D01*
X546784Y642481D01*
X546805Y642578D01*
X546830Y642674D01*
X546859Y642770D01*
X546892Y642864D01*
X546928Y642957D01*
X546968Y643048D01*
X547012Y643138D01*
X547059Y643226D01*
X547109Y643312D01*
X547163Y643396D01*
X547220Y643478D01*
X547280Y643557D01*
X547344Y643635D01*
X547410Y643709D01*
X547479Y643781D01*
X547551Y643850D01*
X547625Y643916D01*
X547703Y643980D01*
X547782Y644040D01*
X547864Y644097D01*
X547948Y644151D01*
X548034Y644201D01*
X548122Y644248D01*
X548212Y644292D01*
X548303Y644332D01*
X548396Y644368D01*
X548490Y644401D01*
X548586Y644430D01*
X548682Y644455D01*
X548779Y644476D01*
X548878Y644494D01*
X548976Y644507D01*
X549076Y644517D01*
X549175Y644523D01*
X549275Y644525D01*
X551815Y644525D01*
X556297Y641985D02*
X559472Y644525D01*
X559472Y633095D01*
X556297Y633095D02*
X562647Y633095D01*
D10*
X542290Y777240D02*
X499110Y777240D01*
X499110Y746760D02*
X542290Y746760D01*
X544830Y749300D02*
X544830Y774700D01*
X496570Y774700D02*
X496570Y749300D01*
X542290Y777240D02*
X542390Y777238D01*
X542489Y777232D01*
X542589Y777222D01*
X542687Y777209D01*
X542786Y777191D01*
X542883Y777170D01*
X542979Y777145D01*
X543075Y777116D01*
X543169Y777083D01*
X543262Y777047D01*
X543353Y777007D01*
X543443Y776963D01*
X543531Y776916D01*
X543617Y776866D01*
X543701Y776812D01*
X543783Y776755D01*
X543862Y776695D01*
X543940Y776631D01*
X544014Y776565D01*
X544086Y776496D01*
X544155Y776424D01*
X544221Y776350D01*
X544285Y776272D01*
X544345Y776193D01*
X544402Y776111D01*
X544456Y776027D01*
X544506Y775941D01*
X544553Y775853D01*
X544597Y775763D01*
X544637Y775672D01*
X544673Y775579D01*
X544706Y775485D01*
X544735Y775389D01*
X544760Y775293D01*
X544781Y775196D01*
X544799Y775097D01*
X544812Y774999D01*
X544822Y774899D01*
X544828Y774800D01*
X544830Y774700D01*
X499110Y777240D02*
X499010Y777238D01*
X498911Y777232D01*
X498811Y777222D01*
X498713Y777209D01*
X498614Y777191D01*
X498517Y777170D01*
X498421Y777145D01*
X498325Y777116D01*
X498231Y777083D01*
X498138Y777047D01*
X498047Y777007D01*
X497957Y776963D01*
X497869Y776916D01*
X497783Y776866D01*
X497699Y776812D01*
X497617Y776755D01*
X497538Y776695D01*
X497460Y776631D01*
X497386Y776565D01*
X497314Y776496D01*
X497245Y776424D01*
X497179Y776350D01*
X497115Y776272D01*
X497055Y776193D01*
X496998Y776111D01*
X496944Y776027D01*
X496894Y775941D01*
X496847Y775853D01*
X496803Y775763D01*
X496763Y775672D01*
X496727Y775579D01*
X496694Y775485D01*
X496665Y775389D01*
X496640Y775293D01*
X496619Y775196D01*
X496601Y775097D01*
X496588Y774999D01*
X496578Y774899D01*
X496572Y774800D01*
X496570Y774700D01*
X542290Y746760D02*
X542390Y746762D01*
X542489Y746768D01*
X542589Y746778D01*
X542687Y746791D01*
X542786Y746809D01*
X542883Y746830D01*
X542979Y746855D01*
X543075Y746884D01*
X543169Y746917D01*
X543262Y746953D01*
X543353Y746993D01*
X543443Y747037D01*
X543531Y747084D01*
X543617Y747134D01*
X543701Y747188D01*
X543783Y747245D01*
X543862Y747305D01*
X543940Y747369D01*
X544014Y747435D01*
X544086Y747504D01*
X544155Y747576D01*
X544221Y747650D01*
X544285Y747728D01*
X544345Y747807D01*
X544402Y747889D01*
X544456Y747973D01*
X544506Y748059D01*
X544553Y748147D01*
X544597Y748237D01*
X544637Y748328D01*
X544673Y748421D01*
X544706Y748515D01*
X544735Y748611D01*
X544760Y748707D01*
X544781Y748804D01*
X544799Y748903D01*
X544812Y749001D01*
X544822Y749101D01*
X544828Y749200D01*
X544830Y749300D01*
X499110Y746760D02*
X499010Y746762D01*
X498911Y746768D01*
X498811Y746778D01*
X498713Y746791D01*
X498614Y746809D01*
X498517Y746830D01*
X498421Y746855D01*
X498325Y746884D01*
X498231Y746917D01*
X498138Y746953D01*
X498047Y746993D01*
X497957Y747037D01*
X497869Y747084D01*
X497783Y747134D01*
X497699Y747188D01*
X497617Y747245D01*
X497538Y747305D01*
X497460Y747369D01*
X497386Y747435D01*
X497314Y747504D01*
X497245Y747576D01*
X497179Y747650D01*
X497115Y747728D01*
X497055Y747807D01*
X496998Y747889D01*
X496944Y747973D01*
X496894Y748059D01*
X496847Y748147D01*
X496803Y748237D01*
X496763Y748328D01*
X496727Y748421D01*
X496694Y748515D01*
X496665Y748611D01*
X496640Y748707D01*
X496619Y748804D01*
X496601Y748903D01*
X496588Y749001D01*
X496578Y749101D01*
X496572Y749200D01*
X496570Y749300D01*
X523240Y762000D02*
X524510Y762000D01*
D13*
X523240Y762000D02*
X523240Y769620D01*
X523240Y762000D02*
X523240Y754380D01*
X518160Y762000D02*
X518160Y769620D01*
X518160Y762000D02*
X518160Y754380D01*
D10*
X518160Y762000D02*
X516890Y762000D01*
D12*
X555356Y751213D02*
X557896Y751213D01*
X555356Y751213D02*
X555256Y751215D01*
X555157Y751221D01*
X555057Y751231D01*
X554959Y751244D01*
X554860Y751262D01*
X554763Y751283D01*
X554667Y751308D01*
X554571Y751337D01*
X554477Y751370D01*
X554384Y751406D01*
X554293Y751446D01*
X554203Y751490D01*
X554115Y751537D01*
X554029Y751587D01*
X553945Y751641D01*
X553863Y751698D01*
X553784Y751758D01*
X553706Y751822D01*
X553632Y751888D01*
X553560Y751957D01*
X553491Y752029D01*
X553425Y752103D01*
X553361Y752181D01*
X553301Y752260D01*
X553244Y752342D01*
X553190Y752426D01*
X553140Y752512D01*
X553093Y752600D01*
X553049Y752690D01*
X553009Y752781D01*
X552973Y752874D01*
X552940Y752968D01*
X552911Y753064D01*
X552886Y753160D01*
X552865Y753257D01*
X552847Y753356D01*
X552834Y753454D01*
X552824Y753554D01*
X552818Y753653D01*
X552816Y753753D01*
X552816Y760103D01*
X552818Y760203D01*
X552824Y760302D01*
X552834Y760402D01*
X552847Y760500D01*
X552865Y760599D01*
X552886Y760696D01*
X552911Y760792D01*
X552940Y760888D01*
X552973Y760982D01*
X553009Y761075D01*
X553049Y761166D01*
X553093Y761256D01*
X553140Y761344D01*
X553190Y761430D01*
X553244Y761514D01*
X553301Y761596D01*
X553361Y761675D01*
X553425Y761753D01*
X553491Y761827D01*
X553560Y761899D01*
X553632Y761968D01*
X553706Y762034D01*
X553784Y762098D01*
X553863Y762158D01*
X553945Y762215D01*
X554029Y762269D01*
X554115Y762319D01*
X554203Y762366D01*
X554293Y762410D01*
X554384Y762450D01*
X554477Y762486D01*
X554571Y762519D01*
X554667Y762548D01*
X554763Y762573D01*
X554860Y762594D01*
X554959Y762612D01*
X555057Y762625D01*
X555157Y762635D01*
X555256Y762641D01*
X555356Y762643D01*
X557896Y762643D01*
X562379Y751213D02*
X565554Y751213D01*
X565665Y751215D01*
X565775Y751221D01*
X565886Y751230D01*
X565996Y751244D01*
X566105Y751261D01*
X566214Y751282D01*
X566322Y751307D01*
X566429Y751336D01*
X566535Y751368D01*
X566640Y751404D01*
X566743Y751444D01*
X566845Y751487D01*
X566946Y751534D01*
X567045Y751585D01*
X567142Y751638D01*
X567236Y751695D01*
X567329Y751756D01*
X567420Y751819D01*
X567509Y751886D01*
X567595Y751956D01*
X567678Y752029D01*
X567760Y752104D01*
X567838Y752182D01*
X567913Y752264D01*
X567986Y752347D01*
X568056Y752433D01*
X568123Y752522D01*
X568186Y752613D01*
X568247Y752706D01*
X568304Y752801D01*
X568357Y752897D01*
X568408Y752996D01*
X568455Y753097D01*
X568498Y753199D01*
X568538Y753302D01*
X568574Y753407D01*
X568606Y753513D01*
X568635Y753620D01*
X568660Y753728D01*
X568681Y753837D01*
X568698Y753946D01*
X568712Y754056D01*
X568721Y754167D01*
X568727Y754277D01*
X568729Y754388D01*
X568727Y754499D01*
X568721Y754609D01*
X568712Y754720D01*
X568698Y754830D01*
X568681Y754939D01*
X568660Y755048D01*
X568635Y755156D01*
X568606Y755263D01*
X568574Y755369D01*
X568538Y755474D01*
X568498Y755577D01*
X568455Y755679D01*
X568408Y755780D01*
X568357Y755879D01*
X568304Y755975D01*
X568247Y756070D01*
X568186Y756163D01*
X568123Y756254D01*
X568056Y756343D01*
X567986Y756429D01*
X567913Y756512D01*
X567838Y756594D01*
X567760Y756672D01*
X567678Y756747D01*
X567595Y756820D01*
X567509Y756890D01*
X567420Y756957D01*
X567329Y757020D01*
X567236Y757081D01*
X567142Y757138D01*
X567045Y757191D01*
X566946Y757242D01*
X566845Y757289D01*
X566743Y757332D01*
X566640Y757372D01*
X566535Y757408D01*
X566429Y757440D01*
X566322Y757469D01*
X566214Y757494D01*
X566105Y757515D01*
X565996Y757532D01*
X565886Y757546D01*
X565775Y757555D01*
X565665Y757561D01*
X565554Y757563D01*
X566189Y762643D02*
X562379Y762643D01*
X566189Y762643D02*
X566289Y762641D01*
X566388Y762635D01*
X566488Y762625D01*
X566586Y762612D01*
X566685Y762594D01*
X566782Y762573D01*
X566878Y762548D01*
X566974Y762519D01*
X567068Y762486D01*
X567161Y762450D01*
X567252Y762410D01*
X567342Y762366D01*
X567430Y762319D01*
X567516Y762269D01*
X567600Y762215D01*
X567682Y762158D01*
X567761Y762098D01*
X567839Y762034D01*
X567913Y761968D01*
X567985Y761899D01*
X568054Y761827D01*
X568120Y761753D01*
X568184Y761675D01*
X568244Y761596D01*
X568301Y761514D01*
X568355Y761430D01*
X568405Y761344D01*
X568452Y761256D01*
X568496Y761166D01*
X568536Y761075D01*
X568572Y760982D01*
X568605Y760888D01*
X568634Y760792D01*
X568659Y760696D01*
X568680Y760599D01*
X568698Y760500D01*
X568711Y760402D01*
X568721Y760302D01*
X568727Y760203D01*
X568729Y760103D01*
X568727Y760003D01*
X568721Y759904D01*
X568711Y759804D01*
X568698Y759706D01*
X568680Y759607D01*
X568659Y759510D01*
X568634Y759414D01*
X568605Y759318D01*
X568572Y759224D01*
X568536Y759131D01*
X568496Y759040D01*
X568452Y758950D01*
X568405Y758862D01*
X568355Y758776D01*
X568301Y758692D01*
X568244Y758610D01*
X568184Y758531D01*
X568120Y758453D01*
X568054Y758379D01*
X567985Y758307D01*
X567913Y758238D01*
X567839Y758172D01*
X567761Y758108D01*
X567682Y758048D01*
X567600Y757991D01*
X567516Y757937D01*
X567430Y757887D01*
X567342Y757840D01*
X567252Y757796D01*
X567161Y757756D01*
X567068Y757720D01*
X566974Y757687D01*
X566878Y757658D01*
X566782Y757633D01*
X566685Y757612D01*
X566586Y757594D01*
X566488Y757581D01*
X566388Y757571D01*
X566289Y757565D01*
X566189Y757563D01*
X563649Y757563D01*
D10*
X533400Y393700D02*
X520700Y393700D01*
X533400Y393700D02*
X546100Y399542D01*
X546100Y387858D01*
X533400Y393700D01*
X558800Y393700D01*
X533400Y393700D02*
X533400Y387858D01*
X482600Y367030D02*
X482600Y420370D01*
X584200Y420370D02*
X584200Y367030D01*
X584200Y420370D02*
X482600Y420370D01*
X482600Y367030D02*
X584200Y367030D01*
X537210Y387858D02*
X533400Y387858D01*
X533400Y399542D02*
X529590Y399542D01*
X533400Y399542D02*
X533400Y393700D01*
D14*
X478155Y393700D03*
X588645Y393700D03*
D15*
X495300Y393700D03*
D12*
X483235Y423545D02*
X483235Y434975D01*
X486410Y434975D01*
X486521Y434973D01*
X486631Y434967D01*
X486742Y434958D01*
X486852Y434944D01*
X486961Y434927D01*
X487070Y434906D01*
X487178Y434881D01*
X487285Y434852D01*
X487391Y434820D01*
X487496Y434784D01*
X487599Y434744D01*
X487701Y434701D01*
X487802Y434654D01*
X487901Y434603D01*
X487998Y434550D01*
X488092Y434493D01*
X488185Y434432D01*
X488276Y434369D01*
X488365Y434302D01*
X488451Y434232D01*
X488534Y434159D01*
X488616Y434084D01*
X488694Y434006D01*
X488769Y433924D01*
X488842Y433841D01*
X488912Y433755D01*
X488979Y433666D01*
X489042Y433575D01*
X489103Y433482D01*
X489160Y433388D01*
X489213Y433291D01*
X489264Y433192D01*
X489311Y433091D01*
X489354Y432989D01*
X489394Y432886D01*
X489430Y432781D01*
X489462Y432675D01*
X489491Y432568D01*
X489516Y432460D01*
X489537Y432351D01*
X489554Y432242D01*
X489568Y432132D01*
X489577Y432021D01*
X489583Y431911D01*
X489585Y431800D01*
X489585Y426720D01*
X489583Y426609D01*
X489577Y426499D01*
X489568Y426388D01*
X489554Y426278D01*
X489537Y426169D01*
X489516Y426060D01*
X489491Y425952D01*
X489462Y425845D01*
X489430Y425739D01*
X489394Y425634D01*
X489354Y425531D01*
X489311Y425429D01*
X489264Y425328D01*
X489213Y425229D01*
X489160Y425132D01*
X489103Y425038D01*
X489042Y424945D01*
X488979Y424854D01*
X488912Y424765D01*
X488842Y424679D01*
X488769Y424596D01*
X488694Y424514D01*
X488616Y424436D01*
X488534Y424361D01*
X488451Y424288D01*
X488365Y424218D01*
X488276Y424151D01*
X488185Y424088D01*
X488092Y424027D01*
X487998Y423970D01*
X487901Y423917D01*
X487802Y423866D01*
X487701Y423819D01*
X487599Y423776D01*
X487496Y423736D01*
X487391Y423700D01*
X487285Y423668D01*
X487178Y423639D01*
X487070Y423614D01*
X486961Y423593D01*
X486852Y423576D01*
X486742Y423562D01*
X486631Y423553D01*
X486521Y423547D01*
X486410Y423545D01*
X483235Y423545D01*
X495046Y432435D02*
X498221Y434975D01*
X498221Y423545D01*
X495046Y423545D02*
X501396Y423545D01*
D10*
X488950Y694690D02*
X488952Y694790D01*
X488958Y694889D01*
X488968Y694989D01*
X488981Y695087D01*
X488999Y695186D01*
X489020Y695283D01*
X489045Y695379D01*
X489074Y695475D01*
X489107Y695569D01*
X489143Y695662D01*
X489183Y695753D01*
X489227Y695843D01*
X489274Y695931D01*
X489324Y696017D01*
X489378Y696101D01*
X489435Y696183D01*
X489495Y696262D01*
X489559Y696340D01*
X489625Y696414D01*
X489694Y696486D01*
X489766Y696555D01*
X489840Y696621D01*
X489918Y696685D01*
X489997Y696745D01*
X490079Y696802D01*
X490163Y696856D01*
X490249Y696906D01*
X490337Y696953D01*
X490427Y696997D01*
X490518Y697037D01*
X490611Y697073D01*
X490705Y697106D01*
X490801Y697135D01*
X490897Y697160D01*
X490994Y697181D01*
X491093Y697199D01*
X491191Y697212D01*
X491291Y697222D01*
X491390Y697228D01*
X491490Y697230D01*
X488950Y676910D02*
X488952Y676810D01*
X488958Y676711D01*
X488968Y676611D01*
X488981Y676513D01*
X488999Y676414D01*
X489020Y676317D01*
X489045Y676221D01*
X489074Y676125D01*
X489107Y676031D01*
X489143Y675938D01*
X489183Y675847D01*
X489227Y675757D01*
X489274Y675669D01*
X489324Y675583D01*
X489378Y675499D01*
X489435Y675417D01*
X489495Y675338D01*
X489559Y675260D01*
X489625Y675186D01*
X489694Y675114D01*
X489766Y675045D01*
X489840Y674979D01*
X489918Y674915D01*
X489997Y674855D01*
X490079Y674798D01*
X490163Y674744D01*
X490249Y674694D01*
X490337Y674647D01*
X490427Y674603D01*
X490518Y674563D01*
X490611Y674527D01*
X490705Y674494D01*
X490801Y674465D01*
X490897Y674440D01*
X490994Y674419D01*
X491093Y674401D01*
X491191Y674388D01*
X491291Y674378D01*
X491390Y674372D01*
X491490Y674370D01*
X549910Y674370D02*
X550010Y674372D01*
X550109Y674378D01*
X550209Y674388D01*
X550307Y674401D01*
X550406Y674419D01*
X550503Y674440D01*
X550599Y674465D01*
X550695Y674494D01*
X550789Y674527D01*
X550882Y674563D01*
X550973Y674603D01*
X551063Y674647D01*
X551151Y674694D01*
X551237Y674744D01*
X551321Y674798D01*
X551403Y674855D01*
X551482Y674915D01*
X551560Y674979D01*
X551634Y675045D01*
X551706Y675114D01*
X551775Y675186D01*
X551841Y675260D01*
X551905Y675338D01*
X551965Y675417D01*
X552022Y675499D01*
X552076Y675583D01*
X552126Y675669D01*
X552173Y675757D01*
X552217Y675847D01*
X552257Y675938D01*
X552293Y676031D01*
X552326Y676125D01*
X552355Y676221D01*
X552380Y676317D01*
X552401Y676414D01*
X552419Y676513D01*
X552432Y676611D01*
X552442Y676711D01*
X552448Y676810D01*
X552450Y676910D01*
X552450Y694690D02*
X552448Y694790D01*
X552442Y694889D01*
X552432Y694989D01*
X552419Y695087D01*
X552401Y695186D01*
X552380Y695283D01*
X552355Y695379D01*
X552326Y695475D01*
X552293Y695569D01*
X552257Y695662D01*
X552217Y695753D01*
X552173Y695843D01*
X552126Y695931D01*
X552076Y696017D01*
X552022Y696101D01*
X551965Y696183D01*
X551905Y696262D01*
X551841Y696340D01*
X551775Y696414D01*
X551706Y696486D01*
X551634Y696555D01*
X551560Y696621D01*
X551482Y696685D01*
X551403Y696745D01*
X551321Y696802D01*
X551237Y696856D01*
X551151Y696906D01*
X551063Y696953D01*
X550973Y696997D01*
X550882Y697037D01*
X550789Y697073D01*
X550695Y697106D01*
X550599Y697135D01*
X550503Y697160D01*
X550406Y697181D01*
X550307Y697199D01*
X550209Y697212D01*
X550109Y697222D01*
X550010Y697228D01*
X549910Y697230D01*
X495300Y697230D02*
X491490Y697230D01*
X495300Y697230D02*
X496570Y695960D01*
X495300Y674370D02*
X491490Y674370D01*
X495300Y674370D02*
X496570Y675640D01*
X544830Y695960D02*
X546100Y697230D01*
X544830Y695960D02*
X496570Y695960D01*
X544830Y675640D02*
X546100Y674370D01*
X544830Y675640D02*
X496570Y675640D01*
X546100Y697230D02*
X549910Y697230D01*
X549910Y674370D02*
X546100Y674370D01*
D12*
X495935Y700405D02*
X495935Y711835D01*
X495935Y700405D02*
X501015Y700405D01*
X505435Y709295D02*
X508610Y711835D01*
X508610Y700405D01*
X505435Y700405D02*
X511785Y700405D01*
D16*
X114300Y234950D02*
X114300Y196850D01*
D13*
X113826Y196234D01*
X113337Y195629D01*
X112833Y195037D01*
X112315Y194457D01*
X111783Y193890D01*
X111237Y193336D01*
X110678Y192796D01*
X110105Y192270D01*
X109520Y191757D01*
X108923Y191260D01*
X108314Y190777D01*
X107693Y190309D01*
X107060Y189856D01*
X106417Y189419D01*
X105763Y188998D01*
X105099Y188594D01*
X104426Y188205D01*
X103743Y187833D01*
X103051Y187478D01*
X102351Y187140D01*
X101643Y186819D01*
X100927Y186516D01*
X100203Y186230D01*
X99474Y185962D01*
X98737Y185712D01*
X97995Y185481D01*
X97247Y185267D01*
X96495Y185072D01*
X95737Y184895D01*
X94976Y184737D01*
X94211Y184597D01*
X93443Y184477D01*
X92672Y184375D01*
X91899Y184292D01*
X91124Y184228D01*
X90348Y184183D01*
X89571Y184157D01*
X88793Y184150D01*
X88016Y184162D01*
X87239Y184193D01*
X86463Y184244D01*
X85688Y184313D01*
X84916Y184401D01*
X84146Y184508D01*
X83378Y184634D01*
X82614Y184778D01*
X81854Y184942D01*
X81098Y185124D01*
X80347Y185324D01*
X79600Y185542D01*
X78860Y185779D01*
X78125Y186034D01*
X77397Y186307D01*
X76676Y186598D01*
X75962Y186906D01*
X75256Y187231D01*
X74558Y187574D01*
X73868Y187934D01*
X73188Y188310D01*
X72517Y188703D01*
X71856Y189113D01*
X71205Y189538D01*
X70565Y189979D01*
X69936Y190436D01*
X69318Y190908D01*
X68712Y191395D01*
X68118Y191897D01*
X67536Y192413D01*
X66967Y192943D01*
X66412Y193487D01*
X65869Y194045D01*
X65341Y194615D01*
X64827Y195198D01*
X64327Y195794D01*
X63842Y196402D01*
X63372Y197021D01*
X62918Y197652D01*
X62479Y198294D01*
X62055Y198946D01*
X61648Y199609D01*
X61257Y200281D01*
X60883Y200963D01*
X60526Y201653D01*
X60186Y202352D01*
X59862Y203060D01*
X59557Y203774D01*
X59268Y204497D01*
X58998Y205226D01*
X58746Y205961D01*
X58511Y206703D01*
X58295Y207450D01*
X58097Y208202D01*
X57918Y208958D01*
X57757Y209719D01*
X57615Y210483D01*
X57492Y211251D01*
X57388Y212022D01*
X57302Y212795D01*
X57236Y213569D01*
X57188Y214345D01*
X57160Y215122D01*
X57150Y215900D01*
X57160Y216678D01*
X57188Y217455D01*
X57236Y218231D01*
X57302Y219005D01*
X57388Y219778D01*
X57492Y220549D01*
X57615Y221317D01*
X57757Y222081D01*
X57918Y222842D01*
X58097Y223598D01*
X58295Y224350D01*
X58511Y225097D01*
X58746Y225839D01*
X58998Y226574D01*
X59268Y227303D01*
X59557Y228026D01*
X59862Y228740D01*
X60186Y229448D01*
X60526Y230147D01*
X60883Y230837D01*
X61257Y231519D01*
X61648Y232191D01*
X62055Y232854D01*
X62479Y233506D01*
X62918Y234148D01*
X63372Y234779D01*
X63842Y235398D01*
X64327Y236006D01*
X64827Y236602D01*
X65341Y237185D01*
X65869Y237755D01*
X66412Y238313D01*
X66967Y238857D01*
X67536Y239387D01*
X68118Y239903D01*
X68712Y240405D01*
X69318Y240892D01*
X69936Y241364D01*
X70565Y241821D01*
X71205Y242262D01*
X71856Y242687D01*
X72517Y243097D01*
X73188Y243490D01*
X73868Y243866D01*
X74558Y244226D01*
X75256Y244569D01*
X75962Y244894D01*
X76676Y245202D01*
X77397Y245493D01*
X78125Y245766D01*
X78860Y246021D01*
X79600Y246258D01*
X80347Y246476D01*
X81098Y246676D01*
X81854Y246858D01*
X82614Y247022D01*
X83378Y247166D01*
X84146Y247292D01*
X84916Y247399D01*
X85688Y247487D01*
X86463Y247556D01*
X87239Y247607D01*
X88016Y247638D01*
X88793Y247650D01*
X89571Y247643D01*
X90348Y247617D01*
X91124Y247572D01*
X91899Y247508D01*
X92672Y247425D01*
X93443Y247323D01*
X94211Y247203D01*
X94976Y247063D01*
X95737Y246905D01*
X96495Y246728D01*
X97247Y246533D01*
X97995Y246319D01*
X98737Y246088D01*
X99474Y245838D01*
X100203Y245570D01*
X100927Y245284D01*
X101643Y244981D01*
X102351Y244660D01*
X103051Y244322D01*
X103743Y243967D01*
X104426Y243595D01*
X105099Y243206D01*
X105763Y242802D01*
X106417Y242381D01*
X107060Y241944D01*
X107693Y241491D01*
X108314Y241023D01*
X108923Y240540D01*
X109520Y240043D01*
X110105Y239530D01*
X110678Y239004D01*
X111237Y238464D01*
X111783Y237910D01*
X112315Y237343D01*
X112833Y236763D01*
X113337Y236171D01*
X113826Y235566D01*
X114300Y234950D01*
D10*
X63500Y215900D02*
X63508Y216523D01*
X63531Y217146D01*
X63569Y217769D01*
X63622Y218390D01*
X63691Y219009D01*
X63775Y219627D01*
X63874Y220242D01*
X63988Y220855D01*
X64117Y221465D01*
X64261Y222072D01*
X64420Y222675D01*
X64594Y223273D01*
X64782Y223868D01*
X64985Y224457D01*
X65202Y225041D01*
X65433Y225620D01*
X65679Y226193D01*
X65939Y226760D01*
X66212Y227320D01*
X66499Y227873D01*
X66800Y228420D01*
X67114Y228958D01*
X67441Y229489D01*
X67781Y230011D01*
X68133Y230526D01*
X68499Y231031D01*
X68876Y231527D01*
X69266Y232014D01*
X69667Y232491D01*
X70080Y232958D01*
X70504Y233414D01*
X70939Y233861D01*
X71386Y234296D01*
X71842Y234720D01*
X72309Y235133D01*
X72786Y235534D01*
X73273Y235924D01*
X73769Y236301D01*
X74274Y236667D01*
X74789Y237019D01*
X75311Y237359D01*
X75842Y237686D01*
X76380Y238000D01*
X76927Y238301D01*
X77480Y238588D01*
X78040Y238861D01*
X78607Y239121D01*
X79180Y239367D01*
X79759Y239598D01*
X80343Y239815D01*
X80932Y240018D01*
X81527Y240206D01*
X82125Y240380D01*
X82728Y240539D01*
X83335Y240683D01*
X83945Y240812D01*
X84558Y240926D01*
X85173Y241025D01*
X85791Y241109D01*
X86410Y241178D01*
X87031Y241231D01*
X87654Y241269D01*
X88277Y241292D01*
X88900Y241300D01*
X89523Y241292D01*
X90146Y241269D01*
X90769Y241231D01*
X91390Y241178D01*
X92009Y241109D01*
X92627Y241025D01*
X93242Y240926D01*
X93855Y240812D01*
X94465Y240683D01*
X95072Y240539D01*
X95675Y240380D01*
X96273Y240206D01*
X96868Y240018D01*
X97457Y239815D01*
X98041Y239598D01*
X98620Y239367D01*
X99193Y239121D01*
X99760Y238861D01*
X100320Y238588D01*
X100873Y238301D01*
X101420Y238000D01*
X101958Y237686D01*
X102489Y237359D01*
X103011Y237019D01*
X103526Y236667D01*
X104031Y236301D01*
X104527Y235924D01*
X105014Y235534D01*
X105491Y235133D01*
X105958Y234720D01*
X106414Y234296D01*
X106861Y233861D01*
X107296Y233414D01*
X107720Y232958D01*
X108133Y232491D01*
X108534Y232014D01*
X108924Y231527D01*
X109301Y231031D01*
X109667Y230526D01*
X110019Y230011D01*
X110359Y229489D01*
X110686Y228958D01*
X111000Y228420D01*
X111301Y227873D01*
X111588Y227320D01*
X111861Y226760D01*
X112121Y226193D01*
X112367Y225620D01*
X112598Y225041D01*
X112815Y224457D01*
X113018Y223868D01*
X113206Y223273D01*
X113380Y222675D01*
X113539Y222072D01*
X113683Y221465D01*
X113812Y220855D01*
X113926Y220242D01*
X114025Y219627D01*
X114109Y219009D01*
X114178Y218390D01*
X114231Y217769D01*
X114269Y217146D01*
X114292Y216523D01*
X114300Y215900D01*
X114292Y215277D01*
X114269Y214654D01*
X114231Y214031D01*
X114178Y213410D01*
X114109Y212791D01*
X114025Y212173D01*
X113926Y211558D01*
X113812Y210945D01*
X113683Y210335D01*
X113539Y209728D01*
X113380Y209125D01*
X113206Y208527D01*
X113018Y207932D01*
X112815Y207343D01*
X112598Y206759D01*
X112367Y206180D01*
X112121Y205607D01*
X111861Y205040D01*
X111588Y204480D01*
X111301Y203927D01*
X111000Y203380D01*
X110686Y202842D01*
X110359Y202311D01*
X110019Y201789D01*
X109667Y201274D01*
X109301Y200769D01*
X108924Y200273D01*
X108534Y199786D01*
X108133Y199309D01*
X107720Y198842D01*
X107296Y198386D01*
X106861Y197939D01*
X106414Y197504D01*
X105958Y197080D01*
X105491Y196667D01*
X105014Y196266D01*
X104527Y195876D01*
X104031Y195499D01*
X103526Y195133D01*
X103011Y194781D01*
X102489Y194441D01*
X101958Y194114D01*
X101420Y193800D01*
X100873Y193499D01*
X100320Y193212D01*
X99760Y192939D01*
X99193Y192679D01*
X98620Y192433D01*
X98041Y192202D01*
X97457Y191985D01*
X96868Y191782D01*
X96273Y191594D01*
X95675Y191420D01*
X95072Y191261D01*
X94465Y191117D01*
X93855Y190988D01*
X93242Y190874D01*
X92627Y190775D01*
X92009Y190691D01*
X91390Y190622D01*
X90769Y190569D01*
X90146Y190531D01*
X89523Y190508D01*
X88900Y190500D01*
X88277Y190508D01*
X87654Y190531D01*
X87031Y190569D01*
X86410Y190622D01*
X85791Y190691D01*
X85173Y190775D01*
X84558Y190874D01*
X83945Y190988D01*
X83335Y191117D01*
X82728Y191261D01*
X82125Y191420D01*
X81527Y191594D01*
X80932Y191782D01*
X80343Y191985D01*
X79759Y192202D01*
X79180Y192433D01*
X78607Y192679D01*
X78040Y192939D01*
X77480Y193212D01*
X76927Y193499D01*
X76380Y193800D01*
X75842Y194114D01*
X75311Y194441D01*
X74789Y194781D01*
X74274Y195133D01*
X73769Y195499D01*
X73273Y195876D01*
X72786Y196266D01*
X72309Y196667D01*
X71842Y197080D01*
X71386Y197504D01*
X70939Y197939D01*
X70504Y198386D01*
X70080Y198842D01*
X69667Y199309D01*
X69266Y199786D01*
X68876Y200273D01*
X68499Y200769D01*
X68133Y201274D01*
X67781Y201789D01*
X67441Y202311D01*
X67114Y202842D01*
X66800Y203380D01*
X66499Y203927D01*
X66212Y204480D01*
X65939Y205040D01*
X65679Y205607D01*
X65433Y206180D01*
X65202Y206759D01*
X64985Y207343D01*
X64782Y207932D01*
X64594Y208527D01*
X64420Y209125D01*
X64261Y209728D01*
X64117Y210335D01*
X63988Y210945D01*
X63874Y211558D01*
X63775Y212173D01*
X63691Y212791D01*
X63622Y213410D01*
X63569Y214031D01*
X63531Y214654D01*
X63508Y215277D01*
X63500Y215900D01*
D17*
X57658Y133858D02*
X69342Y133858D01*
X69342Y139051D01*
X69342Y143764D02*
X69342Y148957D01*
X69342Y143764D02*
X57658Y143764D01*
X57658Y148957D01*
X62851Y147659D02*
X62851Y143764D01*
X57658Y153647D02*
X69342Y153647D01*
X57658Y153647D02*
X57658Y156893D01*
X57660Y157006D01*
X57666Y157119D01*
X57676Y157232D01*
X57690Y157345D01*
X57707Y157457D01*
X57729Y157568D01*
X57754Y157678D01*
X57784Y157788D01*
X57817Y157896D01*
X57854Y158003D01*
X57894Y158109D01*
X57939Y158213D01*
X57987Y158316D01*
X58038Y158417D01*
X58093Y158516D01*
X58151Y158613D01*
X58213Y158708D01*
X58278Y158801D01*
X58346Y158891D01*
X58417Y158979D01*
X58492Y159065D01*
X58569Y159148D01*
X58649Y159228D01*
X58732Y159305D01*
X58818Y159380D01*
X58906Y159451D01*
X58996Y159519D01*
X59089Y159584D01*
X59184Y159646D01*
X59281Y159704D01*
X59380Y159759D01*
X59481Y159810D01*
X59584Y159858D01*
X59688Y159903D01*
X59794Y159943D01*
X59901Y159980D01*
X60009Y160013D01*
X60119Y160043D01*
X60229Y160068D01*
X60340Y160090D01*
X60452Y160107D01*
X60565Y160121D01*
X60678Y160131D01*
X60791Y160137D01*
X60904Y160139D01*
X66096Y160139D01*
X66209Y160137D01*
X66322Y160131D01*
X66435Y160121D01*
X66548Y160107D01*
X66660Y160090D01*
X66771Y160068D01*
X66881Y160043D01*
X66991Y160013D01*
X67099Y159980D01*
X67206Y159943D01*
X67312Y159903D01*
X67416Y159858D01*
X67519Y159810D01*
X67620Y159759D01*
X67719Y159704D01*
X67816Y159646D01*
X67911Y159584D01*
X68004Y159519D01*
X68094Y159451D01*
X68182Y159380D01*
X68268Y159305D01*
X68351Y159228D01*
X68431Y159148D01*
X68508Y159065D01*
X68583Y158979D01*
X68654Y158891D01*
X68722Y158801D01*
X68787Y158708D01*
X68849Y158613D01*
X68907Y158516D01*
X68962Y158417D01*
X69013Y158316D01*
X69061Y158213D01*
X69106Y158109D01*
X69146Y158003D01*
X69183Y157896D01*
X69216Y157788D01*
X69246Y157678D01*
X69271Y157568D01*
X69293Y157457D01*
X69310Y157345D01*
X69324Y157232D01*
X69334Y157119D01*
X69340Y157006D01*
X69342Y156893D01*
X69342Y153647D01*
X60254Y165458D02*
X57658Y168704D01*
X69342Y168704D01*
X69342Y171949D02*
X69342Y165458D01*
D16*
X114300Y603250D02*
X114300Y641350D01*
D13*
X113826Y641966D01*
X113337Y642571D01*
X112833Y643163D01*
X112315Y643743D01*
X111783Y644310D01*
X111237Y644864D01*
X110678Y645404D01*
X110105Y645930D01*
X109520Y646443D01*
X108923Y646940D01*
X108314Y647423D01*
X107693Y647891D01*
X107060Y648344D01*
X106417Y648781D01*
X105763Y649202D01*
X105099Y649606D01*
X104426Y649995D01*
X103743Y650367D01*
X103051Y650722D01*
X102351Y651060D01*
X101643Y651381D01*
X100927Y651684D01*
X100203Y651970D01*
X99474Y652238D01*
X98737Y652488D01*
X97995Y652719D01*
X97247Y652933D01*
X96495Y653128D01*
X95737Y653305D01*
X94976Y653463D01*
X94211Y653603D01*
X93443Y653723D01*
X92672Y653825D01*
X91899Y653908D01*
X91124Y653972D01*
X90348Y654017D01*
X89571Y654043D01*
X88793Y654050D01*
X88016Y654038D01*
X87239Y654007D01*
X86463Y653956D01*
X85688Y653887D01*
X84916Y653799D01*
X84146Y653692D01*
X83378Y653566D01*
X82614Y653422D01*
X81854Y653258D01*
X81098Y653076D01*
X80347Y652876D01*
X79600Y652658D01*
X78860Y652421D01*
X78125Y652166D01*
X77397Y651893D01*
X76676Y651602D01*
X75962Y651294D01*
X75256Y650969D01*
X74558Y650626D01*
X73868Y650266D01*
X73188Y649890D01*
X72517Y649497D01*
X71856Y649087D01*
X71205Y648662D01*
X70565Y648221D01*
X69936Y647764D01*
X69318Y647292D01*
X68712Y646805D01*
X68118Y646303D01*
X67536Y645787D01*
X66967Y645257D01*
X66412Y644713D01*
X65869Y644155D01*
X65341Y643585D01*
X64827Y643002D01*
X64327Y642406D01*
X63842Y641798D01*
X63372Y641179D01*
X62918Y640548D01*
X62479Y639906D01*
X62055Y639254D01*
X61648Y638591D01*
X61257Y637919D01*
X60883Y637237D01*
X60526Y636547D01*
X60186Y635848D01*
X59862Y635140D01*
X59557Y634426D01*
X59268Y633703D01*
X58998Y632974D01*
X58746Y632239D01*
X58511Y631497D01*
X58295Y630750D01*
X58097Y629998D01*
X57918Y629242D01*
X57757Y628481D01*
X57615Y627717D01*
X57492Y626949D01*
X57388Y626178D01*
X57302Y625405D01*
X57236Y624631D01*
X57188Y623855D01*
X57160Y623078D01*
X57150Y622300D01*
X57160Y621522D01*
X57188Y620745D01*
X57236Y619969D01*
X57302Y619195D01*
X57388Y618422D01*
X57492Y617651D01*
X57615Y616883D01*
X57757Y616119D01*
X57918Y615358D01*
X58097Y614602D01*
X58295Y613850D01*
X58511Y613103D01*
X58746Y612361D01*
X58998Y611626D01*
X59268Y610897D01*
X59557Y610174D01*
X59862Y609460D01*
X60186Y608752D01*
X60526Y608053D01*
X60883Y607363D01*
X61257Y606681D01*
X61648Y606009D01*
X62055Y605346D01*
X62479Y604694D01*
X62918Y604052D01*
X63372Y603421D01*
X63842Y602802D01*
X64327Y602194D01*
X64827Y601598D01*
X65341Y601015D01*
X65869Y600445D01*
X66412Y599887D01*
X66967Y599343D01*
X67536Y598813D01*
X68118Y598297D01*
X68712Y597795D01*
X69318Y597308D01*
X69936Y596836D01*
X70565Y596379D01*
X71205Y595938D01*
X71856Y595513D01*
X72517Y595103D01*
X73188Y594710D01*
X73868Y594334D01*
X74558Y593974D01*
X75256Y593631D01*
X75962Y593306D01*
X76676Y592998D01*
X77397Y592707D01*
X78125Y592434D01*
X78860Y592179D01*
X79600Y591942D01*
X80347Y591724D01*
X81098Y591524D01*
X81854Y591342D01*
X82614Y591178D01*
X83378Y591034D01*
X84146Y590908D01*
X84916Y590801D01*
X85688Y590713D01*
X86463Y590644D01*
X87239Y590593D01*
X88016Y590562D01*
X88793Y590550D01*
X89571Y590557D01*
X90348Y590583D01*
X91124Y590628D01*
X91899Y590692D01*
X92672Y590775D01*
X93443Y590877D01*
X94211Y590997D01*
X94976Y591137D01*
X95737Y591295D01*
X96495Y591472D01*
X97247Y591667D01*
X97995Y591881D01*
X98737Y592112D01*
X99474Y592362D01*
X100203Y592630D01*
X100927Y592916D01*
X101643Y593219D01*
X102351Y593540D01*
X103051Y593878D01*
X103743Y594233D01*
X104426Y594605D01*
X105099Y594994D01*
X105763Y595398D01*
X106417Y595819D01*
X107060Y596256D01*
X107693Y596709D01*
X108314Y597177D01*
X108923Y597660D01*
X109520Y598157D01*
X110105Y598670D01*
X110678Y599196D01*
X111237Y599736D01*
X111783Y600290D01*
X112315Y600857D01*
X112833Y601437D01*
X113337Y602029D01*
X113826Y602634D01*
X114300Y603250D01*
D10*
X63500Y622300D02*
X63508Y622923D01*
X63531Y623546D01*
X63569Y624169D01*
X63622Y624790D01*
X63691Y625409D01*
X63775Y626027D01*
X63874Y626642D01*
X63988Y627255D01*
X64117Y627865D01*
X64261Y628472D01*
X64420Y629075D01*
X64594Y629673D01*
X64782Y630268D01*
X64985Y630857D01*
X65202Y631441D01*
X65433Y632020D01*
X65679Y632593D01*
X65939Y633160D01*
X66212Y633720D01*
X66499Y634273D01*
X66800Y634820D01*
X67114Y635358D01*
X67441Y635889D01*
X67781Y636411D01*
X68133Y636926D01*
X68499Y637431D01*
X68876Y637927D01*
X69266Y638414D01*
X69667Y638891D01*
X70080Y639358D01*
X70504Y639814D01*
X70939Y640261D01*
X71386Y640696D01*
X71842Y641120D01*
X72309Y641533D01*
X72786Y641934D01*
X73273Y642324D01*
X73769Y642701D01*
X74274Y643067D01*
X74789Y643419D01*
X75311Y643759D01*
X75842Y644086D01*
X76380Y644400D01*
X76927Y644701D01*
X77480Y644988D01*
X78040Y645261D01*
X78607Y645521D01*
X79180Y645767D01*
X79759Y645998D01*
X80343Y646215D01*
X80932Y646418D01*
X81527Y646606D01*
X82125Y646780D01*
X82728Y646939D01*
X83335Y647083D01*
X83945Y647212D01*
X84558Y647326D01*
X85173Y647425D01*
X85791Y647509D01*
X86410Y647578D01*
X87031Y647631D01*
X87654Y647669D01*
X88277Y647692D01*
X88900Y647700D01*
X89523Y647692D01*
X90146Y647669D01*
X90769Y647631D01*
X91390Y647578D01*
X92009Y647509D01*
X92627Y647425D01*
X93242Y647326D01*
X93855Y647212D01*
X94465Y647083D01*
X95072Y646939D01*
X95675Y646780D01*
X96273Y646606D01*
X96868Y646418D01*
X97457Y646215D01*
X98041Y645998D01*
X98620Y645767D01*
X99193Y645521D01*
X99760Y645261D01*
X100320Y644988D01*
X100873Y644701D01*
X101420Y644400D01*
X101958Y644086D01*
X102489Y643759D01*
X103011Y643419D01*
X103526Y643067D01*
X104031Y642701D01*
X104527Y642324D01*
X105014Y641934D01*
X105491Y641533D01*
X105958Y641120D01*
X106414Y640696D01*
X106861Y640261D01*
X107296Y639814D01*
X107720Y639358D01*
X108133Y638891D01*
X108534Y638414D01*
X108924Y637927D01*
X109301Y637431D01*
X109667Y636926D01*
X110019Y636411D01*
X110359Y635889D01*
X110686Y635358D01*
X111000Y634820D01*
X111301Y634273D01*
X111588Y633720D01*
X111861Y633160D01*
X112121Y632593D01*
X112367Y632020D01*
X112598Y631441D01*
X112815Y630857D01*
X113018Y630268D01*
X113206Y629673D01*
X113380Y629075D01*
X113539Y628472D01*
X113683Y627865D01*
X113812Y627255D01*
X113926Y626642D01*
X114025Y626027D01*
X114109Y625409D01*
X114178Y624790D01*
X114231Y624169D01*
X114269Y623546D01*
X114292Y622923D01*
X114300Y622300D01*
X114292Y621677D01*
X114269Y621054D01*
X114231Y620431D01*
X114178Y619810D01*
X114109Y619191D01*
X114025Y618573D01*
X113926Y617958D01*
X113812Y617345D01*
X113683Y616735D01*
X113539Y616128D01*
X113380Y615525D01*
X113206Y614927D01*
X113018Y614332D01*
X112815Y613743D01*
X112598Y613159D01*
X112367Y612580D01*
X112121Y612007D01*
X111861Y611440D01*
X111588Y610880D01*
X111301Y610327D01*
X111000Y609780D01*
X110686Y609242D01*
X110359Y608711D01*
X110019Y608189D01*
X109667Y607674D01*
X109301Y607169D01*
X108924Y606673D01*
X108534Y606186D01*
X108133Y605709D01*
X107720Y605242D01*
X107296Y604786D01*
X106861Y604339D01*
X106414Y603904D01*
X105958Y603480D01*
X105491Y603067D01*
X105014Y602666D01*
X104527Y602276D01*
X104031Y601899D01*
X103526Y601533D01*
X103011Y601181D01*
X102489Y600841D01*
X101958Y600514D01*
X101420Y600200D01*
X100873Y599899D01*
X100320Y599612D01*
X99760Y599339D01*
X99193Y599079D01*
X98620Y598833D01*
X98041Y598602D01*
X97457Y598385D01*
X96868Y598182D01*
X96273Y597994D01*
X95675Y597820D01*
X95072Y597661D01*
X94465Y597517D01*
X93855Y597388D01*
X93242Y597274D01*
X92627Y597175D01*
X92009Y597091D01*
X91390Y597022D01*
X90769Y596969D01*
X90146Y596931D01*
X89523Y596908D01*
X88900Y596900D01*
X88277Y596908D01*
X87654Y596931D01*
X87031Y596969D01*
X86410Y597022D01*
X85791Y597091D01*
X85173Y597175D01*
X84558Y597274D01*
X83945Y597388D01*
X83335Y597517D01*
X82728Y597661D01*
X82125Y597820D01*
X81527Y597994D01*
X80932Y598182D01*
X80343Y598385D01*
X79759Y598602D01*
X79180Y598833D01*
X78607Y599079D01*
X78040Y599339D01*
X77480Y599612D01*
X76927Y599899D01*
X76380Y600200D01*
X75842Y600514D01*
X75311Y600841D01*
X74789Y601181D01*
X74274Y601533D01*
X73769Y601899D01*
X73273Y602276D01*
X72786Y602666D01*
X72309Y603067D01*
X71842Y603480D01*
X71386Y603904D01*
X70939Y604339D01*
X70504Y604786D01*
X70080Y605242D01*
X69667Y605709D01*
X69266Y606186D01*
X68876Y606673D01*
X68499Y607169D01*
X68133Y607674D01*
X67781Y608189D01*
X67441Y608711D01*
X67114Y609242D01*
X66800Y609780D01*
X66499Y610327D01*
X66212Y610880D01*
X65939Y611440D01*
X65679Y612007D01*
X65433Y612580D01*
X65202Y613159D01*
X64985Y613743D01*
X64782Y614332D01*
X64594Y614927D01*
X64420Y615525D01*
X64261Y616128D01*
X64117Y616735D01*
X63988Y617345D01*
X63874Y617958D01*
X63775Y618573D01*
X63691Y619191D01*
X63622Y619810D01*
X63569Y620431D01*
X63531Y621054D01*
X63508Y621677D01*
X63500Y622300D01*
D17*
X57658Y476758D02*
X69342Y476758D01*
X69342Y481951D01*
X69342Y486664D02*
X69342Y491857D01*
X69342Y486664D02*
X57658Y486664D01*
X57658Y491857D01*
X62851Y490559D02*
X62851Y486664D01*
X57658Y496547D02*
X69342Y496547D01*
X57658Y496547D02*
X57658Y499793D01*
X57660Y499906D01*
X57666Y500019D01*
X57676Y500132D01*
X57690Y500245D01*
X57707Y500357D01*
X57729Y500468D01*
X57754Y500578D01*
X57784Y500688D01*
X57817Y500796D01*
X57854Y500903D01*
X57894Y501009D01*
X57939Y501113D01*
X57987Y501216D01*
X58038Y501317D01*
X58093Y501416D01*
X58151Y501513D01*
X58213Y501608D01*
X58278Y501701D01*
X58346Y501791D01*
X58417Y501879D01*
X58492Y501965D01*
X58569Y502048D01*
X58649Y502128D01*
X58732Y502205D01*
X58818Y502280D01*
X58906Y502351D01*
X58996Y502419D01*
X59089Y502484D01*
X59184Y502546D01*
X59281Y502604D01*
X59380Y502659D01*
X59481Y502710D01*
X59584Y502758D01*
X59688Y502803D01*
X59794Y502843D01*
X59901Y502880D01*
X60009Y502913D01*
X60119Y502943D01*
X60229Y502968D01*
X60340Y502990D01*
X60452Y503007D01*
X60565Y503021D01*
X60678Y503031D01*
X60791Y503037D01*
X60904Y503039D01*
X66096Y503039D01*
X66209Y503037D01*
X66322Y503031D01*
X66435Y503021D01*
X66548Y503007D01*
X66660Y502990D01*
X66771Y502968D01*
X66881Y502943D01*
X66991Y502913D01*
X67099Y502880D01*
X67206Y502843D01*
X67312Y502803D01*
X67416Y502758D01*
X67519Y502710D01*
X67620Y502659D01*
X67719Y502604D01*
X67816Y502546D01*
X67911Y502484D01*
X68004Y502419D01*
X68094Y502351D01*
X68182Y502280D01*
X68268Y502205D01*
X68351Y502128D01*
X68431Y502048D01*
X68508Y501965D01*
X68583Y501879D01*
X68654Y501791D01*
X68722Y501701D01*
X68787Y501608D01*
X68849Y501513D01*
X68907Y501416D01*
X68962Y501317D01*
X69013Y501216D01*
X69061Y501113D01*
X69106Y501009D01*
X69146Y500903D01*
X69183Y500796D01*
X69216Y500688D01*
X69246Y500578D01*
X69271Y500468D01*
X69293Y500357D01*
X69310Y500245D01*
X69324Y500132D01*
X69334Y500019D01*
X69340Y499906D01*
X69342Y499793D01*
X69342Y496547D01*
X57658Y511928D02*
X57660Y512035D01*
X57666Y512141D01*
X57676Y512247D01*
X57689Y512353D01*
X57707Y512459D01*
X57728Y512563D01*
X57753Y512667D01*
X57782Y512770D01*
X57814Y512871D01*
X57851Y512971D01*
X57891Y513070D01*
X57934Y513168D01*
X57981Y513264D01*
X58032Y513358D01*
X58086Y513450D01*
X58143Y513540D01*
X58203Y513628D01*
X58267Y513713D01*
X58334Y513796D01*
X58404Y513877D01*
X58476Y513955D01*
X58552Y514031D01*
X58630Y514103D01*
X58711Y514173D01*
X58794Y514240D01*
X58879Y514304D01*
X58967Y514364D01*
X59057Y514421D01*
X59149Y514475D01*
X59243Y514526D01*
X59339Y514573D01*
X59437Y514616D01*
X59536Y514656D01*
X59636Y514693D01*
X59737Y514725D01*
X59840Y514754D01*
X59944Y514779D01*
X60048Y514800D01*
X60154Y514818D01*
X60260Y514831D01*
X60366Y514841D01*
X60472Y514847D01*
X60579Y514849D01*
X57658Y511928D02*
X57660Y511807D01*
X57666Y511686D01*
X57676Y511566D01*
X57689Y511445D01*
X57707Y511326D01*
X57728Y511206D01*
X57753Y511088D01*
X57782Y510971D01*
X57815Y510854D01*
X57851Y510739D01*
X57892Y510625D01*
X57935Y510512D01*
X57983Y510400D01*
X58034Y510291D01*
X58089Y510183D01*
X58147Y510076D01*
X58208Y509972D01*
X58273Y509870D01*
X58341Y509770D01*
X58412Y509672D01*
X58486Y509576D01*
X58563Y509483D01*
X58644Y509393D01*
X58727Y509305D01*
X58813Y509220D01*
X58902Y509137D01*
X58993Y509058D01*
X59087Y508981D01*
X59183Y508908D01*
X59281Y508838D01*
X59382Y508771D01*
X59485Y508707D01*
X59590Y508647D01*
X59697Y508589D01*
X59805Y508536D01*
X59915Y508486D01*
X60027Y508440D01*
X60140Y508397D01*
X60255Y508358D01*
X62851Y513875D02*
X62773Y513954D01*
X62693Y514030D01*
X62610Y514103D01*
X62524Y514173D01*
X62437Y514240D01*
X62346Y514304D01*
X62254Y514364D01*
X62160Y514422D01*
X62063Y514476D01*
X61965Y514526D01*
X61865Y514573D01*
X61764Y514617D01*
X61661Y514657D01*
X61556Y514693D01*
X61451Y514725D01*
X61344Y514754D01*
X61237Y514779D01*
X61128Y514801D01*
X61019Y514818D01*
X60910Y514832D01*
X60800Y514841D01*
X60689Y514847D01*
X60579Y514849D01*
X62851Y513876D02*
X69342Y508358D01*
X69342Y514849D01*
D10*
X129540Y779780D02*
X129540Y787400D01*
X129540Y779780D02*
X148590Y779780D01*
X149860Y778510D01*
X152400Y775970D01*
X154940Y778510D01*
X156210Y779780D01*
X149860Y740410D02*
X149860Y739140D01*
X129540Y739140D01*
X149860Y740410D02*
X154940Y740410D01*
X154940Y739140D01*
X175260Y739140D01*
X175260Y779780D02*
X156210Y779780D01*
X175260Y779780D02*
X175260Y787400D01*
X129540Y779780D02*
X129540Y746760D01*
X129540Y744220D02*
X129540Y739140D01*
X129540Y744220D02*
X133350Y744220D01*
X175260Y744220D02*
X175260Y739140D01*
X175260Y744220D02*
X171450Y744220D01*
X175260Y746760D02*
X175260Y779780D01*
X171450Y746760D02*
X171450Y744220D01*
X171450Y749300D02*
X158750Y749300D01*
X146050Y746760D02*
X146050Y744220D01*
X133350Y744220D02*
X133350Y746760D01*
X133350Y749300D02*
X146050Y749300D01*
X146050Y744220D02*
X158750Y744220D01*
X146050Y746760D02*
X146050Y749300D01*
X158750Y746760D02*
X158750Y744220D01*
X158750Y746760D02*
X158750Y749300D01*
X158750Y746760D02*
X154940Y746760D01*
X154940Y778510D01*
X149860Y746760D02*
X146050Y746760D01*
X149860Y746760D02*
X154940Y746760D01*
X149860Y746760D02*
X149860Y778510D01*
X171450Y746760D02*
X175260Y746760D01*
X171450Y746760D02*
X171450Y749300D01*
X175260Y746760D02*
X175260Y744220D01*
X133350Y746760D02*
X129540Y746760D01*
X133350Y746760D02*
X133350Y749300D01*
X129540Y746760D02*
X129540Y744220D01*
X129540Y787400D02*
X137160Y787400D01*
X137160Y788670D01*
X142240Y788670D02*
X142240Y787400D01*
X142240Y788670D02*
X137160Y788670D01*
X162560Y788670D02*
X162560Y787400D01*
X167640Y787400D02*
X175260Y787400D01*
X167640Y787400D02*
X167640Y788670D01*
X162560Y788670D01*
X154940Y787400D02*
X154940Y786130D01*
X154940Y787400D02*
X162560Y787400D01*
X154940Y786130D02*
X149860Y786130D01*
X149860Y787400D01*
X142240Y787400D01*
D12*
X135509Y774432D02*
X137428Y772033D01*
X135509Y774432D02*
X144145Y774432D01*
X144145Y772033D02*
X144145Y776831D01*
X104775Y769239D02*
X104773Y769139D01*
X104767Y769040D01*
X104757Y768940D01*
X104744Y768842D01*
X104726Y768743D01*
X104705Y768646D01*
X104680Y768550D01*
X104651Y768454D01*
X104618Y768360D01*
X104582Y768267D01*
X104542Y768176D01*
X104498Y768086D01*
X104451Y767998D01*
X104401Y767912D01*
X104347Y767828D01*
X104290Y767746D01*
X104230Y767667D01*
X104166Y767589D01*
X104100Y767515D01*
X104031Y767443D01*
X103959Y767374D01*
X103885Y767308D01*
X103807Y767244D01*
X103728Y767184D01*
X103646Y767127D01*
X103562Y767073D01*
X103476Y767023D01*
X103388Y766976D01*
X103298Y766932D01*
X103207Y766892D01*
X103114Y766856D01*
X103020Y766823D01*
X102924Y766794D01*
X102828Y766769D01*
X102731Y766748D01*
X102632Y766730D01*
X102534Y766717D01*
X102434Y766707D01*
X102335Y766701D01*
X102235Y766699D01*
X102094Y766701D01*
X101953Y766706D01*
X101812Y766716D01*
X101671Y766729D01*
X101531Y766745D01*
X101391Y766766D01*
X101252Y766790D01*
X101113Y766818D01*
X100976Y766849D01*
X100839Y766884D01*
X100703Y766922D01*
X100568Y766964D01*
X100435Y767010D01*
X100302Y767059D01*
X100171Y767112D01*
X100042Y767168D01*
X99913Y767227D01*
X99787Y767290D01*
X99662Y767356D01*
X99539Y767425D01*
X99418Y767498D01*
X99299Y767574D01*
X99181Y767653D01*
X99066Y767734D01*
X98954Y767819D01*
X98843Y767907D01*
X98735Y767998D01*
X98629Y768091D01*
X98526Y768188D01*
X98425Y768287D01*
X98743Y775589D02*
X98745Y775689D01*
X98751Y775788D01*
X98761Y775888D01*
X98774Y775986D01*
X98792Y776085D01*
X98813Y776182D01*
X98838Y776278D01*
X98867Y776374D01*
X98900Y776468D01*
X98936Y776561D01*
X98976Y776652D01*
X99020Y776742D01*
X99067Y776830D01*
X99117Y776916D01*
X99171Y777000D01*
X99228Y777082D01*
X99288Y777161D01*
X99352Y777239D01*
X99418Y777313D01*
X99487Y777385D01*
X99559Y777454D01*
X99633Y777520D01*
X99711Y777584D01*
X99790Y777644D01*
X99872Y777701D01*
X99956Y777755D01*
X100042Y777805D01*
X100130Y777852D01*
X100220Y777896D01*
X100311Y777936D01*
X100404Y777972D01*
X100498Y778005D01*
X100594Y778034D01*
X100690Y778059D01*
X100787Y778080D01*
X100886Y778098D01*
X100984Y778111D01*
X101084Y778121D01*
X101183Y778127D01*
X101283Y778129D01*
X101283Y778130D02*
X101416Y778128D01*
X101549Y778123D01*
X101682Y778113D01*
X101815Y778100D01*
X101947Y778083D01*
X102079Y778063D01*
X102210Y778039D01*
X102340Y778011D01*
X102470Y777980D01*
X102598Y777945D01*
X102726Y777906D01*
X102852Y777864D01*
X102977Y777818D01*
X103101Y777769D01*
X103224Y777717D01*
X103345Y777661D01*
X103464Y777601D01*
X103582Y777539D01*
X103697Y777473D01*
X103811Y777404D01*
X103923Y777331D01*
X104033Y777256D01*
X104141Y777177D01*
X100012Y773366D02*
X99928Y773418D01*
X99845Y773473D01*
X99765Y773532D01*
X99687Y773593D01*
X99612Y773657D01*
X99539Y773725D01*
X99468Y773795D01*
X99401Y773867D01*
X99336Y773942D01*
X99274Y774020D01*
X99215Y774100D01*
X99159Y774182D01*
X99107Y774266D01*
X99058Y774352D01*
X99012Y774440D01*
X98969Y774530D01*
X98930Y774621D01*
X98895Y774714D01*
X98863Y774808D01*
X98835Y774903D01*
X98810Y774999D01*
X98790Y775096D01*
X98772Y775194D01*
X98759Y775292D01*
X98750Y775391D01*
X98744Y775490D01*
X98742Y775589D01*
X103505Y771462D02*
X103589Y771410D01*
X103672Y771355D01*
X103752Y771296D01*
X103830Y771235D01*
X103905Y771171D01*
X103978Y771103D01*
X104049Y771033D01*
X104116Y770961D01*
X104181Y770886D01*
X104243Y770808D01*
X104302Y770728D01*
X104358Y770646D01*
X104410Y770562D01*
X104459Y770476D01*
X104505Y770388D01*
X104548Y770298D01*
X104587Y770207D01*
X104622Y770114D01*
X104654Y770020D01*
X104682Y769925D01*
X104707Y769829D01*
X104727Y769732D01*
X104745Y769634D01*
X104758Y769536D01*
X104767Y769437D01*
X104773Y769338D01*
X104775Y769239D01*
X103505Y771462D02*
X100013Y773367D01*
X109880Y778129D02*
X109880Y766699D01*
X114960Y766699D01*
X119380Y775589D02*
X122555Y778129D01*
X122555Y766699D01*
X119380Y766699D02*
X125730Y766699D01*
D10*
X383540Y779780D02*
X383540Y787400D01*
X383540Y779780D02*
X402590Y779780D01*
X403860Y778510D01*
X406400Y775970D01*
X408940Y778510D01*
X410210Y779780D01*
X403860Y740410D02*
X403860Y739140D01*
X383540Y739140D01*
X403860Y740410D02*
X408940Y740410D01*
X408940Y739140D01*
X429260Y739140D01*
X429260Y779780D02*
X410210Y779780D01*
X429260Y779780D02*
X429260Y787400D01*
X383540Y779780D02*
X383540Y746760D01*
X383540Y744220D02*
X383540Y739140D01*
X383540Y744220D02*
X387350Y744220D01*
X429260Y744220D02*
X429260Y739140D01*
X429260Y744220D02*
X425450Y744220D01*
X429260Y746760D02*
X429260Y779780D01*
X425450Y746760D02*
X425450Y744220D01*
X425450Y749300D02*
X412750Y749300D01*
X400050Y746760D02*
X400050Y744220D01*
X387350Y744220D02*
X387350Y746760D01*
X387350Y749300D02*
X400050Y749300D01*
X400050Y744220D02*
X412750Y744220D01*
X400050Y746760D02*
X400050Y749300D01*
X412750Y746760D02*
X412750Y744220D01*
X412750Y746760D02*
X412750Y749300D01*
X412750Y746760D02*
X408940Y746760D01*
X408940Y778510D01*
X403860Y746760D02*
X400050Y746760D01*
X403860Y746760D02*
X408940Y746760D01*
X403860Y746760D02*
X403860Y778510D01*
X425450Y746760D02*
X429260Y746760D01*
X425450Y746760D02*
X425450Y749300D01*
X429260Y746760D02*
X429260Y744220D01*
X387350Y746760D02*
X383540Y746760D01*
X387350Y746760D02*
X387350Y749300D01*
X383540Y746760D02*
X383540Y744220D01*
X383540Y787400D02*
X391160Y787400D01*
X391160Y788670D01*
X396240Y788670D02*
X396240Y787400D01*
X396240Y788670D02*
X391160Y788670D01*
X416560Y788670D02*
X416560Y787400D01*
X421640Y787400D02*
X429260Y787400D01*
X421640Y787400D02*
X421640Y788670D01*
X416560Y788670D01*
X408940Y787400D02*
X408940Y786130D01*
X408940Y787400D02*
X416560Y787400D01*
X408940Y786130D02*
X403860Y786130D01*
X403860Y787400D01*
X396240Y787400D01*
D12*
X389509Y774432D02*
X391428Y772033D01*
X389509Y774432D02*
X398145Y774432D01*
X398145Y772033D02*
X398145Y776831D01*
X358775Y769239D02*
X358773Y769139D01*
X358767Y769040D01*
X358757Y768940D01*
X358744Y768842D01*
X358726Y768743D01*
X358705Y768646D01*
X358680Y768550D01*
X358651Y768454D01*
X358618Y768360D01*
X358582Y768267D01*
X358542Y768176D01*
X358498Y768086D01*
X358451Y767998D01*
X358401Y767912D01*
X358347Y767828D01*
X358290Y767746D01*
X358230Y767667D01*
X358166Y767589D01*
X358100Y767515D01*
X358031Y767443D01*
X357959Y767374D01*
X357885Y767308D01*
X357807Y767244D01*
X357728Y767184D01*
X357646Y767127D01*
X357562Y767073D01*
X357476Y767023D01*
X357388Y766976D01*
X357298Y766932D01*
X357207Y766892D01*
X357114Y766856D01*
X357020Y766823D01*
X356924Y766794D01*
X356828Y766769D01*
X356731Y766748D01*
X356632Y766730D01*
X356534Y766717D01*
X356434Y766707D01*
X356335Y766701D01*
X356235Y766699D01*
X356094Y766701D01*
X355953Y766706D01*
X355812Y766716D01*
X355671Y766729D01*
X355531Y766745D01*
X355391Y766766D01*
X355252Y766790D01*
X355113Y766818D01*
X354976Y766849D01*
X354839Y766884D01*
X354703Y766922D01*
X354568Y766964D01*
X354435Y767010D01*
X354302Y767059D01*
X354171Y767112D01*
X354042Y767168D01*
X353913Y767227D01*
X353787Y767290D01*
X353662Y767356D01*
X353539Y767425D01*
X353418Y767498D01*
X353299Y767574D01*
X353181Y767653D01*
X353066Y767734D01*
X352954Y767819D01*
X352843Y767907D01*
X352735Y767998D01*
X352629Y768091D01*
X352526Y768188D01*
X352425Y768287D01*
X352743Y775589D02*
X352745Y775689D01*
X352751Y775788D01*
X352761Y775888D01*
X352774Y775986D01*
X352792Y776085D01*
X352813Y776182D01*
X352838Y776278D01*
X352867Y776374D01*
X352900Y776468D01*
X352936Y776561D01*
X352976Y776652D01*
X353020Y776742D01*
X353067Y776830D01*
X353117Y776916D01*
X353171Y777000D01*
X353228Y777082D01*
X353288Y777161D01*
X353352Y777239D01*
X353418Y777313D01*
X353487Y777385D01*
X353559Y777454D01*
X353633Y777520D01*
X353711Y777584D01*
X353790Y777644D01*
X353872Y777701D01*
X353956Y777755D01*
X354042Y777805D01*
X354130Y777852D01*
X354220Y777896D01*
X354311Y777936D01*
X354404Y777972D01*
X354498Y778005D01*
X354594Y778034D01*
X354690Y778059D01*
X354787Y778080D01*
X354886Y778098D01*
X354984Y778111D01*
X355084Y778121D01*
X355183Y778127D01*
X355283Y778129D01*
X355283Y778130D02*
X355416Y778128D01*
X355549Y778123D01*
X355682Y778113D01*
X355815Y778100D01*
X355947Y778083D01*
X356079Y778063D01*
X356210Y778039D01*
X356340Y778011D01*
X356470Y777980D01*
X356598Y777945D01*
X356726Y777906D01*
X356852Y777864D01*
X356977Y777818D01*
X357101Y777769D01*
X357224Y777717D01*
X357345Y777661D01*
X357464Y777601D01*
X357582Y777539D01*
X357697Y777473D01*
X357811Y777404D01*
X357923Y777331D01*
X358033Y777256D01*
X358141Y777177D01*
X354012Y773366D02*
X353928Y773418D01*
X353845Y773473D01*
X353765Y773532D01*
X353687Y773593D01*
X353612Y773657D01*
X353539Y773725D01*
X353468Y773795D01*
X353401Y773867D01*
X353336Y773942D01*
X353274Y774020D01*
X353215Y774100D01*
X353159Y774182D01*
X353107Y774266D01*
X353058Y774352D01*
X353012Y774440D01*
X352969Y774530D01*
X352930Y774621D01*
X352895Y774714D01*
X352863Y774808D01*
X352835Y774903D01*
X352810Y774999D01*
X352790Y775096D01*
X352772Y775194D01*
X352759Y775292D01*
X352750Y775391D01*
X352744Y775490D01*
X352742Y775589D01*
X357505Y771462D02*
X357589Y771410D01*
X357672Y771355D01*
X357752Y771296D01*
X357830Y771235D01*
X357905Y771171D01*
X357978Y771103D01*
X358049Y771033D01*
X358116Y770961D01*
X358181Y770886D01*
X358243Y770808D01*
X358302Y770728D01*
X358358Y770646D01*
X358410Y770562D01*
X358459Y770476D01*
X358505Y770388D01*
X358548Y770298D01*
X358587Y770207D01*
X358622Y770114D01*
X358654Y770020D01*
X358682Y769925D01*
X358707Y769829D01*
X358727Y769732D01*
X358745Y769634D01*
X358758Y769536D01*
X358767Y769437D01*
X358773Y769338D01*
X358775Y769239D01*
X357505Y771462D02*
X354013Y773367D01*
X363880Y778129D02*
X363880Y766699D01*
X368960Y766699D01*
X379730Y775272D02*
X379728Y775376D01*
X379722Y775481D01*
X379713Y775585D01*
X379700Y775688D01*
X379682Y775791D01*
X379662Y775893D01*
X379637Y775995D01*
X379609Y776095D01*
X379577Y776195D01*
X379541Y776293D01*
X379502Y776390D01*
X379460Y776485D01*
X379414Y776579D01*
X379364Y776671D01*
X379312Y776761D01*
X379256Y776849D01*
X379196Y776935D01*
X379134Y777019D01*
X379069Y777100D01*
X379001Y777179D01*
X378929Y777256D01*
X378856Y777329D01*
X378779Y777401D01*
X378700Y777469D01*
X378619Y777534D01*
X378535Y777596D01*
X378449Y777656D01*
X378361Y777712D01*
X378271Y777764D01*
X378179Y777814D01*
X378085Y777860D01*
X377990Y777902D01*
X377893Y777941D01*
X377795Y777977D01*
X377695Y778009D01*
X377595Y778037D01*
X377493Y778062D01*
X377391Y778082D01*
X377288Y778100D01*
X377185Y778113D01*
X377081Y778122D01*
X376976Y778128D01*
X376872Y778130D01*
X376872Y778129D02*
X376754Y778127D01*
X376635Y778121D01*
X376517Y778112D01*
X376400Y778099D01*
X376283Y778081D01*
X376166Y778061D01*
X376050Y778036D01*
X375935Y778008D01*
X375822Y777975D01*
X375709Y777940D01*
X375597Y777900D01*
X375487Y777858D01*
X375378Y777811D01*
X375270Y777761D01*
X375165Y777708D01*
X375061Y777651D01*
X374959Y777591D01*
X374859Y777528D01*
X374761Y777461D01*
X374665Y777392D01*
X374572Y777319D01*
X374481Y777243D01*
X374392Y777165D01*
X374306Y777083D01*
X374223Y776999D01*
X374142Y776913D01*
X374065Y776823D01*
X373990Y776732D01*
X373918Y776638D01*
X373849Y776541D01*
X373784Y776443D01*
X373721Y776342D01*
X373662Y776239D01*
X373606Y776135D01*
X373554Y776029D01*
X373505Y775921D01*
X373460Y775812D01*
X373418Y775701D01*
X373380Y775589D01*
X378778Y773050D02*
X378854Y773125D01*
X378929Y773204D01*
X379000Y773285D01*
X379069Y773369D01*
X379134Y773455D01*
X379196Y773543D01*
X379256Y773633D01*
X379312Y773725D01*
X379365Y773820D01*
X379414Y773916D01*
X379460Y774014D01*
X379503Y774113D01*
X379542Y774214D01*
X379577Y774316D01*
X379609Y774419D01*
X379637Y774523D01*
X379662Y774628D01*
X379683Y774735D01*
X379700Y774841D01*
X379713Y774948D01*
X379722Y775056D01*
X379728Y775164D01*
X379730Y775272D01*
X378777Y773049D02*
X373380Y766699D01*
X379730Y766699D01*
D10*
X187960Y20320D02*
X187960Y12700D01*
X187960Y20320D02*
X168910Y20320D01*
X167640Y21590D01*
X165100Y24130D01*
X162560Y21590D01*
X161290Y20320D01*
X167640Y59690D02*
X167640Y60960D01*
X187960Y60960D01*
X167640Y59690D02*
X162560Y59690D01*
X162560Y60960D01*
X142240Y60960D01*
X142240Y20320D02*
X161290Y20320D01*
X142240Y20320D02*
X142240Y12700D01*
X187960Y20320D02*
X187960Y53340D01*
X187960Y55880D02*
X187960Y60960D01*
X187960Y55880D02*
X184150Y55880D01*
X142240Y55880D02*
X142240Y60960D01*
X142240Y55880D02*
X146050Y55880D01*
X142240Y53340D02*
X142240Y20320D01*
X146050Y53340D02*
X146050Y55880D01*
X146050Y50800D02*
X158750Y50800D01*
X171450Y53340D02*
X171450Y55880D01*
X184150Y55880D02*
X184150Y53340D01*
X184150Y50800D02*
X171450Y50800D01*
X171450Y55880D02*
X158750Y55880D01*
X171450Y53340D02*
X171450Y50800D01*
X158750Y53340D02*
X158750Y55880D01*
X158750Y53340D02*
X158750Y50800D01*
X158750Y53340D02*
X162560Y53340D01*
X162560Y21590D01*
X167640Y53340D02*
X171450Y53340D01*
X167640Y53340D02*
X162560Y53340D01*
X167640Y53340D02*
X167640Y21590D01*
X146050Y53340D02*
X142240Y53340D01*
X146050Y53340D02*
X146050Y50800D01*
X142240Y53340D02*
X142240Y55880D01*
X184150Y53340D02*
X187960Y53340D01*
X184150Y53340D02*
X184150Y50800D01*
X187960Y53340D02*
X187960Y55880D01*
X187960Y12700D02*
X180340Y12700D01*
X180340Y11430D01*
X175260Y11430D02*
X175260Y12700D01*
X175260Y11430D02*
X180340Y11430D01*
X154940Y11430D02*
X154940Y12700D01*
X149860Y12700D02*
X142240Y12700D01*
X149860Y12700D02*
X149860Y11430D01*
X154940Y11430D01*
X162560Y12700D02*
X162560Y13970D01*
X162560Y12700D02*
X154940Y12700D01*
X162560Y13970D02*
X167640Y13970D01*
X167640Y12700D01*
X175260Y12700D01*
D12*
X175274Y23269D02*
X173355Y25668D01*
X181991Y25668D01*
X181991Y23269D02*
X181991Y28067D01*
X163830Y85471D02*
X163930Y85473D01*
X164029Y85479D01*
X164129Y85489D01*
X164227Y85502D01*
X164326Y85520D01*
X164423Y85541D01*
X164519Y85566D01*
X164615Y85595D01*
X164709Y85628D01*
X164802Y85664D01*
X164893Y85704D01*
X164983Y85748D01*
X165071Y85795D01*
X165157Y85845D01*
X165241Y85899D01*
X165323Y85956D01*
X165402Y86016D01*
X165480Y86080D01*
X165554Y86146D01*
X165626Y86215D01*
X165695Y86287D01*
X165761Y86361D01*
X165825Y86439D01*
X165885Y86518D01*
X165942Y86600D01*
X165996Y86684D01*
X166046Y86770D01*
X166093Y86858D01*
X166137Y86948D01*
X166177Y87039D01*
X166213Y87132D01*
X166246Y87226D01*
X166275Y87322D01*
X166300Y87418D01*
X166321Y87515D01*
X166339Y87614D01*
X166352Y87712D01*
X166362Y87812D01*
X166368Y87911D01*
X166370Y88011D01*
X163830Y85471D02*
X163689Y85473D01*
X163548Y85478D01*
X163407Y85488D01*
X163266Y85501D01*
X163126Y85517D01*
X162986Y85538D01*
X162847Y85562D01*
X162708Y85590D01*
X162571Y85621D01*
X162434Y85656D01*
X162298Y85694D01*
X162163Y85736D01*
X162030Y85782D01*
X161897Y85831D01*
X161766Y85884D01*
X161637Y85940D01*
X161508Y85999D01*
X161382Y86062D01*
X161257Y86128D01*
X161134Y86197D01*
X161013Y86270D01*
X160894Y86346D01*
X160776Y86425D01*
X160661Y86506D01*
X160549Y86591D01*
X160438Y86679D01*
X160330Y86770D01*
X160224Y86863D01*
X160121Y86960D01*
X160020Y87059D01*
X160338Y94361D02*
X160340Y94461D01*
X160346Y94560D01*
X160356Y94660D01*
X160369Y94758D01*
X160387Y94857D01*
X160408Y94954D01*
X160433Y95050D01*
X160462Y95146D01*
X160495Y95240D01*
X160531Y95333D01*
X160571Y95424D01*
X160615Y95514D01*
X160662Y95602D01*
X160712Y95688D01*
X160766Y95772D01*
X160823Y95854D01*
X160883Y95933D01*
X160947Y96011D01*
X161013Y96085D01*
X161082Y96157D01*
X161154Y96226D01*
X161228Y96292D01*
X161306Y96356D01*
X161385Y96416D01*
X161467Y96473D01*
X161551Y96527D01*
X161637Y96577D01*
X161725Y96624D01*
X161815Y96668D01*
X161906Y96708D01*
X161999Y96744D01*
X162093Y96777D01*
X162189Y96806D01*
X162285Y96831D01*
X162382Y96852D01*
X162481Y96870D01*
X162579Y96883D01*
X162679Y96893D01*
X162778Y96899D01*
X162878Y96901D01*
X162878Y96902D02*
X163011Y96900D01*
X163144Y96895D01*
X163277Y96885D01*
X163410Y96872D01*
X163542Y96855D01*
X163674Y96835D01*
X163805Y96811D01*
X163935Y96783D01*
X164065Y96752D01*
X164193Y96717D01*
X164321Y96678D01*
X164447Y96636D01*
X164572Y96590D01*
X164696Y96541D01*
X164819Y96489D01*
X164940Y96433D01*
X165059Y96373D01*
X165177Y96311D01*
X165292Y96245D01*
X165406Y96176D01*
X165518Y96103D01*
X165628Y96028D01*
X165736Y95949D01*
X161607Y92138D02*
X161523Y92190D01*
X161440Y92245D01*
X161360Y92304D01*
X161282Y92365D01*
X161207Y92429D01*
X161134Y92497D01*
X161063Y92567D01*
X160996Y92639D01*
X160931Y92714D01*
X160869Y92792D01*
X160810Y92872D01*
X160754Y92954D01*
X160702Y93038D01*
X160653Y93124D01*
X160607Y93212D01*
X160564Y93302D01*
X160525Y93393D01*
X160490Y93486D01*
X160458Y93580D01*
X160430Y93675D01*
X160405Y93771D01*
X160385Y93868D01*
X160367Y93966D01*
X160354Y94064D01*
X160345Y94163D01*
X160339Y94262D01*
X160337Y94361D01*
X165100Y90234D02*
X165184Y90182D01*
X165267Y90127D01*
X165347Y90068D01*
X165425Y90007D01*
X165500Y89943D01*
X165573Y89875D01*
X165644Y89805D01*
X165711Y89733D01*
X165776Y89658D01*
X165838Y89580D01*
X165897Y89500D01*
X165953Y89418D01*
X166005Y89334D01*
X166054Y89248D01*
X166100Y89160D01*
X166143Y89070D01*
X166182Y88979D01*
X166217Y88886D01*
X166249Y88792D01*
X166277Y88697D01*
X166302Y88601D01*
X166322Y88504D01*
X166340Y88406D01*
X166353Y88308D01*
X166362Y88209D01*
X166368Y88110D01*
X166370Y88011D01*
X165100Y90234D02*
X161608Y92139D01*
X171475Y96901D02*
X171475Y85471D01*
X176555Y85471D01*
X180975Y85471D02*
X184150Y85471D01*
X184261Y85473D01*
X184371Y85479D01*
X184482Y85488D01*
X184592Y85502D01*
X184701Y85519D01*
X184810Y85540D01*
X184918Y85565D01*
X185025Y85594D01*
X185131Y85626D01*
X185236Y85662D01*
X185339Y85702D01*
X185441Y85745D01*
X185542Y85792D01*
X185641Y85843D01*
X185737Y85896D01*
X185832Y85953D01*
X185925Y86014D01*
X186016Y86077D01*
X186105Y86144D01*
X186191Y86214D01*
X186274Y86287D01*
X186356Y86362D01*
X186434Y86440D01*
X186509Y86522D01*
X186582Y86605D01*
X186652Y86691D01*
X186719Y86780D01*
X186782Y86871D01*
X186843Y86964D01*
X186900Y87058D01*
X186953Y87155D01*
X187004Y87254D01*
X187051Y87355D01*
X187094Y87457D01*
X187134Y87560D01*
X187170Y87665D01*
X187202Y87771D01*
X187231Y87878D01*
X187256Y87986D01*
X187277Y88095D01*
X187294Y88204D01*
X187308Y88314D01*
X187317Y88425D01*
X187323Y88535D01*
X187325Y88646D01*
X187323Y88757D01*
X187317Y88867D01*
X187308Y88978D01*
X187294Y89088D01*
X187277Y89197D01*
X187256Y89306D01*
X187231Y89414D01*
X187202Y89521D01*
X187170Y89627D01*
X187134Y89732D01*
X187094Y89835D01*
X187051Y89937D01*
X187004Y90038D01*
X186953Y90137D01*
X186900Y90233D01*
X186843Y90328D01*
X186782Y90421D01*
X186719Y90512D01*
X186652Y90601D01*
X186582Y90687D01*
X186509Y90770D01*
X186434Y90852D01*
X186356Y90930D01*
X186274Y91005D01*
X186191Y91078D01*
X186105Y91148D01*
X186016Y91215D01*
X185925Y91278D01*
X185832Y91339D01*
X185738Y91396D01*
X185641Y91449D01*
X185542Y91500D01*
X185441Y91547D01*
X185339Y91590D01*
X185236Y91630D01*
X185131Y91666D01*
X185025Y91698D01*
X184918Y91727D01*
X184810Y91752D01*
X184701Y91773D01*
X184592Y91790D01*
X184482Y91804D01*
X184371Y91813D01*
X184261Y91819D01*
X184150Y91821D01*
X184785Y96901D02*
X180975Y96901D01*
X184785Y96901D02*
X184885Y96899D01*
X184984Y96893D01*
X185084Y96883D01*
X185182Y96870D01*
X185281Y96852D01*
X185378Y96831D01*
X185474Y96806D01*
X185570Y96777D01*
X185664Y96744D01*
X185757Y96708D01*
X185848Y96668D01*
X185938Y96624D01*
X186026Y96577D01*
X186112Y96527D01*
X186196Y96473D01*
X186278Y96416D01*
X186357Y96356D01*
X186435Y96292D01*
X186509Y96226D01*
X186581Y96157D01*
X186650Y96085D01*
X186716Y96011D01*
X186780Y95933D01*
X186840Y95854D01*
X186897Y95772D01*
X186951Y95688D01*
X187001Y95602D01*
X187048Y95514D01*
X187092Y95424D01*
X187132Y95333D01*
X187168Y95240D01*
X187201Y95146D01*
X187230Y95050D01*
X187255Y94954D01*
X187276Y94857D01*
X187294Y94758D01*
X187307Y94660D01*
X187317Y94560D01*
X187323Y94461D01*
X187325Y94361D01*
X187323Y94261D01*
X187317Y94162D01*
X187307Y94062D01*
X187294Y93964D01*
X187276Y93865D01*
X187255Y93768D01*
X187230Y93672D01*
X187201Y93576D01*
X187168Y93482D01*
X187132Y93389D01*
X187092Y93298D01*
X187048Y93208D01*
X187001Y93120D01*
X186951Y93034D01*
X186897Y92950D01*
X186840Y92868D01*
X186780Y92789D01*
X186716Y92711D01*
X186650Y92637D01*
X186581Y92565D01*
X186509Y92496D01*
X186435Y92430D01*
X186357Y92366D01*
X186278Y92306D01*
X186196Y92249D01*
X186112Y92195D01*
X186026Y92145D01*
X185938Y92098D01*
X185848Y92054D01*
X185757Y92014D01*
X185664Y91978D01*
X185570Y91945D01*
X185474Y91916D01*
X185378Y91891D01*
X185281Y91870D01*
X185182Y91852D01*
X185084Y91839D01*
X184984Y91829D01*
X184885Y91823D01*
X184785Y91821D01*
X182245Y91821D01*
D10*
X247650Y774700D02*
X260350Y774700D01*
X266700Y768350D01*
X266700Y755650D02*
X260350Y749300D01*
X266700Y768350D02*
X273050Y774700D01*
X285750Y774700D01*
X292100Y768350D01*
X292100Y755650D02*
X285750Y749300D01*
X273050Y749300D01*
X266700Y755650D01*
X241300Y755650D02*
X241300Y768350D01*
X247650Y774700D01*
X241300Y755650D02*
X247650Y749300D01*
X260350Y749300D01*
X292100Y768350D02*
X298450Y774700D01*
X311150Y774700D01*
X317500Y768350D01*
X317500Y755650D02*
X311150Y749300D01*
X298450Y749300D01*
X292100Y755650D01*
X317500Y755650D02*
X317500Y768350D01*
D12*
X232410Y767715D02*
X229235Y765175D01*
X232410Y767715D02*
X232410Y756285D01*
X229235Y756285D02*
X235585Y756285D01*
X248285Y718185D02*
X248283Y718085D01*
X248277Y717986D01*
X248267Y717886D01*
X248254Y717788D01*
X248236Y717689D01*
X248215Y717592D01*
X248190Y717496D01*
X248161Y717400D01*
X248128Y717306D01*
X248092Y717213D01*
X248052Y717122D01*
X248008Y717032D01*
X247961Y716944D01*
X247911Y716858D01*
X247857Y716774D01*
X247800Y716692D01*
X247740Y716613D01*
X247676Y716535D01*
X247610Y716461D01*
X247541Y716389D01*
X247469Y716320D01*
X247395Y716254D01*
X247317Y716190D01*
X247238Y716130D01*
X247156Y716073D01*
X247072Y716019D01*
X246986Y715969D01*
X246898Y715922D01*
X246808Y715878D01*
X246717Y715838D01*
X246624Y715802D01*
X246530Y715769D01*
X246434Y715740D01*
X246338Y715715D01*
X246241Y715694D01*
X246142Y715676D01*
X246044Y715663D01*
X245944Y715653D01*
X245845Y715647D01*
X245745Y715645D01*
X245604Y715647D01*
X245463Y715652D01*
X245322Y715662D01*
X245181Y715675D01*
X245041Y715691D01*
X244901Y715712D01*
X244762Y715736D01*
X244623Y715764D01*
X244486Y715795D01*
X244349Y715830D01*
X244213Y715868D01*
X244078Y715910D01*
X243945Y715956D01*
X243812Y716005D01*
X243681Y716058D01*
X243552Y716114D01*
X243423Y716173D01*
X243297Y716236D01*
X243172Y716302D01*
X243049Y716371D01*
X242928Y716444D01*
X242809Y716520D01*
X242691Y716599D01*
X242576Y716680D01*
X242464Y716765D01*
X242353Y716853D01*
X242245Y716944D01*
X242139Y717037D01*
X242036Y717134D01*
X241935Y717233D01*
X242253Y724535D02*
X242255Y724635D01*
X242261Y724734D01*
X242271Y724834D01*
X242284Y724932D01*
X242302Y725031D01*
X242323Y725128D01*
X242348Y725224D01*
X242377Y725320D01*
X242410Y725414D01*
X242446Y725507D01*
X242486Y725598D01*
X242530Y725688D01*
X242577Y725776D01*
X242627Y725862D01*
X242681Y725946D01*
X242738Y726028D01*
X242798Y726107D01*
X242862Y726185D01*
X242928Y726259D01*
X242997Y726331D01*
X243069Y726400D01*
X243143Y726466D01*
X243221Y726530D01*
X243300Y726590D01*
X243382Y726647D01*
X243466Y726701D01*
X243552Y726751D01*
X243640Y726798D01*
X243730Y726842D01*
X243821Y726882D01*
X243914Y726918D01*
X244008Y726951D01*
X244104Y726980D01*
X244200Y727005D01*
X244297Y727026D01*
X244396Y727044D01*
X244494Y727057D01*
X244594Y727067D01*
X244693Y727073D01*
X244793Y727075D01*
X244793Y727076D02*
X244926Y727074D01*
X245059Y727069D01*
X245192Y727059D01*
X245325Y727046D01*
X245457Y727029D01*
X245589Y727009D01*
X245720Y726985D01*
X245850Y726957D01*
X245980Y726926D01*
X246108Y726891D01*
X246236Y726852D01*
X246362Y726810D01*
X246487Y726764D01*
X246611Y726715D01*
X246734Y726663D01*
X246855Y726607D01*
X246974Y726547D01*
X247092Y726485D01*
X247207Y726419D01*
X247321Y726350D01*
X247433Y726277D01*
X247543Y726202D01*
X247651Y726123D01*
X243522Y722312D02*
X243438Y722364D01*
X243355Y722419D01*
X243275Y722478D01*
X243197Y722539D01*
X243122Y722603D01*
X243049Y722671D01*
X242978Y722741D01*
X242911Y722813D01*
X242846Y722888D01*
X242784Y722966D01*
X242725Y723046D01*
X242669Y723128D01*
X242617Y723212D01*
X242568Y723298D01*
X242522Y723386D01*
X242479Y723476D01*
X242440Y723567D01*
X242405Y723660D01*
X242373Y723754D01*
X242345Y723849D01*
X242320Y723945D01*
X242300Y724042D01*
X242282Y724140D01*
X242269Y724238D01*
X242260Y724337D01*
X242254Y724436D01*
X242252Y724535D01*
X247015Y720408D02*
X247099Y720356D01*
X247182Y720301D01*
X247262Y720242D01*
X247340Y720181D01*
X247415Y720117D01*
X247488Y720049D01*
X247559Y719979D01*
X247626Y719907D01*
X247691Y719832D01*
X247753Y719754D01*
X247812Y719674D01*
X247868Y719592D01*
X247920Y719508D01*
X247969Y719422D01*
X248015Y719334D01*
X248058Y719244D01*
X248097Y719153D01*
X248132Y719060D01*
X248164Y718966D01*
X248192Y718871D01*
X248217Y718775D01*
X248237Y718678D01*
X248255Y718580D01*
X248268Y718482D01*
X248277Y718383D01*
X248283Y718284D01*
X248285Y718185D01*
X247015Y720408D02*
X243523Y722313D01*
X252349Y727075D02*
X256159Y715645D01*
X259969Y727075D01*
X264414Y724535D02*
X267589Y727075D01*
X267589Y715645D01*
X264414Y715645D02*
X270764Y715645D01*
D10*
X265308Y202438D02*
X265308Y190698D01*
X265307Y190698D02*
X265309Y190565D01*
X265315Y190433D01*
X265325Y190301D01*
X265338Y190169D01*
X265356Y190037D01*
X265377Y189907D01*
X265402Y189776D01*
X265431Y189647D01*
X265464Y189519D01*
X265500Y189391D01*
X265540Y189265D01*
X265584Y189140D01*
X265632Y189016D01*
X265683Y188894D01*
X265738Y188773D01*
X265796Y188654D01*
X265858Y188536D01*
X265923Y188421D01*
X265992Y188307D01*
X266063Y188196D01*
X266139Y188087D01*
X266217Y187980D01*
X266298Y187875D01*
X266383Y187773D01*
X266470Y187673D01*
X266560Y187576D01*
X266653Y187481D01*
X266749Y187390D01*
X266847Y187301D01*
X266948Y187215D01*
X267052Y187132D01*
X267158Y187052D01*
X267266Y186976D01*
X267376Y186902D01*
X267489Y186832D01*
X267603Y186765D01*
X267720Y186702D01*
X267838Y186642D01*
X267958Y186585D01*
X268080Y186532D01*
X268203Y186483D01*
X268327Y186437D01*
X268453Y186395D01*
X268580Y186357D01*
X268708Y186322D01*
X268837Y186291D01*
X268966Y186264D01*
X269097Y186241D01*
X269228Y186221D01*
X269360Y186206D01*
X269492Y186194D01*
X269624Y186186D01*
X269757Y186182D01*
X269889Y186182D01*
X270022Y186186D01*
X270154Y186194D01*
X270286Y186206D01*
X270418Y186221D01*
X270549Y186241D01*
X270680Y186264D01*
X270809Y186291D01*
X270938Y186322D01*
X271066Y186357D01*
X271193Y186395D01*
X271319Y186437D01*
X271443Y186483D01*
X271566Y186532D01*
X271688Y186585D01*
X271808Y186642D01*
X271926Y186702D01*
X272043Y186765D01*
X272157Y186832D01*
X272270Y186902D01*
X272380Y186976D01*
X272488Y187052D01*
X272594Y187132D01*
X272698Y187215D01*
X272799Y187301D01*
X272897Y187390D01*
X272993Y187481D01*
X273086Y187576D01*
X273176Y187673D01*
X273263Y187773D01*
X273348Y187875D01*
X273429Y187980D01*
X273507Y188087D01*
X273583Y188196D01*
X273654Y188307D01*
X273723Y188421D01*
X273788Y188536D01*
X273850Y188654D01*
X273908Y188773D01*
X273963Y188894D01*
X274014Y189016D01*
X274062Y189140D01*
X274106Y189265D01*
X274146Y189391D01*
X274182Y189519D01*
X274215Y189647D01*
X274244Y189776D01*
X274269Y189907D01*
X274290Y190037D01*
X274308Y190169D01*
X274321Y190301D01*
X274331Y190433D01*
X274337Y190565D01*
X274339Y190698D01*
X274339Y202438D01*
X284933Y202438D02*
X284933Y186182D01*
X284933Y194310D02*
X282676Y195665D01*
X282675Y195664D02*
X282588Y195719D01*
X282504Y195776D01*
X282422Y195837D01*
X282342Y195900D01*
X282265Y195967D01*
X282190Y196036D01*
X282118Y196108D01*
X282049Y196183D01*
X281982Y196261D01*
X281919Y196341D01*
X281858Y196423D01*
X281801Y196507D01*
X281747Y196594D01*
X281696Y196682D01*
X281649Y196773D01*
X281605Y196865D01*
X281565Y196959D01*
X281528Y197054D01*
X281495Y197150D01*
X281466Y197248D01*
X281440Y197347D01*
X281418Y197446D01*
X281400Y197547D01*
X281385Y197648D01*
X281375Y197749D01*
X281368Y197851D01*
X281365Y197953D01*
X281366Y198055D01*
X281371Y198157D01*
X281380Y198259D01*
X281392Y198360D01*
X281409Y198461D01*
X281429Y198561D01*
X281453Y198660D01*
X281480Y198758D01*
X281512Y198855D01*
X281547Y198951D01*
X281585Y199045D01*
X281627Y199138D01*
X281673Y199230D01*
X281722Y199319D01*
X281774Y199407D01*
X281830Y199492D01*
X281889Y199576D01*
X281951Y199657D01*
X282016Y199735D01*
X282084Y199811D01*
X282154Y199885D01*
X282228Y199956D01*
X282304Y200024D01*
X282383Y200089D01*
X282464Y200151D01*
X282547Y200210D01*
X282632Y200265D01*
X282720Y200318D01*
X282809Y200367D01*
X282901Y200413D01*
X282993Y200455D01*
X283088Y200494D01*
X283184Y200529D01*
X283281Y200560D01*
X283379Y200588D01*
X283478Y200612D01*
X283578Y200632D01*
X283579Y200631D02*
X283749Y200660D01*
X283919Y200685D01*
X284090Y200706D01*
X284261Y200722D01*
X284432Y200735D01*
X284604Y200743D01*
X284776Y200747D01*
X284948Y200748D01*
X285120Y200743D01*
X285292Y200735D01*
X285463Y200723D01*
X285634Y200707D01*
X285805Y200686D01*
X285975Y200661D01*
X286145Y200633D01*
X286314Y200600D01*
X286482Y200563D01*
X286649Y200522D01*
X286815Y200477D01*
X286980Y200428D01*
X287143Y200376D01*
X287306Y200319D01*
X287467Y200258D01*
X287626Y200194D01*
X287784Y200126D01*
X287940Y200053D01*
X288095Y199978D01*
X288247Y199898D01*
X288398Y199815D01*
X288546Y199728D01*
X284933Y194310D02*
X287191Y192955D01*
X287191Y192956D02*
X287278Y192901D01*
X287362Y192844D01*
X287444Y192783D01*
X287524Y192720D01*
X287601Y192653D01*
X287676Y192584D01*
X287748Y192512D01*
X287817Y192437D01*
X287884Y192359D01*
X287947Y192279D01*
X288008Y192197D01*
X288065Y192113D01*
X288119Y192026D01*
X288170Y191938D01*
X288217Y191847D01*
X288261Y191755D01*
X288301Y191661D01*
X288338Y191566D01*
X288371Y191470D01*
X288400Y191372D01*
X288426Y191273D01*
X288448Y191174D01*
X288466Y191073D01*
X288481Y190972D01*
X288491Y190871D01*
X288498Y190769D01*
X288501Y190667D01*
X288500Y190565D01*
X288495Y190463D01*
X288486Y190361D01*
X288474Y190260D01*
X288457Y190159D01*
X288437Y190059D01*
X288413Y189960D01*
X288386Y189862D01*
X288354Y189765D01*
X288319Y189669D01*
X288281Y189575D01*
X288239Y189482D01*
X288193Y189390D01*
X288144Y189301D01*
X288092Y189213D01*
X288036Y189128D01*
X287977Y189044D01*
X287915Y188963D01*
X287850Y188885D01*
X287782Y188809D01*
X287712Y188735D01*
X287638Y188664D01*
X287562Y188596D01*
X287483Y188531D01*
X287402Y188469D01*
X287319Y188410D01*
X287234Y188355D01*
X287146Y188302D01*
X287057Y188253D01*
X286965Y188207D01*
X286873Y188165D01*
X286778Y188126D01*
X286682Y188091D01*
X286585Y188060D01*
X286487Y188032D01*
X286388Y188008D01*
X286288Y187988D01*
X286288Y187989D02*
X286118Y187960D01*
X285948Y187935D01*
X285778Y187914D01*
X285606Y187898D01*
X285435Y187885D01*
X285263Y187877D01*
X285091Y187873D01*
X284919Y187872D01*
X284747Y187877D01*
X284575Y187885D01*
X284404Y187897D01*
X284233Y187913D01*
X284062Y187934D01*
X283892Y187959D01*
X283722Y187987D01*
X283553Y188020D01*
X283385Y188057D01*
X283218Y188098D01*
X283052Y188143D01*
X282887Y188192D01*
X282724Y188244D01*
X282561Y188301D01*
X282400Y188362D01*
X282241Y188426D01*
X282083Y188495D01*
X281927Y188567D01*
X281772Y188642D01*
X281620Y188722D01*
X281469Y188805D01*
X281321Y188892D01*
X295007Y198826D02*
X299522Y202438D01*
X299522Y186182D01*
X295007Y186182D02*
X304038Y186182D01*
D18*
X494300Y503150D02*
X494302Y503213D01*
X494308Y503275D01*
X494318Y503337D01*
X494331Y503399D01*
X494349Y503459D01*
X494370Y503518D01*
X494395Y503576D01*
X494424Y503632D01*
X494456Y503686D01*
X494491Y503738D01*
X494529Y503787D01*
X494571Y503835D01*
X494615Y503879D01*
X494663Y503921D01*
X494712Y503959D01*
X494764Y503994D01*
X494818Y504026D01*
X494874Y504055D01*
X494932Y504080D01*
X494991Y504101D01*
X495051Y504119D01*
X495113Y504132D01*
X495175Y504142D01*
X495237Y504148D01*
X495300Y504150D01*
X495363Y504148D01*
X495425Y504142D01*
X495487Y504132D01*
X495549Y504119D01*
X495609Y504101D01*
X495668Y504080D01*
X495726Y504055D01*
X495782Y504026D01*
X495836Y503994D01*
X495888Y503959D01*
X495937Y503921D01*
X495985Y503879D01*
X496029Y503835D01*
X496071Y503787D01*
X496109Y503738D01*
X496144Y503686D01*
X496176Y503632D01*
X496205Y503576D01*
X496230Y503518D01*
X496251Y503459D01*
X496269Y503399D01*
X496282Y503337D01*
X496292Y503275D01*
X496298Y503213D01*
X496300Y503150D01*
X496298Y503087D01*
X496292Y503025D01*
X496282Y502963D01*
X496269Y502901D01*
X496251Y502841D01*
X496230Y502782D01*
X496205Y502724D01*
X496176Y502668D01*
X496144Y502614D01*
X496109Y502562D01*
X496071Y502513D01*
X496029Y502465D01*
X495985Y502421D01*
X495937Y502379D01*
X495888Y502341D01*
X495836Y502306D01*
X495782Y502274D01*
X495726Y502245D01*
X495668Y502220D01*
X495609Y502199D01*
X495549Y502181D01*
X495487Y502168D01*
X495425Y502158D01*
X495363Y502152D01*
X495300Y502150D01*
X495237Y502152D01*
X495175Y502158D01*
X495113Y502168D01*
X495051Y502181D01*
X494991Y502199D01*
X494932Y502220D01*
X494874Y502245D01*
X494818Y502274D01*
X494764Y502306D01*
X494712Y502341D01*
X494663Y502379D01*
X494615Y502421D01*
X494571Y502465D01*
X494529Y502513D01*
X494491Y502562D01*
X494456Y502614D01*
X494424Y502668D01*
X494395Y502724D01*
X494370Y502782D01*
X494349Y502841D01*
X494331Y502901D01*
X494318Y502963D01*
X494308Y503025D01*
X494302Y503087D01*
X494300Y503150D01*
D12*
X508590Y516500D02*
X516700Y516500D01*
X541900Y516500D02*
X550700Y516500D01*
X575900Y516500D02*
X580100Y516500D01*
X580100Y563500D02*
X478500Y563500D01*
X478500Y516500D01*
X580100Y516500D02*
X580100Y563500D01*
D17*
X471808Y572454D02*
X471808Y580892D01*
X471808Y572454D02*
X471810Y572341D01*
X471816Y572228D01*
X471826Y572115D01*
X471840Y572002D01*
X471857Y571890D01*
X471879Y571779D01*
X471904Y571669D01*
X471934Y571559D01*
X471967Y571451D01*
X472004Y571344D01*
X472044Y571238D01*
X472089Y571134D01*
X472137Y571031D01*
X472188Y570930D01*
X472243Y570831D01*
X472301Y570734D01*
X472363Y570639D01*
X472428Y570546D01*
X472496Y570456D01*
X472567Y570368D01*
X472642Y570282D01*
X472719Y570199D01*
X472799Y570119D01*
X472882Y570042D01*
X472968Y569967D01*
X473056Y569896D01*
X473146Y569828D01*
X473239Y569763D01*
X473334Y569701D01*
X473431Y569643D01*
X473530Y569588D01*
X473631Y569537D01*
X473734Y569489D01*
X473838Y569444D01*
X473944Y569404D01*
X474051Y569367D01*
X474159Y569334D01*
X474269Y569304D01*
X474379Y569279D01*
X474490Y569257D01*
X474602Y569240D01*
X474715Y569226D01*
X474828Y569216D01*
X474941Y569210D01*
X475054Y569208D01*
X475167Y569210D01*
X475280Y569216D01*
X475393Y569226D01*
X475506Y569240D01*
X475618Y569257D01*
X475729Y569279D01*
X475839Y569304D01*
X475949Y569334D01*
X476057Y569367D01*
X476164Y569404D01*
X476270Y569444D01*
X476374Y569489D01*
X476477Y569537D01*
X476578Y569588D01*
X476677Y569643D01*
X476774Y569701D01*
X476869Y569763D01*
X476962Y569828D01*
X477052Y569896D01*
X477140Y569967D01*
X477226Y570042D01*
X477309Y570119D01*
X477389Y570199D01*
X477466Y570282D01*
X477541Y570368D01*
X477612Y570456D01*
X477680Y570546D01*
X477745Y570639D01*
X477807Y570734D01*
X477865Y570831D01*
X477920Y570930D01*
X477971Y571031D01*
X478019Y571134D01*
X478064Y571238D01*
X478104Y571344D01*
X478141Y571451D01*
X478174Y571559D01*
X478204Y571669D01*
X478229Y571779D01*
X478251Y571890D01*
X478268Y572002D01*
X478282Y572115D01*
X478292Y572228D01*
X478298Y572341D01*
X478300Y572454D01*
X478299Y572454D02*
X478299Y580892D01*
X483619Y578296D02*
X486865Y580892D01*
X486865Y569208D01*
X490110Y569208D02*
X483619Y569208D01*
D10*
X73660Y288290D02*
X73560Y288288D01*
X73461Y288282D01*
X73361Y288272D01*
X73263Y288259D01*
X73164Y288241D01*
X73067Y288220D01*
X72971Y288195D01*
X72875Y288166D01*
X72781Y288133D01*
X72688Y288097D01*
X72597Y288057D01*
X72507Y288013D01*
X72419Y287966D01*
X72333Y287916D01*
X72249Y287862D01*
X72167Y287805D01*
X72088Y287745D01*
X72010Y287681D01*
X71936Y287615D01*
X71864Y287546D01*
X71795Y287474D01*
X71729Y287400D01*
X71665Y287322D01*
X71605Y287243D01*
X71548Y287161D01*
X71494Y287077D01*
X71444Y286991D01*
X71397Y286903D01*
X71353Y286813D01*
X71313Y286722D01*
X71277Y286629D01*
X71244Y286535D01*
X71215Y286439D01*
X71190Y286343D01*
X71169Y286246D01*
X71151Y286147D01*
X71138Y286049D01*
X71128Y285949D01*
X71122Y285850D01*
X71120Y285750D01*
X71120Y273050D02*
X71122Y272950D01*
X71128Y272851D01*
X71138Y272751D01*
X71151Y272653D01*
X71169Y272554D01*
X71190Y272457D01*
X71215Y272361D01*
X71244Y272265D01*
X71277Y272171D01*
X71313Y272078D01*
X71353Y271987D01*
X71397Y271897D01*
X71444Y271809D01*
X71494Y271723D01*
X71548Y271639D01*
X71605Y271557D01*
X71665Y271478D01*
X71729Y271400D01*
X71795Y271326D01*
X71864Y271254D01*
X71936Y271185D01*
X72010Y271119D01*
X72088Y271055D01*
X72167Y270995D01*
X72249Y270938D01*
X72333Y270884D01*
X72419Y270834D01*
X72507Y270787D01*
X72597Y270743D01*
X72688Y270703D01*
X72781Y270667D01*
X72875Y270634D01*
X72971Y270605D01*
X73067Y270580D01*
X73164Y270559D01*
X73263Y270541D01*
X73361Y270528D01*
X73461Y270518D01*
X73560Y270512D01*
X73660Y270510D01*
X104140Y270510D02*
X104240Y270512D01*
X104339Y270518D01*
X104439Y270528D01*
X104537Y270541D01*
X104636Y270559D01*
X104733Y270580D01*
X104829Y270605D01*
X104925Y270634D01*
X105019Y270667D01*
X105112Y270703D01*
X105203Y270743D01*
X105293Y270787D01*
X105381Y270834D01*
X105467Y270884D01*
X105551Y270938D01*
X105633Y270995D01*
X105712Y271055D01*
X105790Y271119D01*
X105864Y271185D01*
X105936Y271254D01*
X106005Y271326D01*
X106071Y271400D01*
X106135Y271478D01*
X106195Y271557D01*
X106252Y271639D01*
X106306Y271723D01*
X106356Y271809D01*
X106403Y271897D01*
X106447Y271987D01*
X106487Y272078D01*
X106523Y272171D01*
X106556Y272265D01*
X106585Y272361D01*
X106610Y272457D01*
X106631Y272554D01*
X106649Y272653D01*
X106662Y272751D01*
X106672Y272851D01*
X106678Y272950D01*
X106680Y273050D01*
X106680Y285750D02*
X106678Y285850D01*
X106672Y285949D01*
X106662Y286049D01*
X106649Y286147D01*
X106631Y286246D01*
X106610Y286343D01*
X106585Y286439D01*
X106556Y286535D01*
X106523Y286629D01*
X106487Y286722D01*
X106447Y286813D01*
X106403Y286903D01*
X106356Y286991D01*
X106306Y287077D01*
X106252Y287161D01*
X106195Y287243D01*
X106135Y287322D01*
X106071Y287400D01*
X106005Y287474D01*
X105936Y287546D01*
X105864Y287615D01*
X105790Y287681D01*
X105712Y287745D01*
X105633Y287805D01*
X105551Y287862D01*
X105467Y287916D01*
X105381Y287966D01*
X105293Y288013D01*
X105203Y288057D01*
X105112Y288097D01*
X105019Y288133D01*
X104925Y288166D01*
X104829Y288195D01*
X104733Y288220D01*
X104636Y288241D01*
X104537Y288259D01*
X104439Y288272D01*
X104339Y288282D01*
X104240Y288288D01*
X104140Y288290D01*
X76200Y288290D02*
X73660Y288290D01*
X76200Y288290D02*
X77470Y287020D01*
X76200Y270510D02*
X73660Y270510D01*
X76200Y270510D02*
X77470Y271780D01*
X100330Y287020D02*
X101600Y288290D01*
X100330Y287020D02*
X77470Y287020D01*
X100330Y271780D02*
X101600Y270510D01*
X100330Y271780D02*
X77470Y271780D01*
X101600Y288290D02*
X104140Y288290D01*
X104140Y270510D02*
X101600Y270510D01*
D17*
X69342Y291592D02*
X69342Y300482D01*
X71811Y300482D01*
X71909Y300480D01*
X72007Y300474D01*
X72105Y300464D01*
X72202Y300451D01*
X72299Y300433D01*
X72395Y300412D01*
X72489Y300387D01*
X72583Y300358D01*
X72676Y300326D01*
X72767Y300289D01*
X72857Y300250D01*
X72945Y300206D01*
X73031Y300159D01*
X73116Y300109D01*
X73198Y300056D01*
X73278Y299999D01*
X73356Y299939D01*
X73431Y299876D01*
X73504Y299810D01*
X73574Y299741D01*
X73641Y299670D01*
X73706Y299596D01*
X73767Y299519D01*
X73826Y299440D01*
X73881Y299359D01*
X73933Y299276D01*
X73981Y299190D01*
X74026Y299103D01*
X74068Y299014D01*
X74106Y298924D01*
X74140Y298832D01*
X74171Y298739D01*
X74198Y298644D01*
X74221Y298549D01*
X74241Y298452D01*
X74256Y298356D01*
X74268Y298258D01*
X74276Y298160D01*
X74280Y298062D01*
X74280Y297964D01*
X74276Y297866D01*
X74268Y297768D01*
X74256Y297670D01*
X74241Y297574D01*
X74221Y297477D01*
X74198Y297382D01*
X74171Y297287D01*
X74140Y297194D01*
X74106Y297102D01*
X74068Y297012D01*
X74026Y296923D01*
X73981Y296836D01*
X73933Y296750D01*
X73881Y296667D01*
X73826Y296586D01*
X73767Y296507D01*
X73706Y296430D01*
X73641Y296356D01*
X73574Y296285D01*
X73504Y296216D01*
X73431Y296150D01*
X73356Y296087D01*
X73278Y296027D01*
X73198Y295970D01*
X73116Y295917D01*
X73031Y295867D01*
X72945Y295820D01*
X72857Y295776D01*
X72767Y295737D01*
X72676Y295700D01*
X72583Y295668D01*
X72489Y295639D01*
X72395Y295614D01*
X72299Y295593D01*
X72202Y295575D01*
X72105Y295562D01*
X72007Y295552D01*
X71909Y295546D01*
X71811Y295544D01*
X71811Y295543D02*
X69342Y295543D01*
X72305Y295543D02*
X74281Y291592D01*
X83131Y298260D02*
X83129Y298352D01*
X83123Y298444D01*
X83114Y298535D01*
X83101Y298626D01*
X83084Y298716D01*
X83063Y298806D01*
X83039Y298894D01*
X83011Y298982D01*
X82979Y299068D01*
X82944Y299153D01*
X82905Y299236D01*
X82863Y299318D01*
X82818Y299398D01*
X82769Y299476D01*
X82717Y299552D01*
X82662Y299625D01*
X82604Y299697D01*
X82544Y299766D01*
X82480Y299832D01*
X82414Y299896D01*
X82345Y299956D01*
X82273Y300014D01*
X82200Y300069D01*
X82124Y300121D01*
X82046Y300170D01*
X81966Y300215D01*
X81884Y300257D01*
X81801Y300296D01*
X81716Y300331D01*
X81630Y300363D01*
X81542Y300391D01*
X81454Y300415D01*
X81364Y300436D01*
X81274Y300453D01*
X81183Y300466D01*
X81092Y300475D01*
X81000Y300481D01*
X80908Y300483D01*
X80908Y300482D02*
X80802Y300480D01*
X80697Y300474D01*
X80592Y300464D01*
X80487Y300451D01*
X80383Y300433D01*
X80280Y300412D01*
X80177Y300387D01*
X80075Y300358D01*
X79975Y300325D01*
X79876Y300289D01*
X79778Y300249D01*
X79682Y300205D01*
X79587Y300158D01*
X79495Y300108D01*
X79404Y300054D01*
X79315Y299996D01*
X79229Y299936D01*
X79145Y299872D01*
X79063Y299806D01*
X78983Y299736D01*
X78907Y299663D01*
X78833Y299588D01*
X78762Y299510D01*
X78694Y299429D01*
X78628Y299346D01*
X78566Y299260D01*
X78508Y299173D01*
X78452Y299083D01*
X78400Y298991D01*
X78351Y298897D01*
X78306Y298802D01*
X78264Y298705D01*
X78226Y298606D01*
X78192Y298507D01*
X82390Y296531D02*
X82459Y296600D01*
X82525Y296670D01*
X82588Y296744D01*
X82647Y296820D01*
X82704Y296898D01*
X82758Y296978D01*
X82808Y297061D01*
X82855Y297145D01*
X82898Y297232D01*
X82938Y297320D01*
X82974Y297409D01*
X83007Y297500D01*
X83036Y297592D01*
X83061Y297686D01*
X83082Y297780D01*
X83100Y297875D01*
X83113Y297971D01*
X83123Y298067D01*
X83129Y298163D01*
X83131Y298260D01*
X82390Y296531D02*
X78192Y291592D01*
X83131Y291592D01*
D10*
X71120Y565150D02*
X71122Y565250D01*
X71128Y565349D01*
X71138Y565449D01*
X71151Y565547D01*
X71169Y565646D01*
X71190Y565743D01*
X71215Y565839D01*
X71244Y565935D01*
X71277Y566029D01*
X71313Y566122D01*
X71353Y566213D01*
X71397Y566303D01*
X71444Y566391D01*
X71494Y566477D01*
X71548Y566561D01*
X71605Y566643D01*
X71665Y566722D01*
X71729Y566800D01*
X71795Y566874D01*
X71864Y566946D01*
X71936Y567015D01*
X72010Y567081D01*
X72088Y567145D01*
X72167Y567205D01*
X72249Y567262D01*
X72333Y567316D01*
X72419Y567366D01*
X72507Y567413D01*
X72597Y567457D01*
X72688Y567497D01*
X72781Y567533D01*
X72875Y567566D01*
X72971Y567595D01*
X73067Y567620D01*
X73164Y567641D01*
X73263Y567659D01*
X73361Y567672D01*
X73461Y567682D01*
X73560Y567688D01*
X73660Y567690D01*
X71120Y552450D02*
X71122Y552350D01*
X71128Y552251D01*
X71138Y552151D01*
X71151Y552053D01*
X71169Y551954D01*
X71190Y551857D01*
X71215Y551761D01*
X71244Y551665D01*
X71277Y551571D01*
X71313Y551478D01*
X71353Y551387D01*
X71397Y551297D01*
X71444Y551209D01*
X71494Y551123D01*
X71548Y551039D01*
X71605Y550957D01*
X71665Y550878D01*
X71729Y550800D01*
X71795Y550726D01*
X71864Y550654D01*
X71936Y550585D01*
X72010Y550519D01*
X72088Y550455D01*
X72167Y550395D01*
X72249Y550338D01*
X72333Y550284D01*
X72419Y550234D01*
X72507Y550187D01*
X72597Y550143D01*
X72688Y550103D01*
X72781Y550067D01*
X72875Y550034D01*
X72971Y550005D01*
X73067Y549980D01*
X73164Y549959D01*
X73263Y549941D01*
X73361Y549928D01*
X73461Y549918D01*
X73560Y549912D01*
X73660Y549910D01*
X104140Y549910D02*
X104240Y549912D01*
X104339Y549918D01*
X104439Y549928D01*
X104537Y549941D01*
X104636Y549959D01*
X104733Y549980D01*
X104829Y550005D01*
X104925Y550034D01*
X105019Y550067D01*
X105112Y550103D01*
X105203Y550143D01*
X105293Y550187D01*
X105381Y550234D01*
X105467Y550284D01*
X105551Y550338D01*
X105633Y550395D01*
X105712Y550455D01*
X105790Y550519D01*
X105864Y550585D01*
X105936Y550654D01*
X106005Y550726D01*
X106071Y550800D01*
X106135Y550878D01*
X106195Y550957D01*
X106252Y551039D01*
X106306Y551123D01*
X106356Y551209D01*
X106403Y551297D01*
X106447Y551387D01*
X106487Y551478D01*
X106523Y551571D01*
X106556Y551665D01*
X106585Y551761D01*
X106610Y551857D01*
X106631Y551954D01*
X106649Y552053D01*
X106662Y552151D01*
X106672Y552251D01*
X106678Y552350D01*
X106680Y552450D01*
X106680Y565150D02*
X106678Y565250D01*
X106672Y565349D01*
X106662Y565449D01*
X106649Y565547D01*
X106631Y565646D01*
X106610Y565743D01*
X106585Y565839D01*
X106556Y565935D01*
X106523Y566029D01*
X106487Y566122D01*
X106447Y566213D01*
X106403Y566303D01*
X106356Y566391D01*
X106306Y566477D01*
X106252Y566561D01*
X106195Y566643D01*
X106135Y566722D01*
X106071Y566800D01*
X106005Y566874D01*
X105936Y566946D01*
X105864Y567015D01*
X105790Y567081D01*
X105712Y567145D01*
X105633Y567205D01*
X105551Y567262D01*
X105467Y567316D01*
X105381Y567366D01*
X105293Y567413D01*
X105203Y567457D01*
X105112Y567497D01*
X105019Y567533D01*
X104925Y567566D01*
X104829Y567595D01*
X104733Y567620D01*
X104636Y567641D01*
X104537Y567659D01*
X104439Y567672D01*
X104339Y567682D01*
X104240Y567688D01*
X104140Y567690D01*
X76200Y567690D02*
X73660Y567690D01*
X76200Y567690D02*
X77470Y566420D01*
X76200Y549910D02*
X73660Y549910D01*
X76200Y549910D02*
X77470Y551180D01*
X100330Y566420D02*
X101600Y567690D01*
X100330Y566420D02*
X77470Y566420D01*
X100330Y551180D02*
X101600Y549910D01*
X100330Y551180D02*
X77470Y551180D01*
X101600Y567690D02*
X104140Y567690D01*
X104140Y549910D02*
X101600Y549910D01*
D17*
X69342Y570992D02*
X69342Y579882D01*
X71811Y579882D01*
X71909Y579880D01*
X72007Y579874D01*
X72105Y579864D01*
X72202Y579851D01*
X72299Y579833D01*
X72395Y579812D01*
X72489Y579787D01*
X72583Y579758D01*
X72676Y579726D01*
X72767Y579689D01*
X72857Y579650D01*
X72945Y579606D01*
X73031Y579559D01*
X73116Y579509D01*
X73198Y579456D01*
X73278Y579399D01*
X73356Y579339D01*
X73431Y579276D01*
X73504Y579210D01*
X73574Y579141D01*
X73641Y579070D01*
X73706Y578996D01*
X73767Y578919D01*
X73826Y578840D01*
X73881Y578759D01*
X73933Y578676D01*
X73981Y578590D01*
X74026Y578503D01*
X74068Y578414D01*
X74106Y578324D01*
X74140Y578232D01*
X74171Y578139D01*
X74198Y578044D01*
X74221Y577949D01*
X74241Y577852D01*
X74256Y577756D01*
X74268Y577658D01*
X74276Y577560D01*
X74280Y577462D01*
X74280Y577364D01*
X74276Y577266D01*
X74268Y577168D01*
X74256Y577070D01*
X74241Y576974D01*
X74221Y576877D01*
X74198Y576782D01*
X74171Y576687D01*
X74140Y576594D01*
X74106Y576502D01*
X74068Y576412D01*
X74026Y576323D01*
X73981Y576236D01*
X73933Y576150D01*
X73881Y576067D01*
X73826Y575986D01*
X73767Y575907D01*
X73706Y575830D01*
X73641Y575756D01*
X73574Y575685D01*
X73504Y575616D01*
X73431Y575550D01*
X73356Y575487D01*
X73278Y575427D01*
X73198Y575370D01*
X73116Y575317D01*
X73031Y575267D01*
X72945Y575220D01*
X72857Y575176D01*
X72767Y575137D01*
X72676Y575100D01*
X72583Y575068D01*
X72489Y575039D01*
X72395Y575014D01*
X72299Y574993D01*
X72202Y574975D01*
X72105Y574962D01*
X72007Y574952D01*
X71909Y574946D01*
X71811Y574944D01*
X71811Y574943D02*
X69342Y574943D01*
X72305Y574943D02*
X74281Y570992D01*
X78192Y577906D02*
X80661Y579882D01*
X80661Y570992D01*
X78192Y570992D02*
X83131Y570992D01*
D10*
X520700Y241300D02*
X533400Y241300D01*
X546100Y247142D01*
X546100Y235458D01*
X533400Y241300D01*
X558800Y241300D01*
X533400Y241300D02*
X533400Y235458D01*
X482600Y214630D02*
X482600Y267970D01*
X584200Y267970D02*
X584200Y214630D01*
X584200Y267970D02*
X482600Y267970D01*
X482600Y214630D02*
X584200Y214630D01*
X537210Y235458D02*
X533400Y235458D01*
X533400Y247142D02*
X529590Y247142D01*
X533400Y247142D02*
X533400Y241300D01*
D14*
X478155Y241300D03*
X588645Y241300D03*
D15*
X495300Y241300D03*
D12*
X483235Y271145D02*
X483235Y282575D01*
X486410Y282575D01*
X486521Y282573D01*
X486631Y282567D01*
X486742Y282558D01*
X486852Y282544D01*
X486961Y282527D01*
X487070Y282506D01*
X487178Y282481D01*
X487285Y282452D01*
X487391Y282420D01*
X487496Y282384D01*
X487599Y282344D01*
X487701Y282301D01*
X487802Y282254D01*
X487901Y282203D01*
X487998Y282150D01*
X488092Y282093D01*
X488185Y282032D01*
X488276Y281969D01*
X488365Y281902D01*
X488451Y281832D01*
X488534Y281759D01*
X488616Y281684D01*
X488694Y281606D01*
X488769Y281524D01*
X488842Y281441D01*
X488912Y281355D01*
X488979Y281266D01*
X489042Y281175D01*
X489103Y281082D01*
X489160Y280988D01*
X489213Y280891D01*
X489264Y280792D01*
X489311Y280691D01*
X489354Y280589D01*
X489394Y280486D01*
X489430Y280381D01*
X489462Y280275D01*
X489491Y280168D01*
X489516Y280060D01*
X489537Y279951D01*
X489554Y279842D01*
X489568Y279732D01*
X489577Y279621D01*
X489583Y279511D01*
X489585Y279400D01*
X489585Y274320D01*
X489583Y274209D01*
X489577Y274099D01*
X489568Y273988D01*
X489554Y273878D01*
X489537Y273769D01*
X489516Y273660D01*
X489491Y273552D01*
X489462Y273445D01*
X489430Y273339D01*
X489394Y273234D01*
X489354Y273131D01*
X489311Y273029D01*
X489264Y272928D01*
X489213Y272829D01*
X489160Y272732D01*
X489103Y272638D01*
X489042Y272545D01*
X488979Y272454D01*
X488912Y272365D01*
X488842Y272279D01*
X488769Y272196D01*
X488694Y272114D01*
X488616Y272036D01*
X488534Y271961D01*
X488451Y271888D01*
X488365Y271818D01*
X488276Y271751D01*
X488185Y271688D01*
X488092Y271627D01*
X487998Y271570D01*
X487901Y271517D01*
X487802Y271466D01*
X487701Y271419D01*
X487599Y271376D01*
X487496Y271336D01*
X487391Y271300D01*
X487285Y271268D01*
X487178Y271239D01*
X487070Y271214D01*
X486961Y271193D01*
X486852Y271176D01*
X486742Y271162D01*
X486631Y271153D01*
X486521Y271147D01*
X486410Y271145D01*
X483235Y271145D01*
X495046Y271145D02*
X498221Y271145D01*
X498332Y271147D01*
X498442Y271153D01*
X498553Y271162D01*
X498663Y271176D01*
X498772Y271193D01*
X498881Y271214D01*
X498989Y271239D01*
X499096Y271268D01*
X499202Y271300D01*
X499307Y271336D01*
X499410Y271376D01*
X499512Y271419D01*
X499613Y271466D01*
X499712Y271517D01*
X499809Y271570D01*
X499903Y271627D01*
X499996Y271688D01*
X500087Y271751D01*
X500176Y271818D01*
X500262Y271888D01*
X500345Y271961D01*
X500427Y272036D01*
X500505Y272114D01*
X500580Y272196D01*
X500653Y272279D01*
X500723Y272365D01*
X500790Y272454D01*
X500853Y272545D01*
X500914Y272638D01*
X500971Y272732D01*
X501024Y272829D01*
X501075Y272928D01*
X501122Y273029D01*
X501165Y273131D01*
X501205Y273234D01*
X501241Y273339D01*
X501273Y273445D01*
X501302Y273552D01*
X501327Y273660D01*
X501348Y273769D01*
X501365Y273878D01*
X501379Y273988D01*
X501388Y274099D01*
X501394Y274209D01*
X501396Y274320D01*
X501394Y274431D01*
X501388Y274541D01*
X501379Y274652D01*
X501365Y274762D01*
X501348Y274871D01*
X501327Y274980D01*
X501302Y275088D01*
X501273Y275195D01*
X501241Y275301D01*
X501205Y275406D01*
X501165Y275509D01*
X501122Y275611D01*
X501075Y275712D01*
X501024Y275811D01*
X500971Y275907D01*
X500914Y276002D01*
X500853Y276095D01*
X500790Y276186D01*
X500723Y276275D01*
X500653Y276361D01*
X500580Y276444D01*
X500505Y276526D01*
X500427Y276604D01*
X500345Y276679D01*
X500262Y276752D01*
X500176Y276822D01*
X500087Y276889D01*
X499996Y276952D01*
X499903Y277013D01*
X499809Y277070D01*
X499712Y277123D01*
X499613Y277174D01*
X499512Y277221D01*
X499410Y277264D01*
X499307Y277304D01*
X499202Y277340D01*
X499096Y277372D01*
X498989Y277401D01*
X498881Y277426D01*
X498772Y277447D01*
X498663Y277464D01*
X498553Y277478D01*
X498442Y277487D01*
X498332Y277493D01*
X498221Y277495D01*
X498856Y282575D02*
X495046Y282575D01*
X498856Y282575D02*
X498956Y282573D01*
X499055Y282567D01*
X499155Y282557D01*
X499253Y282544D01*
X499352Y282526D01*
X499449Y282505D01*
X499545Y282480D01*
X499641Y282451D01*
X499735Y282418D01*
X499828Y282382D01*
X499919Y282342D01*
X500009Y282298D01*
X500097Y282251D01*
X500183Y282201D01*
X500267Y282147D01*
X500349Y282090D01*
X500428Y282030D01*
X500506Y281966D01*
X500580Y281900D01*
X500652Y281831D01*
X500721Y281759D01*
X500787Y281685D01*
X500851Y281607D01*
X500911Y281528D01*
X500968Y281446D01*
X501022Y281362D01*
X501072Y281276D01*
X501119Y281188D01*
X501163Y281098D01*
X501203Y281007D01*
X501239Y280914D01*
X501272Y280820D01*
X501301Y280724D01*
X501326Y280628D01*
X501347Y280531D01*
X501365Y280432D01*
X501378Y280334D01*
X501388Y280234D01*
X501394Y280135D01*
X501396Y280035D01*
X501394Y279935D01*
X501388Y279836D01*
X501378Y279736D01*
X501365Y279638D01*
X501347Y279539D01*
X501326Y279442D01*
X501301Y279346D01*
X501272Y279250D01*
X501239Y279156D01*
X501203Y279063D01*
X501163Y278972D01*
X501119Y278882D01*
X501072Y278794D01*
X501022Y278708D01*
X500968Y278624D01*
X500911Y278542D01*
X500851Y278463D01*
X500787Y278385D01*
X500721Y278311D01*
X500652Y278239D01*
X500580Y278170D01*
X500506Y278104D01*
X500428Y278040D01*
X500349Y277980D01*
X500267Y277923D01*
X500183Y277869D01*
X500097Y277819D01*
X500009Y277772D01*
X499919Y277728D01*
X499828Y277688D01*
X499735Y277652D01*
X499641Y277619D01*
X499545Y277590D01*
X499449Y277565D01*
X499352Y277544D01*
X499253Y277526D01*
X499155Y277513D01*
X499055Y277503D01*
X498956Y277497D01*
X498856Y277495D01*
X496316Y277495D01*
D10*
X520700Y165100D02*
X533400Y165100D01*
X546100Y170942D01*
X546100Y159258D01*
X533400Y165100D01*
X558800Y165100D01*
X533400Y165100D02*
X533400Y159258D01*
X482600Y138430D02*
X482600Y191770D01*
X584200Y191770D02*
X584200Y138430D01*
X584200Y191770D02*
X482600Y191770D01*
X482600Y138430D02*
X584200Y138430D01*
X537210Y159258D02*
X533400Y159258D01*
X533400Y170942D02*
X529590Y170942D01*
X533400Y170942D02*
X533400Y165100D01*
D14*
X478155Y165100D03*
X588645Y165100D03*
D15*
X495300Y165100D03*
D12*
X483235Y194945D02*
X483235Y206375D01*
X486410Y206375D01*
X486521Y206373D01*
X486631Y206367D01*
X486742Y206358D01*
X486852Y206344D01*
X486961Y206327D01*
X487070Y206306D01*
X487178Y206281D01*
X487285Y206252D01*
X487391Y206220D01*
X487496Y206184D01*
X487599Y206144D01*
X487701Y206101D01*
X487802Y206054D01*
X487901Y206003D01*
X487998Y205950D01*
X488092Y205893D01*
X488185Y205832D01*
X488276Y205769D01*
X488365Y205702D01*
X488451Y205632D01*
X488534Y205559D01*
X488616Y205484D01*
X488694Y205406D01*
X488769Y205324D01*
X488842Y205241D01*
X488912Y205155D01*
X488979Y205066D01*
X489042Y204975D01*
X489103Y204882D01*
X489160Y204788D01*
X489213Y204691D01*
X489264Y204592D01*
X489311Y204491D01*
X489354Y204389D01*
X489394Y204286D01*
X489430Y204181D01*
X489462Y204075D01*
X489491Y203968D01*
X489516Y203860D01*
X489537Y203751D01*
X489554Y203642D01*
X489568Y203532D01*
X489577Y203421D01*
X489583Y203311D01*
X489585Y203200D01*
X489585Y198120D01*
X489583Y198009D01*
X489577Y197899D01*
X489568Y197788D01*
X489554Y197678D01*
X489537Y197569D01*
X489516Y197460D01*
X489491Y197352D01*
X489462Y197245D01*
X489430Y197139D01*
X489394Y197034D01*
X489354Y196931D01*
X489311Y196829D01*
X489264Y196728D01*
X489213Y196629D01*
X489160Y196532D01*
X489103Y196438D01*
X489042Y196345D01*
X488979Y196254D01*
X488912Y196165D01*
X488842Y196079D01*
X488769Y195996D01*
X488694Y195914D01*
X488616Y195836D01*
X488534Y195761D01*
X488451Y195688D01*
X488365Y195618D01*
X488276Y195551D01*
X488185Y195488D01*
X488092Y195427D01*
X487998Y195370D01*
X487901Y195317D01*
X487802Y195266D01*
X487701Y195219D01*
X487599Y195176D01*
X487496Y195136D01*
X487391Y195100D01*
X487285Y195068D01*
X487178Y195039D01*
X487070Y195014D01*
X486961Y194993D01*
X486852Y194976D01*
X486742Y194962D01*
X486631Y194953D01*
X486521Y194947D01*
X486410Y194945D01*
X483235Y194945D01*
X495046Y197485D02*
X497586Y206375D01*
X495046Y197485D02*
X501396Y197485D01*
X499491Y200025D02*
X499491Y194945D01*
D10*
X520700Y317500D02*
X533400Y317500D01*
X546100Y323342D01*
X546100Y311658D01*
X533400Y317500D01*
X558800Y317500D01*
X533400Y317500D02*
X533400Y311658D01*
X482600Y290830D02*
X482600Y344170D01*
X584200Y344170D02*
X584200Y290830D01*
X584200Y344170D02*
X482600Y344170D01*
X482600Y290830D02*
X584200Y290830D01*
X537210Y311658D02*
X533400Y311658D01*
X533400Y323342D02*
X529590Y323342D01*
X533400Y323342D02*
X533400Y317500D01*
D14*
X478155Y317500D03*
X588645Y317500D03*
D15*
X495300Y317500D03*
D12*
X483235Y347345D02*
X483235Y358775D01*
X486410Y358775D01*
X486521Y358773D01*
X486631Y358767D01*
X486742Y358758D01*
X486852Y358744D01*
X486961Y358727D01*
X487070Y358706D01*
X487178Y358681D01*
X487285Y358652D01*
X487391Y358620D01*
X487496Y358584D01*
X487599Y358544D01*
X487701Y358501D01*
X487802Y358454D01*
X487901Y358403D01*
X487998Y358350D01*
X488092Y358293D01*
X488185Y358232D01*
X488276Y358169D01*
X488365Y358102D01*
X488451Y358032D01*
X488534Y357959D01*
X488616Y357884D01*
X488694Y357806D01*
X488769Y357724D01*
X488842Y357641D01*
X488912Y357555D01*
X488979Y357466D01*
X489042Y357375D01*
X489103Y357282D01*
X489160Y357188D01*
X489213Y357091D01*
X489264Y356992D01*
X489311Y356891D01*
X489354Y356789D01*
X489394Y356686D01*
X489430Y356581D01*
X489462Y356475D01*
X489491Y356368D01*
X489516Y356260D01*
X489537Y356151D01*
X489554Y356042D01*
X489568Y355932D01*
X489577Y355821D01*
X489583Y355711D01*
X489585Y355600D01*
X489585Y350520D01*
X489583Y350409D01*
X489577Y350299D01*
X489568Y350188D01*
X489554Y350078D01*
X489537Y349969D01*
X489516Y349860D01*
X489491Y349752D01*
X489462Y349645D01*
X489430Y349539D01*
X489394Y349434D01*
X489354Y349331D01*
X489311Y349229D01*
X489264Y349128D01*
X489213Y349029D01*
X489160Y348932D01*
X489103Y348838D01*
X489042Y348745D01*
X488979Y348654D01*
X488912Y348565D01*
X488842Y348479D01*
X488769Y348396D01*
X488694Y348314D01*
X488616Y348236D01*
X488534Y348161D01*
X488451Y348088D01*
X488365Y348018D01*
X488276Y347951D01*
X488185Y347888D01*
X488092Y347827D01*
X487998Y347770D01*
X487901Y347717D01*
X487802Y347666D01*
X487701Y347619D01*
X487599Y347576D01*
X487496Y347536D01*
X487391Y347500D01*
X487285Y347468D01*
X487178Y347439D01*
X487070Y347414D01*
X486961Y347393D01*
X486852Y347376D01*
X486742Y347362D01*
X486631Y347353D01*
X486521Y347347D01*
X486410Y347345D01*
X483235Y347345D01*
X498539Y358776D02*
X498643Y358774D01*
X498748Y358768D01*
X498852Y358759D01*
X498955Y358746D01*
X499058Y358728D01*
X499160Y358708D01*
X499262Y358683D01*
X499362Y358655D01*
X499462Y358623D01*
X499560Y358587D01*
X499657Y358548D01*
X499752Y358506D01*
X499846Y358460D01*
X499938Y358410D01*
X500028Y358358D01*
X500116Y358302D01*
X500202Y358242D01*
X500286Y358180D01*
X500367Y358115D01*
X500446Y358047D01*
X500523Y357975D01*
X500596Y357902D01*
X500668Y357825D01*
X500736Y357746D01*
X500801Y357665D01*
X500863Y357581D01*
X500923Y357495D01*
X500979Y357407D01*
X501031Y357317D01*
X501081Y357225D01*
X501127Y357131D01*
X501169Y357036D01*
X501208Y356939D01*
X501244Y356841D01*
X501276Y356741D01*
X501304Y356641D01*
X501329Y356539D01*
X501349Y356437D01*
X501367Y356334D01*
X501380Y356231D01*
X501389Y356127D01*
X501395Y356022D01*
X501397Y355918D01*
X498539Y358775D02*
X498421Y358773D01*
X498302Y358767D01*
X498184Y358758D01*
X498067Y358745D01*
X497950Y358727D01*
X497833Y358707D01*
X497717Y358682D01*
X497602Y358654D01*
X497489Y358621D01*
X497376Y358586D01*
X497264Y358546D01*
X497154Y358504D01*
X497045Y358457D01*
X496937Y358407D01*
X496832Y358354D01*
X496728Y358297D01*
X496626Y358237D01*
X496526Y358174D01*
X496428Y358107D01*
X496332Y358038D01*
X496239Y357965D01*
X496148Y357889D01*
X496059Y357811D01*
X495973Y357729D01*
X495890Y357645D01*
X495809Y357559D01*
X495732Y357469D01*
X495657Y357378D01*
X495585Y357284D01*
X495516Y357187D01*
X495451Y357089D01*
X495388Y356988D01*
X495329Y356885D01*
X495273Y356781D01*
X495221Y356675D01*
X495172Y356567D01*
X495127Y356458D01*
X495085Y356347D01*
X495047Y356235D01*
X500444Y353696D02*
X500520Y353771D01*
X500595Y353850D01*
X500666Y353931D01*
X500735Y354015D01*
X500800Y354101D01*
X500862Y354189D01*
X500922Y354279D01*
X500978Y354371D01*
X501031Y354466D01*
X501080Y354562D01*
X501126Y354660D01*
X501169Y354759D01*
X501208Y354860D01*
X501243Y354962D01*
X501275Y355065D01*
X501303Y355169D01*
X501328Y355274D01*
X501349Y355381D01*
X501366Y355487D01*
X501379Y355594D01*
X501388Y355702D01*
X501394Y355810D01*
X501396Y355918D01*
X500444Y353695D02*
X495046Y347345D01*
X501396Y347345D01*
D10*
X520700Y88900D02*
X533400Y88900D01*
X546100Y94742D01*
X546100Y83058D01*
X533400Y88900D01*
X558800Y88900D01*
X533400Y88900D02*
X533400Y83058D01*
X482600Y62230D02*
X482600Y115570D01*
X584200Y115570D02*
X584200Y62230D01*
X584200Y115570D02*
X482600Y115570D01*
X482600Y62230D02*
X584200Y62230D01*
X537210Y83058D02*
X533400Y83058D01*
X533400Y94742D02*
X529590Y94742D01*
X533400Y94742D02*
X533400Y88900D01*
D14*
X478155Y88900D03*
X588645Y88900D03*
D15*
X495300Y88900D03*
D12*
X483235Y118745D02*
X483235Y130175D01*
X486410Y130175D01*
X486521Y130173D01*
X486631Y130167D01*
X486742Y130158D01*
X486852Y130144D01*
X486961Y130127D01*
X487070Y130106D01*
X487178Y130081D01*
X487285Y130052D01*
X487391Y130020D01*
X487496Y129984D01*
X487599Y129944D01*
X487701Y129901D01*
X487802Y129854D01*
X487901Y129803D01*
X487998Y129750D01*
X488092Y129693D01*
X488185Y129632D01*
X488276Y129569D01*
X488365Y129502D01*
X488451Y129432D01*
X488534Y129359D01*
X488616Y129284D01*
X488694Y129206D01*
X488769Y129124D01*
X488842Y129041D01*
X488912Y128955D01*
X488979Y128866D01*
X489042Y128775D01*
X489103Y128682D01*
X489160Y128588D01*
X489213Y128491D01*
X489264Y128392D01*
X489311Y128291D01*
X489354Y128189D01*
X489394Y128086D01*
X489430Y127981D01*
X489462Y127875D01*
X489491Y127768D01*
X489516Y127660D01*
X489537Y127551D01*
X489554Y127442D01*
X489568Y127332D01*
X489577Y127221D01*
X489583Y127111D01*
X489585Y127000D01*
X489585Y121920D01*
X489583Y121809D01*
X489577Y121699D01*
X489568Y121588D01*
X489554Y121478D01*
X489537Y121369D01*
X489516Y121260D01*
X489491Y121152D01*
X489462Y121045D01*
X489430Y120939D01*
X489394Y120834D01*
X489354Y120731D01*
X489311Y120629D01*
X489264Y120528D01*
X489213Y120429D01*
X489160Y120332D01*
X489103Y120238D01*
X489042Y120145D01*
X488979Y120054D01*
X488912Y119965D01*
X488842Y119879D01*
X488769Y119796D01*
X488694Y119714D01*
X488616Y119636D01*
X488534Y119561D01*
X488451Y119488D01*
X488365Y119418D01*
X488276Y119351D01*
X488185Y119288D01*
X488092Y119227D01*
X487998Y119170D01*
X487901Y119117D01*
X487802Y119066D01*
X487701Y119019D01*
X487599Y118976D01*
X487496Y118936D01*
X487391Y118900D01*
X487285Y118868D01*
X487178Y118839D01*
X487070Y118814D01*
X486961Y118793D01*
X486852Y118776D01*
X486742Y118762D01*
X486631Y118753D01*
X486521Y118747D01*
X486410Y118745D01*
X483235Y118745D01*
X495046Y118745D02*
X498856Y118745D01*
X498956Y118747D01*
X499055Y118753D01*
X499155Y118763D01*
X499253Y118776D01*
X499352Y118794D01*
X499449Y118815D01*
X499545Y118840D01*
X499641Y118869D01*
X499735Y118902D01*
X499828Y118938D01*
X499919Y118978D01*
X500009Y119022D01*
X500097Y119069D01*
X500183Y119119D01*
X500267Y119173D01*
X500349Y119230D01*
X500428Y119290D01*
X500506Y119354D01*
X500580Y119420D01*
X500652Y119489D01*
X500721Y119561D01*
X500787Y119635D01*
X500851Y119713D01*
X500911Y119792D01*
X500968Y119874D01*
X501022Y119958D01*
X501072Y120044D01*
X501119Y120132D01*
X501163Y120222D01*
X501203Y120313D01*
X501239Y120406D01*
X501272Y120500D01*
X501301Y120596D01*
X501326Y120692D01*
X501347Y120789D01*
X501365Y120888D01*
X501378Y120986D01*
X501388Y121086D01*
X501394Y121185D01*
X501396Y121285D01*
X501396Y122555D01*
X501394Y122655D01*
X501388Y122754D01*
X501378Y122854D01*
X501365Y122952D01*
X501347Y123051D01*
X501326Y123148D01*
X501301Y123244D01*
X501272Y123340D01*
X501239Y123434D01*
X501203Y123527D01*
X501163Y123618D01*
X501119Y123708D01*
X501072Y123796D01*
X501022Y123882D01*
X500968Y123966D01*
X500911Y124048D01*
X500851Y124127D01*
X500787Y124205D01*
X500721Y124279D01*
X500652Y124351D01*
X500580Y124420D01*
X500506Y124486D01*
X500428Y124550D01*
X500349Y124610D01*
X500267Y124667D01*
X500183Y124721D01*
X500097Y124771D01*
X500009Y124818D01*
X499919Y124862D01*
X499828Y124902D01*
X499735Y124938D01*
X499641Y124971D01*
X499545Y125000D01*
X499449Y125025D01*
X499352Y125046D01*
X499253Y125064D01*
X499155Y125077D01*
X499055Y125087D01*
X498956Y125093D01*
X498856Y125095D01*
X495046Y125095D01*
X495046Y130175D01*
X501396Y130175D01*
M02*
